<svg width="1414" height="1344" viewBox="0 0 1414 1344" fill="none" xmlns="http://www.w3.org/2000/svg">
<g clip-path="url(#clip0)">
<path d="M783.231 1024.85L787.584 1052.24C779.097 1048.45 768.823 1053.81 766.032 1063.49C763.241 1073.16 768.437 1085.4 776.933 1089.16C773.215 1096.26 765.011 1097.63 757.847 1098.98C750.682 1100.33 742.485 1103.56 740.802 1111.73C739.45 1118.29 743.262 1125.42 748.32 1129.24C753.377 1133.05 759.423 1134.29 765.27 1135.45C754.125 1142.22 748.69 1159.11 753.043 1173.44C757.397 1187.77 771.043 1197.91 783.741 1196.24C772.971 1204.13 769.795 1223 777.04 1236.06C784.343 1249.22 798.716 1254.16 811.813 1256.49C845.154 1262.47 879.517 1258.48 910.603 1245.02C922.474 1239.86 934.067 1233.16 942.848 1222.73C951.628 1212.29 957.321 1197.62 955.76 1182.65C952.604 1200.04 966.027 1218.03 981.139 1222.89C996.251 1227.74 1011.93 1222.7 1025.93 1215.9C1044.55 1206.87 1063.45 1192.28 1067.44 1169.09C1069.41 1157.62 1067.41 1145.53 1065.41 1133.81L1061.53 1111.09C1059.96 1101.91 1058.35 1092.58 1054.53 1084.21C1050.72 1075.84 1044.29 1068.43 1036.43 1066.38C1040.42 1058.66 1044.5 1050.64 1045.33 1041.52C1046.17 1032.4 1042.82 1021.83 1035.54 1017.69C1026.26 1012.43 1015.35 1019.36 1005.56 1015.81C996.132 1012.39 990.754 1000.57 982.414 994.222C979.004 991.52 974.88 989.871 970.547 989.478C966.214 989.085 961.861 989.964 958.02 992.008C950.527 996.216 945.426 1005.35 945.073 1015.19C944.764 1023.81 947.813 1032.31 948.73 1040.95C949.647 1049.59 947.417 1059.78 940.479 1062.51C932.108 1065.8 923.353 1055.92 920.169 1045.96C916.986 1036 916.608 1024.87 911.618 1015.88C905.729 1005.26 893.503 999.865 883.54 1003.49C873.577 1007.11 866.845 1019.4 868.08 1031.71C869.09 1041.77 874.535 1053.14 869.482 1061.01C864.141 1069.33 851.742 1064.77 845.799 1056.29C839.857 1047.81 837.361 1036.76 831.551 1028.16C825.65 1019.43 816.392 1013.81 807.076 1013.32C802.326 1013.16 797.612 1014.2 793.369 1016.34C789.127 1018.48 785.491 1021.66 782.799 1025.57" fill="#F35810"/>
<path d="M978.225 1003.43L952.779 1007.88C948.927 1008.65 944.929 1008.14 941.397 1006.42C938.32 1004.76 936.639 1002.16 936.786 999.276L938.112 973.267C938.361 968.36 943.674 963.9 950.745 962.663L964.798 960.204C971.868 958.966 978.38 961.358 980.278 965.889L990.349 989.904C991.466 992.567 990.767 995.588 988.435 998.191C985.695 1001.01 982.109 1002.85 978.225 1003.43V1003.43Z" fill="#3F3D56"/>
<path d="M398.359 360.779C435.239 308.239 482.681 263.981 537.648 230.838C584.279 202.734 640.634 219.521 640.634 219.521L641.066 219.205C659.247 206.012 680.918 198.482 703.36 197.561C725.802 196.639 748.016 202.366 767.214 214.024C772.212 217.029 776.191 218.833 778.356 218.672C817.848 215.707 823.795 186.725 861.103 172.091C926.427 146.467 1094.99 241.034 1100.66 321.914C1105.25 387.465 1189.75 441.281 1211.93 496.423C1215.4 505.045 1218.74 513.724 1221.96 522.458C1223.48 526.521 1224.97 530.603 1226.42 534.704C1241.36 576.634 1253.35 619.563 1262.29 663.173C1268.17 691.678 1272.19 720.537 1274.32 749.566C1282.11 864.344 1248.82 939.386 1154.86 893.465C1143.74 888.023 1132.83 882.899 1122.14 878.092C1106.67 871.116 1091.64 864.762 1077.04 859.029C1057.39 851.293 1038.52 844.616 1020.41 838.998C1014.33 837.102 1008.33 835.318 1002.43 833.646C915.13 808.952 845.715 808.031 789.338 820.37C779.785 822.45 770.603 824.899 761.794 827.717C748.35 831.98 735.214 837.163 722.481 843.231C704.842 851.698 687.986 861.708 672.109 873.144L671.237 873.772C594.337 929.11 554.258 1002.44 510.272 1005.46C322.239 1018.37 270.679 775.127 315.616 562.742C317.879 552.039 320.387 541.434 323.139 530.927C324.36 526.229 325.636 521.558 326.967 516.915C330.405 504.794 334.181 492.847 338.279 481.143C339.838 476.666 341.445 472.228 343.098 467.828C344.892 463.086 346.72 458.385 348.623 453.736C362.458 419.629 379.116 388.115 398.359 360.779Z" fill="#6348B3"/>
<path d="M398.359 360.779C435.239 308.239 482.681 263.981 537.648 230.838C584.279 202.734 640.634 219.521 640.634 219.521L641.066 219.205C659.247 206.012 680.918 198.482 703.36 197.561C725.802 196.639 748.016 202.366 767.214 214.024C772.212 217.029 776.191 218.833 778.356 218.672C817.848 215.707 823.795 186.725 861.103 172.091C926.427 146.467 1094.99 241.034 1100.66 321.914C1105.25 387.465 1189.75 441.281 1211.93 496.423C1215.4 505.045 1218.74 513.724 1221.96 522.458C1223.48 526.521 1224.97 530.603 1226.42 534.704C1241.36 576.634 1253.35 619.563 1262.29 663.173C1268.17 691.678 1272.19 720.537 1274.32 749.566C1282.11 864.344 1248.82 939.386 1154.86 893.465C1143.74 888.023 1132.83 882.899 1122.14 878.092C1106.67 871.116 1091.64 864.762 1077.04 859.029C1057.39 851.293 1038.52 844.616 1020.41 838.998C1014.33 837.102 1008.33 835.318 1002.43 833.646C915.13 808.952 845.715 808.031 789.338 820.37C779.785 822.45 770.603 824.899 761.794 827.717C748.35 831.98 735.214 837.163 722.481 843.231C704.842 851.698 687.986 861.708 672.109 873.144L671.237 873.772C594.337 929.11 554.258 1002.44 510.272 1005.46C322.239 1018.37 270.679 775.127 315.616 562.742C317.879 552.039 320.387 541.434 323.139 530.927C324.36 526.229 325.636 521.558 326.967 516.915C330.405 504.794 334.181 492.847 338.279 481.143C339.838 476.666 341.445 472.228 343.098 467.828C344.892 463.086 346.72 458.385 348.623 453.736C362.458 419.629 379.116 388.115 398.359 360.779Z" fill="url(#paint0_linear)"/>
<path d="M901.258 619.007C885.789 621.726 877.875 650.352 879.697 660.802L883.005 679.721L939.024 669.919L935.717 651C933.885 640.552 916.731 616.312 901.258 619.007Z" fill="#3F3D56"/>
<path d="M702.665 824.685C701.789 824.451 700.982 824.008 700.313 823.394C699.644 822.781 699.133 822.015 698.823 821.162C698.513 820.309 698.414 819.394 698.533 818.494C698.652 817.594 698.987 816.736 699.508 815.993C699.932 815.386 700.473 814.868 701.098 814.471C701.724 814.074 702.422 813.805 703.152 813.679L992.452 763.059C993.181 762.931 993.929 762.949 994.651 763.11C995.374 763.271 996.058 763.573 996.664 763.998C997.27 764.424 997.786 764.964 998.183 765.589C998.58 766.215 998.85 766.912 998.978 767.641C999.233 769.114 998.894 770.629 998.035 771.852C997.176 773.076 995.867 773.909 994.394 774.168L994.394 774.168L705.094 824.789C704.287 824.932 703.458 824.897 702.665 824.685V824.685Z" fill="#3F3D56"/>
<path d="M955.554 685.848L872.859 700.318L921.673 979.566L1004.37 965.096L955.554 685.848Z" fill="#E6E6E6"/>
<path d="M763.263 299.262C747.794 301.981 739.88 330.607 741.702 341.057L745.009 359.976L801.029 350.174L797.722 331.255C795.89 320.806 778.736 296.567 763.263 299.262Z" fill="#3F3D56"/>
<path d="M902.123 1013.64L876.677 1018.09C872.825 1018.86 868.827 1018.35 865.295 1016.63C862.218 1014.97 860.537 1012.37 860.684 1009.48L862.01 983.474C862.259 978.567 867.572 974.107 874.643 972.869L888.696 970.41C895.766 969.173 902.278 971.565 904.176 976.096L914.247 1000.11C915.364 1002.77 914.665 1005.79 912.333 1008.4C909.593 1011.21 906.007 1013.05 902.123 1013.64V1013.64Z" fill="#3F3D56"/>
<path d="M823.298 1029.52L797.851 1033.97C794 1034.74 790.002 1034.23 786.47 1032.51C783.393 1030.85 781.711 1028.25 781.859 1025.37L783.185 999.357C783.434 994.451 788.747 989.99 795.818 988.753L809.871 986.294C816.941 985.057 823.452 987.448 825.351 991.979L835.422 1015.99C836.539 1018.66 835.84 1021.68 833.508 1024.28C830.768 1027.1 827.182 1028.94 823.298 1029.52V1029.52Z" fill="#3F3D56"/>
<path d="M825.863 413.604L743.167 428.073L841.84 992.541L924.535 978.071L825.863 413.604Z" fill="#E6E6E6"/>
<path d="M832.828 692.822L829.442 672.45L834.78 671.532L838.155 691.839L886.491 987.937L881.155 988.871" fill="#3F3D56"/>
<path d="M929.941 702.665L926.556 682.293L931.893 681.374L935.269 701.682L983.605 997.78L978.268 998.714" fill="#3F3D56"/>
<path d="M849.809 463.077L737.76 482.683C734.061 471.111 728.492 415.401 736.808 401.543L737.42 386.366L814.787 372.829L820.96 386.627C833.506 394.485 847.386 449.13 849.809 463.077Z" fill="#E6E6E6"/>
<path d="M817.498 374.212L737.659 388.182C734.712 388.697 732.041 387.502 731.694 385.511C731.644 385.225 731.644 384.931 731.694 384.645L738.525 344.452C738.818 342.731 740.764 341.213 743.231 340.782L796.177 331.517C798.645 331.086 800.99 331.853 801.849 333.372L821.909 368.859C822.935 370.674 821.51 372.929 818.726 373.895C818.326 374.033 817.915 374.139 817.498 374.212V374.212Z" fill="#E6E6E6"/>
<path d="M790.875 696.313C790.106 696.109 789.364 695.814 788.665 695.433C787.671 694.932 786.804 694.211 786.131 693.323C785.459 692.436 784.998 691.407 784.785 690.314L766.417 585.238C765.657 580.889 769.394 576.588 774.748 575.651L846.221 563.144C851.575 562.206 856.549 564.985 857.31 569.334L875.677 674.41C875.847 675.511 875.763 676.635 875.432 677.698C875.1 678.761 874.529 679.734 873.764 680.543C872.075 682.385 869.813 683.603 867.346 683.998L795.874 696.503C794.213 696.804 792.507 696.739 790.875 696.313Z" fill="#3F3D56"/>
<path d="M795.777 712.787L713.081 727.257L761.896 1006.5L844.591 992.035L795.777 712.787Z" fill="#E6E6E6"/>
<path d="M790.18 371.282L765.929 375.525C761.249 376.344 756.498 371.617 755.34 364.99C754.181 358.362 757.047 352.303 761.726 351.484L785.977 347.241C790.657 346.422 795.408 351.149 796.566 357.776C797.725 364.404 794.859 370.463 790.18 371.282Z" fill="#3F3D56"/>
<path d="M743.094 645.664C727.625 648.383 719.712 677.009 721.534 687.459L724.841 706.378L780.86 696.575L777.553 677.657C775.722 667.208 758.568 642.969 743.094 645.664Z" fill="#3F3D56"/>
<path d="M529.981 527.188C524.256 529.123 521.349 520.087 527.129 518.32C532.853 516.385 535.76 525.421 529.981 527.188Z" fill="#E6E6E6"/>
<path d="M1065.23 551.96C1059.51 553.896 1056.6 544.86 1062.38 543.093C1068.11 541.157 1071.01 550.194 1065.23 551.96Z" fill="#E6E6E6"/>
<path d="M697.032 547.681C691.308 549.616 688.401 540.58 694.18 538.813C699.904 536.878 702.811 545.914 697.032 547.681Z" fill="#E6E6E6"/>
<path d="M455.151 806.455C449.427 808.391 446.52 799.355 452.299 797.588C458.023 795.652 460.93 804.689 455.151 806.455Z" fill="#E6E6E6"/>
<path d="M871.788 242.605C866.063 244.541 863.157 235.505 868.936 233.738C874.66 231.802 877.567 240.839 871.788 242.605Z" fill="#E6E6E6"/>
<path d="M593.053 327.015C587.328 328.951 584.421 319.915 590.201 318.148C595.925 316.213 598.832 325.249 593.053 327.015Z" fill="#E6E6E6"/>
<path d="M948.154 376.554L945.246 375.048L946.751 372.138L944.812 371.134L943.306 374.044L940.397 372.54L939.393 374.479L942.302 375.985L940.797 378.895L942.736 379.898L944.242 376.988L947.151 378.494L948.154 376.554Z" fill="#E6E6E6"/>
<path d="M375.932 499.326L373.024 497.82L374.528 494.91L372.589 493.907L371.083 496.816L368.173 495.311L367.169 497.25L370.079 498.757L368.574 501.668L370.513 502.67L372.02 499.761L374.928 501.266L375.932 499.326Z" fill="#E6E6E6"/>
<path d="M974.456 800.539C971.565 801.041 968.593 800.376 966.192 798.69C963.791 797.003 962.157 794.433 961.648 791.542L956.266 760.754C955.764 757.864 956.43 754.893 958.118 752.493C959.805 750.094 962.375 748.462 965.264 747.956C968.154 747.451 971.125 748.113 973.526 749.797C975.927 751.481 977.562 754.05 978.07 756.939L983.452 787.727C983.954 790.619 983.289 793.591 981.603 795.993C979.916 798.395 977.346 800.03 974.456 800.539V800.539Z" fill="#3F3D56"/>
<path d="M731.168 843.212C728.277 843.715 725.305 843.05 722.904 841.363C720.502 839.676 718.868 837.106 718.36 834.216L712.978 803.428C712.476 800.538 713.142 797.566 714.829 795.167C716.516 792.767 719.087 791.135 721.976 790.63C724.865 790.124 727.837 790.786 730.238 792.47C732.639 794.155 734.273 796.724 734.782 799.613L740.164 830.401C740.666 833.292 740.001 836.265 738.314 838.667C736.628 841.068 734.058 842.703 731.168 843.212Z" fill="#3F3D56"/>
<path d="M970.893 735.467L874.995 752.247C871.83 742.344 867.063 694.663 874.18 682.803L879.834 668.916L937.449 657.573L946.202 670.037C963.54 668.921 976.35 714.584 970.893 735.467Z" fill="#E6E6E6"/>
<path d="M932.037 722.111L907.786 726.354C903.107 727.173 898.052 720.708 896.52 711.946C894.989 703.183 897.55 695.386 902.23 694.568L926.481 690.324C931.16 689.505 936.215 695.97 937.747 704.732C939.279 713.495 936.717 721.292 932.037 722.111Z" fill="#3F3D56"/>
<path d="M735.326 724.673L731.94 704.301L737.278 703.382L740.654 723.69L788.989 1019.79L783.653 1020.72" fill="#3F3D56"/>
<path d="M812.729 762.123L716.832 778.903C705.992 769.035 698.156 721.369 716.017 709.459L721.671 695.572L779.285 684.229L788.039 696.694C798.776 703.419 810.656 750.187 812.729 762.123Z" fill="#E6E6E6"/>
<path d="M773.131 744.518L748.88 748.762C744.2 749.581 739.312 744.069 737.985 736.478C736.658 728.887 739.386 722.043 744.066 721.224L768.317 716.981C772.997 716.162 777.885 721.673 779.212 729.264C780.539 736.856 777.81 743.7 773.131 744.518Z" fill="#3F3D56"/>
<path d="M390.156 444.982C461.7 464.152 535.241 421.682 554.416 350.122C573.59 278.563 531.136 205.012 459.592 185.842C388.048 166.671 314.506 209.141 295.332 280.701C276.157 352.26 318.611 425.811 390.156 444.982Z" fill="#DA37A7"/>
<path opacity="0.3" d="M919.854 592.683L1060.2 383.81L912.871 587.862C912.299 588.287 911.837 588.842 911.522 589.481C911.207 590.12 911.05 590.825 911.062 591.538C911.074 592.25 911.256 592.949 911.592 593.577C911.929 594.205 912.41 594.744 912.996 595.149C913.582 595.554 914.257 595.813 914.963 595.905C915.669 595.997 916.388 595.919 917.058 595.678C917.729 595.437 918.332 595.04 918.818 594.519C919.304 593.998 919.659 593.369 919.854 592.683L919.854 592.683Z" fill="#F0F0F0"/>
<path d="M1157.25 509.377C1140.47 510.37 1122.04 510.825 1101.95 510.74C998.083 510.293 862.692 495.376 720.72 468.74C578.75 442.103 447.16 406.926 350.192 369.692C302.956 351.553 266.483 333.896 241.785 317.21C215.637 299.545 203.708 283.504 206.329 269.535C211.437 242.32 270.339 232.946 318.853 229.874L319.1 233.773C252.478 237.991 213.792 250.948 210.169 270.255C205.554 294.846 257.101 329.759 351.593 366.044C448.347 403.196 579.695 438.305 721.441 464.9C863.187 491.494 998.33 506.387 1101.97 506.833C1203.19 507.271 1263.89 493.417 1268.5 468.825C1272.33 448.408 1237.49 420.727 1170.39 390.88L1171.98 387.311C1220.73 408.998 1277.72 440.869 1272.34 469.546C1269.72 483.515 1252.79 494.14 1222.01 501.125C1204.47 505.107 1182.8 507.865 1157.25 509.377Z" fill="#3F3D56"/>
<path d="M1133.74 749.382C1141.17 751.374 1148.82 746.961 1150.81 739.526C1152.8 732.09 1148.39 724.448 1140.96 722.456C1133.52 720.464 1125.88 724.877 1123.89 732.312C1121.9 739.748 1126.31 747.39 1133.74 749.382Z" fill="#FF6584"/>
<path d="M1121.51 1137.11C1128.95 1139.1 1136.59 1134.69 1138.58 1127.25C1140.57 1119.81 1136.16 1112.17 1128.73 1110.18C1121.29 1108.19 1113.65 1112.6 1111.66 1120.04C1109.67 1127.47 1114.08 1135.11 1121.51 1137.11Z" fill="#F2F2F2"/>
<path d="M640.492 1096.08C654.986 1099.96 669.884 1091.36 673.769 1076.86C677.653 1062.36 669.053 1047.46 654.559 1043.58C640.065 1039.7 625.167 1048.3 621.282 1062.8C617.398 1077.29 625.998 1092.19 640.492 1096.08Z" fill="#FC5629"/>
<path d="M533.606 695.091C541.04 697.082 548.681 692.67 550.673 685.234C552.666 677.799 548.254 670.156 540.821 668.164C533.387 666.172 525.745 670.585 523.753 678.021C521.761 685.456 526.172 693.099 533.606 695.091Z" fill="#3F3D56"/>
<path d="M981.428 833.865L1035.47 864.462L1052.34 943.984L991.492 930.211L981.428 833.865Z" fill="#E6E6E6"/>
<path d="M874.414 697.066L897.806 737.618L931.946 934.925L913.539 943.836L874.414 697.066Z" fill="#CCCCCC"/>
<path d="M797.145 707.44L787.554 753.268L816.592 951.39L836.858 954.116L797.145 707.44Z" fill="#CCCCCC"/>
<path d="M746.174 889.301L701.177 932.121L704.122 1013.36L759.806 985.208L746.174 889.301Z" fill="#E6E6E6"/>
<path d="M1014.04 994.795C997.797 990.443 980.162 985.06 961.132 978.645C862.707 945.456 738.933 888.592 612.611 818.53C486.29 748.469 372.512 673.577 292.238 607.655C253.134 575.541 224.09 547.279 205.915 523.653C186.672 498.641 180.411 479.655 187.303 467.225C200.731 443.01 259.582 452.694 306.587 465.082L305.591 468.86C241.041 451.848 200.246 451.941 190.72 469.12C178.586 491.001 216.492 540.394 294.717 604.635C374.815 670.412 488.384 745.163 614.506 815.114C740.628 885.064 864.172 941.826 962.381 974.943C1058.29 1007.29 1120.26 1013.29 1132.39 991.404C1142.47 973.237 1118.13 935.977 1063.87 886.486L1066.5 883.6C1105.93 919.56 1149.96 967.782 1135.81 993.299C1128.92 1005.73 1109.5 1010.47 1078.09 1007.39C1060.19 1005.64 1038.76 1001.42 1014.04 994.795Z" fill="#3F3D56"/>
</g>
<defs>
<linearGradient id="paint0_linear" x1="933.158" y1="175.418" x2="694.651" y2="1065.54" gradientUnits="userSpaceOnUse">
<stop stop-color="#6348B3"/>
<stop offset="1" stop-color="#DA37A7"/>
</linearGradient>
<clipPath id="clip0">
<rect width="1175" height="1076" fill="white" transform="translate(278.489) rotate(15)"/>
</clipPath>
</defs>
</svg>
