<svg width="72" height="72" viewBox="0 0 72 72" fill="none" xmlns="http://www.w3.org/2000/svg">
<path d="M29.6708 6.9765C31.2817 0.341165 40.7183 0.341168 42.3292 6.9765C43.3698 11.2628 48.2806 13.297 52.0473 11.0019C57.8782 7.44903 64.551 14.1218 60.9981 19.9527C58.703 23.7194 60.7372 28.6302 65.0235 29.6708C71.6588 31.2817 71.6588 40.7183 65.0235 42.3292C60.7372 43.3698 58.703 48.2806 60.9981 52.0473C64.551 57.8782 57.8782 64.551 52.0473 60.9981C48.2806 58.703 43.3698 60.7372 42.3292 65.0235C40.7183 71.6588 31.2817 71.6588 29.6708 65.0235C28.6302 60.7372 23.7194 58.703 19.9527 60.9981C14.1218 64.551 7.44903 57.8782 11.0019 52.0473C13.297 48.2806 11.2628 43.3698 6.9765 42.3292C0.341168 40.7183 0.341165 31.2817 6.9765 29.6708C11.2628 28.6302 13.297 23.7194 11.0019 19.9527C7.44903 14.1218 14.1218 7.44903 19.9527 11.0019C23.7194 13.297 28.6302 11.2628 29.6708 6.9765Z" stroke="#EF5F87" stroke-width="3" stroke-linecap="round" stroke-linejoin="round"/>
<path d="M47.3333 36C47.3333 42.2592 42.2592 47.3333 36 47.3333C29.7408 47.3333 24.6667 42.2592 24.6667 36C24.6667 29.7408 29.7408 24.6667 36 24.6667C42.2592 24.6667 47.3333 29.7408 47.3333 36Z" stroke="#EF5F87" stroke-width="3" stroke-linecap="round" stroke-linejoin="round"/>
</svg>
