<svg width="72" height="72" viewBox="0 0 72 72" fill="none" xmlns="http://www.w3.org/2000/svg">
<path d="M44.6842 25.6497C45.2271 26.2754 46.1745 26.3426 46.8002 25.7996C47.4259 25.2567 47.493 24.3093 46.9501 23.6836L44.6842 25.6497ZM27.3159 46.3503C26.773 45.7246 25.8256 45.6574 25.1999 46.2004C24.5742 46.7433 24.5071 47.6907 25.05 48.3164L27.3159 46.3503ZM37.5 17.1111C37.5 16.2827 36.8284 15.6111 36 15.6111C35.1716 15.6111 34.5 16.2827 34.5 17.1111H37.5ZM34.5 54.8889C34.5 55.7173 35.1715 56.3889 36 56.3889C36.8284 56.3889 37.5 55.7173 37.5 54.8889L34.5 54.8889ZM68.5 36C68.5 53.9493 53.9493 68.5 36 68.5V71.5C55.6061 71.5 71.5 55.6061 71.5 36H68.5ZM36 68.5C18.0507 68.5 3.5 53.9493 3.5 36H0.5C0.5 55.6061 16.3939 71.5 36 71.5V68.5ZM3.5 36C3.5 18.0507 18.0507 3.5 36 3.5V0.5C16.3939 0.5 0.5 16.3939 0.5 36H3.5ZM36 3.5C53.9493 3.5 68.5 18.0507 68.5 36H71.5C71.5 16.3939 55.6061 0.5 36 0.5V3.5ZM36 34.5C33.1252 34.5 30.5904 33.7205 28.8182 32.539C27.0354 31.3504 26.1667 29.8733 26.1667 28.4444H23.1667C23.1667 31.1884 24.835 33.489 27.1541 35.0351C29.4837 36.5882 32.6156 37.5 36 37.5V34.5ZM26.1667 28.4444C26.1667 27.0156 27.0354 25.5384 28.8182 24.3499C30.5904 23.1684 33.1252 22.3889 36 22.3889V19.3889C32.6156 19.3889 29.4837 20.3007 27.1541 21.8538C24.835 23.3999 23.1667 25.7005 23.1667 28.4444H26.1667ZM36 22.3889C39.885 22.3889 43.0822 23.8035 44.6842 25.6497L46.9501 23.6836C44.6329 21.0131 40.5049 19.3889 36 19.3889V22.3889ZM36 37.5C38.8748 37.5 41.4096 38.2795 43.1819 39.461C44.9646 40.6496 45.8334 42.1267 45.8334 43.5556H48.8334C48.8334 40.8116 47.1651 38.511 44.846 36.9649C42.5164 35.4118 39.3844 34.5 36 34.5V37.5ZM34.5 17.1111V20.8889H37.5V17.1111H34.5ZM34.5001 51.1111L34.5 54.8889L37.5 54.8889L37.5001 51.1111L34.5001 51.1111ZM36.0001 49.6111C32.1151 49.6111 28.9179 48.1965 27.3159 46.3503L25.05 48.3164C27.3671 50.9869 31.4952 52.6111 36.0001 52.6111L36.0001 49.6111ZM45.8334 43.5556C45.8334 44.9844 44.9647 46.4616 43.1819 47.6501C41.4096 48.8316 38.8749 49.6111 36.0001 49.6111V52.6111C39.3845 52.6111 42.5164 51.6993 44.846 50.1462C47.1651 48.6001 48.8334 46.2995 48.8334 43.5556H45.8334ZM34.5 20.8889L34.5001 51.1111L37.5001 51.1111L37.5 20.8889L34.5 20.8889Z" fill="#00AB5F"/>
</svg>
