<svg width="523" height="367" viewBox="0 0 523 367" fill="none" xmlns="http://www.w3.org/2000/svg">
<g clip-path="url(#clip0)">
<path d="M303.468 358.857C299.582 361.644 295.369 363.944 290.924 365.706C289.76 366.172 288.589 366.605 287.399 367H226.635C226.39 366.573 226.15 366.139 225.904 365.706C220.975 356.877 216.505 347.705 215.237 337.731C213.717 325.756 217.98 312.196 228.518 306.312C229.898 305.542 231.361 304.93 232.878 304.487C233.505 304.293 234.146 304.138 234.793 304.002C238.743 303.124 242.855 303.316 246.707 304.556C250.559 305.796 254.011 308.04 256.708 311.058C259.406 314.075 261.252 317.757 262.056 321.725C262.86 325.693 262.593 329.803 261.283 333.634C270.217 324.468 268.548 309.607 265.469 297.186C262.383 284.765 258.644 270.939 264.925 259.78C268.412 253.573 274.551 249.722 281.434 248.168C281.648 248.123 281.861 248.078 282.068 248.039C290.275 246.376 298.806 247.871 305.958 252.227C319.129 260.525 325.889 276.273 328.082 291.691C331.621 316.507 323.793 344.197 303.468 358.857Z" fill="#F2F2F2"/>
<path d="M239.56 311.911C244.425 321.793 245.976 332.981 243.985 343.815C242.483 351.759 239.171 359.249 234.307 365.705C233.978 366.146 233.641 366.579 233.298 367H230.898C231.267 366.579 231.629 366.146 231.972 365.705C236.39 360.199 239.592 353.82 241.369 346.987C243.147 340.154 243.458 333.022 242.284 326.06C240.89 318.228 237.667 310.836 232.878 304.487C233.505 304.293 234.146 304.137 234.793 304.001C236.614 306.491 238.21 309.138 239.56 311.911V311.911Z" fill="white"/>
<path d="M297.691 319.076C297.171 324.55 295.857 329.918 293.79 335.012C291.884 339.52 289.316 343.718 286.169 347.466C279.746 355.2 271.246 361.019 262.014 364.89C261.341 365.175 260.662 365.447 259.977 365.706C258.786 366.172 257.583 366.599 256.373 367H249.82C251.366 366.612 252.906 366.178 254.426 365.706C258.041 364.58 261.567 363.189 264.977 361.544C273.644 357.433 281.17 351.257 286.894 343.556C293.033 335.077 295.744 324.882 296.209 314.52C296.701 303.432 295.259 292.144 292.729 281.354C290.148 270.294 286.222 259.593 281.04 249.489C280.924 249.26 280.9 248.996 280.973 248.75C281.047 248.504 281.212 248.296 281.434 248.168C281.621 248.045 281.848 247.998 282.068 248.039C282.176 248.067 282.276 248.118 282.361 248.19C282.446 248.262 282.514 248.352 282.56 248.453C283.2 249.702 283.828 250.952 284.429 252.214C289.453 262.737 293.153 273.842 295.446 285.276C297.665 296.306 298.855 307.846 297.691 319.076Z" fill="white"/>
<path d="M27.4743 183.176C22.1006 183.176 16.8476 181.582 12.3795 178.595C7.91148 175.608 4.42905 171.362 2.37263 166.394C0.31621 161.427 -0.221836 155.961 0.826519 150.688C1.87487 145.414 4.46255 140.57 8.26232 136.768C12.0621 132.966 16.9033 130.377 22.1737 129.328C27.4442 128.279 32.9071 128.818 37.8718 130.875C42.8364 132.933 47.0797 136.417 50.0652 140.888C53.0507 145.358 54.6441 150.614 54.6441 155.991C54.636 163.199 51.7708 170.108 46.6773 175.205C41.5837 180.301 34.6777 183.168 27.4743 183.176V183.176ZM27.4743 130.1C22.3565 130.1 17.3536 131.619 13.0983 134.464C8.84305 137.309 5.52645 141.352 3.56795 146.083C1.60945 150.814 1.09702 156.02 2.09546 161.042C3.09389 166.064 5.55835 170.678 9.17718 174.299C12.796 177.919 17.4067 180.385 22.4261 181.384C27.4456 182.383 32.6484 181.871 37.3766 179.911C42.1049 177.951 46.1462 174.633 48.9894 170.375C51.8327 166.117 53.3503 161.112 53.3503 155.991C53.3426 149.127 50.6139 142.546 45.7629 137.692C40.9118 132.838 34.3347 130.108 27.4743 130.1V130.1Z" fill="#DA37A7"/>
<path d="M137.447 95.7954C132.073 95.7954 126.82 94.201 122.352 91.2139C117.884 88.2268 114.402 83.981 112.345 79.0136C110.289 74.0461 109.751 68.5801 110.799 63.3067C111.848 58.0333 114.435 53.1893 118.235 49.3874C122.035 45.5855 126.876 42.9964 132.146 41.9474C137.417 40.8985 142.88 41.4368 147.844 43.4944C152.809 45.552 157.052 49.0364 160.038 53.507C163.023 57.9775 164.617 63.2335 164.617 68.6102C164.609 75.8177 161.744 82.7276 156.65 87.824C151.556 92.9205 144.65 95.7873 137.447 95.7954ZM137.447 42.7196C132.329 42.7196 127.326 44.238 123.071 47.0829C118.816 49.9279 115.499 53.9714 113.541 58.7023C111.582 63.4332 111.07 68.639 112.068 73.6613C113.067 78.6836 115.531 83.2968 119.15 86.9177C122.769 90.5386 127.379 93.0044 132.399 94.0034C137.418 95.0024 142.621 94.4897 147.349 92.5301C152.078 90.5705 156.119 87.252 158.962 82.9943C161.805 78.7366 163.323 73.7309 163.323 68.6102C163.315 61.746 160.587 55.1651 155.736 50.3114C150.885 45.4576 144.307 42.7273 137.447 42.7196V42.7196Z" fill="#DA37A7"/>
<path d="M255.183 54.3704C249.809 54.3704 244.556 52.776 240.088 49.7889C235.62 46.8017 232.138 42.556 230.081 37.5885C228.025 32.6211 227.487 27.155 228.535 21.8816C229.584 16.6082 232.171 11.7643 235.971 7.96236C239.771 4.16045 244.612 1.57131 249.882 0.522367C255.153 -0.526579 260.616 0.0117807 265.581 2.06936C270.545 4.12695 274.788 7.61133 277.774 12.0819C280.759 16.5525 282.353 21.8085 282.353 27.1852C282.345 34.3926 279.48 41.3026 274.386 46.399C269.292 51.4955 262.386 54.3622 255.183 54.3704ZM255.183 1.29454C250.065 1.29454 245.062 2.813 240.807 5.6579C236.552 8.5028 233.235 12.5464 231.277 17.2773C229.318 22.0082 228.806 27.2139 229.804 32.2362C230.803 37.2585 233.267 41.8718 236.886 45.4927C240.505 49.1135 245.115 51.5794 250.135 52.5784C255.154 53.5774 260.357 53.0646 265.085 51.105C269.814 49.1454 273.855 45.827 276.698 41.5693C279.542 37.3116 281.059 32.3059 281.059 27.1852C281.051 20.3209 278.323 13.7401 273.472 8.88629C268.621 4.03253 262.043 1.30229 255.183 1.29454V1.29454Z" fill="#DA37A7"/>
<path d="M380.682 97.0899C375.308 97.0899 370.055 95.4955 365.587 92.5083C361.119 89.5212 357.637 85.2754 355.58 80.308C353.524 75.3405 352.986 69.8745 354.034 64.6011C355.082 59.3277 357.67 54.4838 361.47 50.6818C365.27 46.8799 370.111 44.2908 375.381 43.2418C380.652 42.1929 386.115 42.7313 391.079 44.7888C396.044 46.8464 400.287 50.3308 403.273 54.8014C406.258 59.272 407.852 64.528 407.852 69.9047C407.844 77.1121 404.978 84.022 399.885 89.1185C394.791 94.2149 387.885 97.0817 380.682 97.0899V97.0899ZM380.682 44.014C375.564 44.014 370.561 45.5325 366.306 48.3774C362.051 51.2223 358.734 55.2659 356.775 59.9967C354.817 64.7276 354.305 69.9334 355.303 74.9557C356.301 79.978 358.766 84.5913 362.385 88.2121C366.004 91.833 370.614 94.2989 375.634 95.2979C380.653 96.2968 385.856 95.7841 390.584 93.8245C395.312 91.8649 399.354 88.5465 402.197 84.2888C405.04 80.0311 406.558 75.0254 406.558 69.9047C406.55 63.0404 403.821 56.4595 398.97 51.6058C394.119 46.752 387.542 44.0218 380.682 44.014V44.014Z" fill="#DA37A7"/>
<path d="M495.83 162.464C490.456 162.464 485.203 160.87 480.735 157.882C476.267 154.895 472.785 150.649 470.728 145.682C468.672 140.715 468.134 135.249 469.182 129.975C470.231 124.702 472.818 119.858 476.618 116.056C480.418 112.254 485.259 109.665 490.529 108.616C495.8 107.567 501.263 108.105 506.227 110.163C511.192 112.22 515.435 115.705 518.421 120.175C521.406 124.646 523 129.902 523 135.279C522.992 142.486 520.127 149.396 515.033 154.493C509.939 159.589 503.033 162.456 495.83 162.464V162.464ZM495.83 109.388C490.712 109.388 485.709 110.907 481.454 113.751C477.199 116.596 473.882 120.64 471.924 125.371C469.965 130.102 469.453 135.307 470.451 140.33C471.45 145.352 473.914 149.965 477.533 153.586C481.152 157.207 485.762 159.673 490.782 160.672C495.801 161.671 501.004 161.158 505.732 159.199C510.461 157.239 514.502 153.92 517.345 149.663C520.188 145.405 521.706 140.399 521.706 135.279C521.698 128.414 518.97 121.834 514.119 116.98C509.268 112.126 502.69 109.396 495.83 109.388V109.388Z" fill="#DA37A7"/>
<path d="M152.973 61.1651L156.207 60.5179C156.207 60.5179 153.49 63.56 152.973 63.7542C152.924 64.4006 152.924 65.0496 152.973 65.696C146.762 92.3634 123.862 80.5831 123.862 80.5831C132.207 80.7773 132.919 77.3468 132.919 77.3468C128.067 76.6348 127.097 73.4632 127.097 73.4632C127.532 73.693 128.037 73.754 128.514 73.6345C128.991 73.5151 129.408 73.2236 129.684 72.8159C124.444 71.4567 125.156 66.3433 125.156 66.3433C126.09 67.018 127.181 67.4414 128.326 67.5731C127.743 66.8611 122.827 60.971 125.803 57.9288C125.803 57.9288 129.425 64.4015 138.935 64.984L139.582 64.8546C139.472 64.3884 139.428 63.909 139.452 63.4306C139.452 61.6281 140.168 59.8994 141.442 58.6249C142.716 57.3503 144.443 56.6343 146.245 56.6343C150.773 56.6343 151.744 59.2233 151.744 59.2233L154.978 57.2815C154.913 57.2815 154.59 60.5179 152.973 61.1651Z" fill="#DA37A7"/>
<path d="M359.547 349.286L366.669 352.779L383.522 326.958L373.011 321.803L359.547 349.286Z" fill="#FFB8B8"/>
<path d="M358.871 346.069L372.895 352.948L372.895 352.948C374.069 353.523 375.118 354.325 375.982 355.306C376.846 356.287 377.509 357.429 377.932 358.667C378.355 359.904 378.53 361.213 378.448 362.518C378.365 363.823 378.027 365.1 377.451 366.274L377.309 366.565L354.347 355.302L358.871 346.069Z" fill="#2F2E41"/>
<path d="M430.12 361.461L438.051 361.461L441.824 330.854H430.119L430.12 361.461Z" fill="#FFB8B8"/>
<path d="M428.097 356.282L443.716 356.281H443.716C445.023 356.281 446.318 356.539 447.525 357.039C448.733 357.539 449.83 358.273 450.754 359.198C451.679 360.123 452.412 361.221 452.912 362.429C453.412 363.637 453.67 364.932 453.67 366.24V366.564L428.097 366.565L428.097 356.282Z" fill="#2F2E41"/>
<path d="M413.084 150.224C421.859 150.224 428.973 143.106 428.973 134.326C428.973 125.546 421.859 118.428 413.084 118.428C404.309 118.428 397.196 125.546 397.196 134.326C397.196 143.106 404.309 150.224 413.084 150.224Z" fill="#FFB8B8"/>
<path d="M428.906 351.366C428.157 351.365 427.436 351.075 426.895 350.556C426.354 350.037 426.034 349.329 426.001 348.58L419.86 266.791C419.853 266.576 419.775 266.37 419.639 266.205C419.502 266.04 419.315 265.924 419.106 265.876C418.897 265.828 418.678 265.851 418.484 265.941C418.289 266.03 418.13 266.182 418.03 266.372L378.743 341.417C378.386 342.091 377.781 342.598 377.057 342.832C376.332 343.066 375.545 343.009 374.862 342.671L363.91 337.192C363.223 336.846 362.7 336.243 362.455 335.514C362.21 334.785 362.263 333.988 362.602 333.298L386.045 285.768L401.572 250.165C407.565 238.353 413.93 232.266 421.029 231.556C428.311 230.828 436.089 235.838 444.81 246.875L444.881 246.965L444.879 247.079L443.586 346.99C443.588 347.715 443.318 348.415 442.829 348.952C442.34 349.488 441.669 349.821 440.946 349.886L429.191 351.352C429.096 351.361 429.001 351.366 428.906 351.366Z" fill="#2F2E41"/>
<path d="M396.315 255.915C397.18 255.381 397.917 254.664 398.475 253.814C399.032 252.965 399.397 252.003 399.543 250.997C399.689 249.991 399.613 248.965 399.32 247.992C399.027 247.019 398.524 246.121 397.847 245.363L400.243 182.025L388.599 183.477L387.617 245.096C386.42 246.319 385.713 247.938 385.629 249.647C385.545 251.357 386.091 253.037 387.163 254.371C388.236 255.705 389.759 256.598 391.446 256.883C393.133 257.167 394.865 256.823 396.315 255.915V255.915Z" fill="#FFB8B8"/>
<path d="M403.681 193.223L388.044 191.445C387.599 191.395 387.17 191.249 386.787 191.017C386.403 190.786 386.074 190.475 385.822 190.105C385.569 189.735 385.4 189.314 385.324 188.873C385.249 188.431 385.269 187.978 385.385 187.545L389.422 172.375C389.693 170.099 390.856 168.024 392.655 166.604C394.453 165.184 396.741 164.536 399.017 164.802C401.292 165.067 403.37 166.225 404.794 168.02C406.218 169.816 406.872 172.103 406.613 174.381L407.147 190.02C407.162 190.468 407.081 190.913 406.908 191.327C406.736 191.74 406.476 192.112 406.147 192.416C405.818 192.72 405.428 192.949 405.002 193.088C404.576 193.228 404.126 193.274 403.681 193.223V193.223Z" fill="#DA37A7"/>
<path d="M471.04 153.352C470.961 153.701 470.909 154.056 470.886 154.413L443.096 170.454L436.342 166.563L429.141 175.995L440.43 184.046C441.342 184.696 442.44 185.033 443.559 185.005C444.679 184.978 445.76 184.588 446.639 183.894L475.294 161.275C476.587 161.754 477.996 161.828 479.332 161.486C480.668 161.145 481.869 160.404 482.774 159.364C483.679 158.323 484.246 157.031 484.4 155.66C484.554 154.289 484.286 152.903 483.634 151.688C482.981 150.472 481.974 149.484 480.747 148.856C479.519 148.227 478.13 147.987 476.763 148.167C475.396 148.348 474.116 148.94 473.094 149.867C472.072 150.793 471.355 152.008 471.04 153.352V153.352Z" fill="#FFB8B8"/>
<path d="M442.167 171.213L433.186 182.86C432.93 183.192 432.607 183.464 432.236 183.659C431.866 183.854 431.458 183.966 431.04 183.989C430.623 184.012 430.205 183.945 429.816 183.792C429.426 183.638 429.075 183.403 428.785 183.102L418.617 172.537C416.928 171.22 415.831 169.286 415.566 167.16C415.301 165.035 415.889 162.89 417.202 161.198C418.515 159.506 420.445 158.404 422.569 158.134C424.693 157.864 426.838 158.448 428.532 159.758L441.284 166.892C441.649 167.097 441.966 167.377 442.213 167.715C442.46 168.053 442.631 168.44 442.715 168.85C442.799 169.261 442.793 169.684 442.699 170.092C442.604 170.499 442.423 170.882 442.167 171.213H442.167Z" fill="#DA37A7"/>
<path d="M449.494 251.828L432.252 167.794C431.432 163.799 429.097 160.279 425.737 157.971C422.378 155.664 418.255 154.749 414.235 155.419L408.485 156.378C406.487 156.711 404.575 157.435 402.857 158.507C401.138 159.58 399.648 160.981 398.471 162.63V162.63C396.601 165.249 395.341 168.255 394.784 171.426C394.228 174.597 394.388 177.853 395.254 180.954L404.772 215.035L397.708 251.549C397.629 251.954 397.648 252.372 397.764 252.768C397.879 253.164 398.088 253.527 398.372 253.826C398.656 254.125 399.007 254.352 399.397 254.487C399.786 254.623 400.203 254.663 400.611 254.604C404.147 254.098 409.976 253.376 416.67 252.982L420.297 238.984L421.772 252.76C429.996 252.529 438.923 252.933 446.287 254.847C446.714 254.961 447.162 254.964 447.589 254.856C448.017 254.748 448.41 254.533 448.731 254.23C449.052 253.928 449.291 253.549 449.424 253.128C449.558 252.708 449.582 252.26 449.494 251.828Z" fill="#DA37A7"/>
<path d="M419.198 130.789C423.282 133.586 428.644 136.46 432.815 133.482C435.553 131.527 436.416 127.906 435.306 124.728C433.308 119.014 427.821 116.498 422.574 114.569C415.753 112.063 408.326 110.068 401.284 111.864C394.242 113.659 388.019 120.481 389.29 127.639C390.312 133.396 395.74 138.186 394.969 143.983C394.194 149.816 387.637 152.886 381.849 153.929C376.061 154.971 369.584 155.306 365.424 159.466C360.117 164.773 361.442 174.258 366.436 179.861C371.429 185.464 378.964 188.004 386.266 189.731C395.94 192.018 406.403 193.22 415.591 189.424C424.779 185.627 431.929 175.408 429.267 165.825C428.143 161.777 425.495 158.356 422.935 155.025C420.376 151.695 417.784 148.212 416.807 144.126C415.994 140.721 416.596 136.768 418.853 134.213C419.263 133.766 419.522 133.201 419.591 132.597C419.66 131.994 419.536 131.385 419.237 130.856L419.198 130.789Z" fill="#2F2E41"/>
<path d="M262.583 13.7366C264.393 13.742 266.127 14.4638 267.407 15.7443C268.686 17.0248 269.408 18.7599 269.413 20.5708V34.2377C269.408 36.0486 268.686 37.7837 267.407 39.0642C266.127 40.3447 264.393 41.0664 262.583 41.0718H248.924C247.114 41.0664 245.38 40.3447 244.1 39.0642C242.82 37.7837 242.099 36.0486 242.093 34.2377V20.5708C242.099 18.7599 242.82 17.0248 244.1 15.7443C245.38 14.4638 247.114 13.742 248.924 13.7366H262.583V13.7366ZM262.583 11.0034H248.924C246.39 11.0108 243.962 12.0212 242.171 13.8138C240.379 15.6064 239.369 18.0356 239.362 20.5708V34.2377C239.369 36.7728 240.379 39.2021 242.171 40.9947C243.962 42.7873 246.39 43.7977 248.924 43.8051H262.583C265.117 43.7977 267.544 42.7873 269.336 40.9947C271.128 39.2021 272.138 36.7728 272.145 34.2377V20.5708C272.138 18.0356 271.128 15.6064 269.336 13.8138C267.544 12.0212 265.117 11.0108 262.583 11.0034V11.0034Z" fill="#DA37A7"/>
<path d="M264.632 20.5709C264.09 20.5697 263.571 20.3534 263.188 19.9694C262.806 19.5854 262.591 19.0652 262.592 18.523C262.592 17.9808 262.808 17.461 263.191 17.0779C263.575 16.6947 264.094 16.4795 264.636 16.4795C265.178 16.4795 265.698 16.6947 266.081 17.0779C266.465 17.461 266.68 17.9808 266.681 18.523C266.682 19.0652 266.467 19.5854 266.084 19.9694C265.702 20.3534 265.183 20.5697 264.641 20.5709C264.638 20.5709 264.635 20.5709 264.632 20.5709Z" fill="#DA37A7"/>
<path d="M255.753 21.9371C256.834 21.9371 257.891 22.2577 258.789 22.8585C259.688 23.4592 260.388 24.3131 260.802 25.3121C261.215 26.3111 261.323 27.4103 261.113 28.4709C260.902 29.5314 260.381 30.5055 259.617 31.2701C258.853 32.0347 257.879 32.5554 256.819 32.7664C255.759 32.9773 254.661 32.8691 253.662 32.4553C252.664 32.0415 251.811 31.3407 251.21 30.4417C250.61 29.5426 250.289 28.4856 250.289 27.4043C250.289 25.9543 250.865 24.5637 251.89 23.5384C252.914 22.5131 254.304 21.9371 255.753 21.9371V21.9371ZM255.753 19.2039C254.132 19.2039 252.548 19.6848 251.2 20.5859C249.852 21.4869 248.802 22.7677 248.181 24.2661C247.561 25.7645 247.399 27.4133 247.715 29.0041C248.031 30.5948 248.812 32.056 249.958 33.2028C251.104 34.3497 252.565 35.1307 254.154 35.4471C255.744 35.7635 257.392 35.6011 258.89 34.9805C260.387 34.3598 261.667 33.3087 262.568 31.9602C263.468 30.6116 263.949 29.0262 263.949 27.4043C263.949 25.2294 263.086 23.1436 261.549 21.6057C260.012 20.0678 257.927 19.2039 255.753 19.2039V19.2039Z" fill="#DA37A7"/>
<path d="M105.553 358.412L97.834 356.591L101.175 325.934L112.568 328.62L105.553 358.412Z" fill="#FFB8B8"/>
<path d="M105.759 366.363L80.8684 360.495L80.9426 360.18C81.2423 358.907 81.7896 357.706 82.5534 356.644C83.3171 355.583 84.2824 354.683 85.3939 353.994C86.5055 353.306 87.7416 352.844 89.0318 352.634C90.3219 352.424 91.6408 352.47 92.9131 352.77L92.9137 352.77L108.116 356.354L105.759 366.363Z" fill="#2F2E41"/>
<path d="M135.636 358.67H127.705L123.932 328.062L135.637 328.063L135.636 358.67Z" fill="#FFB8B8"/>
<path d="M137.658 366.363L112.086 366.362V366.038C112.086 364.73 112.343 363.435 112.844 362.227C113.344 361.019 114.077 359.921 115.001 358.996C115.925 358.071 117.023 357.338 118.23 356.837C119.438 356.337 120.732 356.079 122.039 356.079H122.04L137.659 356.08L137.658 366.363Z" fill="#2F2E41"/>
<path d="M178.47 237.622C179.001 236.755 179.336 235.783 179.451 234.773C179.566 233.763 179.458 232.74 179.135 231.776C178.812 230.812 178.282 229.931 177.582 229.194C176.882 228.457 176.029 227.883 175.083 227.512L151.863 168.596L138.944 176.443L165.831 231.888C165.313 233.519 165.411 235.284 166.107 236.847C166.803 238.411 168.047 239.665 169.605 240.372C171.163 241.078 172.926 241.189 174.56 240.682C176.193 240.175 177.585 239.086 178.47 237.622V237.622Z" fill="#FFB8B8"/>
<path d="M156.798 178.339L142.039 183.806C141.619 183.961 141.171 184.025 140.724 183.991C140.278 183.957 139.844 183.828 139.451 183.611C139.059 183.395 138.719 183.096 138.452 182.736C138.186 182.376 138 181.963 137.908 181.524L134.677 166.162C133.894 164.008 133.996 161.631 134.962 159.552C135.928 157.474 137.678 155.863 139.829 155.074C141.98 154.284 144.356 154.381 146.436 155.341C148.516 156.302 150.13 158.048 150.925 160.198L158.449 173.917C158.664 174.309 158.792 174.744 158.824 175.191C158.856 175.638 158.792 176.086 158.635 176.506C158.479 176.926 158.234 177.307 157.917 177.623C157.599 177.94 157.218 178.184 156.798 178.339V178.339Z" fill="#DA37A7"/>
<path d="M135.109 347.683C135.07 347.683 135.031 347.682 134.992 347.681L123.751 347.231C122.991 347.204 122.272 346.88 121.749 346.328C121.226 345.776 120.942 345.04 120.956 344.28L121.819 282.142C121.822 281.892 121.73 281.651 121.56 281.468C121.39 281.284 121.155 281.174 120.906 281.159C120.657 281.144 120.411 281.226 120.221 281.388C120.03 281.55 119.909 281.779 119.883 282.027L113.362 344.233C113.294 344.866 113.022 345.46 112.585 345.924C112.149 346.388 111.573 346.696 110.946 346.803L110.907 346.809L100.353 345.979C99.9373 346.042 99.5125 346.015 99.1082 345.898C98.7039 345.782 98.3297 345.579 98.0114 345.303C97.693 345.028 97.4381 344.687 97.2642 344.304C97.0903 343.92 97.0015 343.504 97.004 343.083L97.6349 237.721L149.42 241.001L138.002 345.088C137.922 345.8 137.583 346.458 137.049 346.936C136.516 347.415 135.825 347.68 135.109 347.683V347.683Z" fill="#2F2E41"/>
<path d="M125.643 145.745C134.418 145.745 141.532 138.627 141.532 129.847C141.532 121.068 134.418 113.95 125.643 113.95C116.868 113.95 109.755 121.068 109.755 129.847C109.755 138.627 116.868 145.745 125.643 145.745Z" fill="#FFB8B8"/>
<path d="M146.845 245.64C146.772 245.64 146.699 245.637 146.625 245.632L98.7652 242.128C98.0212 242.074 97.3264 241.736 96.8243 241.184C96.3222 240.632 96.0511 239.908 96.0671 239.162L97.329 179.028C97.2444 175.338 97.9132 171.67 99.2945 168.248C100.676 164.826 102.74 161.722 105.362 159.126C107.984 156.53 111.107 154.496 114.542 153.15C117.976 151.803 121.649 151.172 125.335 151.295C129.022 151.418 132.645 152.292 135.982 153.864C139.319 155.436 142.3 157.673 144.744 160.438C147.187 163.203 149.041 166.438 150.191 169.944C151.342 173.451 151.765 177.155 151.435 180.831C150.598 190.099 149.933 230.587 149.749 242.775C149.737 243.538 149.426 244.266 148.883 244.802C148.34 245.338 147.608 245.638 146.845 245.64V245.64Z" fill="#DA37A7"/>
<path d="M61.5543 147.701C61.6338 148.05 61.6855 148.405 61.7092 148.762L89.4984 164.803L96.2529 160.912L103.454 170.344L92.1651 178.395C91.2531 179.045 90.1549 179.382 89.0353 179.355C87.9157 179.327 86.8352 178.937 85.956 178.243L57.3005 155.624C56.0073 156.103 54.599 156.177 53.2629 155.835C51.9268 155.494 50.7263 154.754 49.821 153.713C48.9156 152.672 48.3485 151.38 48.1949 150.009C48.0412 148.638 48.3085 147.252 48.9611 146.037C49.6136 144.821 50.6206 143.834 51.8479 143.205C53.0753 142.576 54.465 142.336 55.8321 142.516C57.1992 142.697 58.4789 143.29 59.5011 144.216C60.5233 145.142 61.2395 146.357 61.5543 147.701V147.701Z" fill="#FFB8B8"/>
<path d="M89.8804 163.2C89.964 162.789 90.1351 162.402 90.382 162.064C90.6288 161.726 90.9457 161.446 91.3108 161.242L104.063 154.107C105.758 152.799 107.901 152.217 110.024 152.488C112.146 152.759 114.075 153.861 115.387 155.552C116.699 157.243 117.288 159.386 117.023 161.511C116.759 163.635 115.664 165.569 113.978 166.887L103.81 177.451C103.52 177.752 103.168 177.988 102.779 178.141C102.39 178.294 101.972 178.361 101.554 178.339C101.137 178.316 100.729 178.203 100.359 178.008C99.9884 177.813 99.6645 177.541 99.409 177.21L90.4276 165.563C90.1718 165.231 89.9905 164.849 89.8961 164.441C89.8016 164.033 89.7963 163.61 89.8804 163.2V163.2Z" fill="#DA37A7"/>
<path d="M133.854 142.433C131.409 142.415 129.008 141.777 126.876 140.579C124.744 139.381 122.95 137.662 121.661 135.583C121.521 135.363 120.757 134.24 119.871 132.939C117.383 129.283 116.799 128.413 116.75 128.285C116.076 126.547 113.939 125.876 112.265 125.618C111.952 125.57 111.635 125.528 111.317 125.485C108.959 125.169 106.521 124.842 105.184 122.249C104.203 120.345 102.599 112.595 103.831 110.701C105.375 108.326 108.34 109.097 111.208 109.844C113.043 110.32 114.94 110.814 116.451 110.499C123.004 109.135 130.431 107.589 136.99 111.586C142.21 114.766 145.35 120.772 145.184 127.261C145.006 134.228 141.969 139.728 137.06 141.973L136.038 142.271L135.463 142.342C134.929 142.403 134.392 142.433 133.854 142.433V142.433Z" fill="#2F2E41"/>
<path d="M496.782 117.672C492.69 117.672 488.724 119.081 485.549 121.662C482.373 124.243 480.182 127.839 479.343 131.845C478.505 135.852 479.069 140.025 480.943 143.664C482.816 147.303 485.884 150.186 489.631 151.829C489.556 150.458 489.66 149.083 489.941 147.739C490.283 146.29 492.232 138.022 492.232 138.022C491.843 137.134 491.647 136.174 491.659 135.204C491.659 132.562 493.186 130.589 495.095 130.589C496.718 130.589 497.497 131.806 497.497 133.263C497.497 134.894 496.455 137.329 495.923 139.589C495.816 140.008 495.81 140.446 495.904 140.868C495.998 141.289 496.19 141.683 496.464 142.017C496.738 142.35 497.087 142.615 497.482 142.789C497.877 142.964 498.307 143.042 498.738 143.02C502.111 143.02 504.385 138.682 504.385 133.541C504.385 129.634 501.753 126.713 496.972 126.713C491.572 126.713 488.199 130.748 488.199 135.252C488.146 136.522 488.566 137.767 489.377 138.746C489.519 138.863 489.62 139.023 489.666 139.202C489.712 139.381 489.699 139.569 489.631 139.741C489.544 140.067 489.353 140.855 489.265 141.173C489.25 141.269 489.212 141.361 489.154 141.439C489.097 141.518 489.021 141.582 488.934 141.625C488.847 141.669 488.751 141.691 488.654 141.69C488.556 141.689 488.46 141.664 488.374 141.619C485.885 140.6 484.724 137.878 484.724 134.806C484.724 129.745 488.995 123.673 497.458 123.673C504.258 123.673 508.736 128.599 508.736 133.883C508.736 140.879 504.847 146.099 499.12 146.099C497.195 146.099 495.39 145.057 494.769 143.879C494.769 143.879 493.735 147.986 493.513 148.781C493.101 150.134 492.498 151.42 491.723 152.601C494.173 153.326 496.751 153.514 499.281 153.154C501.81 152.794 504.233 151.894 506.384 150.514C508.536 149.135 510.366 147.309 511.75 145.16C513.134 143.011 514.04 140.589 514.406 138.059C514.773 135.529 514.591 132.949 513.873 130.495C513.156 128.042 511.92 125.771 510.248 123.837C508.576 121.904 506.509 120.353 504.185 119.289C501.862 118.225 499.337 117.674 496.782 117.672V117.672Z" fill="#DA37A7"/>
<path d="M396.451 59.2033L373.535 52.149C373.245 52.044 372.937 51.9974 372.628 52.0118C372.32 52.0263 372.018 52.1015 371.739 52.2332C371.459 52.3649 371.209 52.5505 371.002 52.7793C370.794 53.0081 370.634 53.2756 370.531 53.5664L363.465 76.5464C363.291 77.1695 363.362 77.8357 363.663 78.408C363.965 78.9803 364.475 79.4151 365.087 79.6229L387.996 86.6751C388.607 86.837 389.256 86.7519 389.804 86.4382C390.352 86.1244 390.754 85.6073 390.923 84.9989L397.989 62.019C398.082 61.7332 398.116 61.4314 398.088 61.1322C398.061 60.8329 397.972 60.5425 397.828 60.2787C397.684 60.015 397.487 59.7836 397.251 59.5986C397.014 59.4137 396.742 59.2791 396.451 59.2033ZM372.659 76.9477L368.725 75.7368L372.488 63.4993L376.421 64.7102L372.659 76.9477ZM375.163 62.286L375.134 62.2773C374.57 62.0994 374.098 61.7047 373.824 61.1797C373.549 60.6547 373.494 60.0422 373.67 59.4765C373.846 58.9107 374.239 58.4378 374.763 58.1615C375.287 57.8851 375.898 57.8277 376.464 58.0019C377.03 58.1762 377.504 58.5677 377.782 59.0909C378.06 59.6141 378.12 60.2262 377.947 60.7931C377.775 61.36 377.385 61.8354 376.863 62.1152C376.341 62.3951 375.73 62.4565 375.163 62.286V62.286ZM387.035 81.3732L383.101 80.1623L385.159 73.4711C385.652 71.868 385.416 70.5965 383.993 70.1584C383.547 70.0249 383.07 70.0333 382.629 70.1823C382.187 70.3313 381.803 70.6136 381.529 70.9903C381.329 71.269 381.182 71.5826 381.096 71.9149L378.953 78.8852L375.019 77.6743L378.782 65.4368L382.715 66.6477L382.192 68.3507C382.74 67.8411 383.416 67.4888 384.148 67.3309C384.88 67.173 385.641 67.2153 386.351 67.4533C388.933 68.2481 390.363 70.5525 389.234 74.2241L387.035 81.3732Z" fill="#DA37A7"/>
<path fill-rule="evenodd" clip-rule="evenodd" d="M45.2353 156.098C45.2347 152.702 44.2615 149.377 42.4311 146.517C40.6006 143.657 37.9895 141.382 34.9069 139.961C31.8242 138.539 28.3991 138.032 25.0371 138.498C21.675 138.964 18.5168 140.384 15.9362 142.59C13.3557 144.796 11.4609 147.695 10.4763 150.945C9.49158 154.195 9.45823 157.66 10.3801 160.928C11.3021 164.197 13.1407 167.132 15.6782 169.388C18.2158 171.643 21.3461 173.124 24.6986 173.654V161.236H20.1877V156.098H24.6986V152.182C24.6986 147.729 27.351 145.267 31.4075 145.267C32.7397 145.285 34.0688 145.401 35.384 145.614V149.988H33.1432C30.9381 149.988 30.2483 151.357 30.2483 152.765V156.099H35.1739L34.3873 161.237H30.2483V173.656C34.4265 172.994 38.2315 170.862 40.9788 167.643C43.7261 164.424 45.2354 160.331 45.2353 156.098L45.2353 156.098Z" fill="#DA37A7"/>
<path d="M522.696 366.353C522.696 366.524 522.627 366.689 522.506 366.81C522.385 366.931 522.221 367 522.049 367H0.646901C0.475332 367 0.31079 366.932 0.189472 366.811C0.068155 366.689 0 366.524 0 366.353C0 366.181 0.068155 366.017 0.189472 365.895C0.31079 365.774 0.475332 365.706 0.646901 365.706H522.049C522.221 365.706 522.385 365.774 522.506 365.896C522.627 366.017 522.696 366.181 522.696 366.353V366.353Z" fill="#DA37A7"/>
</g>
<defs>
<clipPath id="clip0">
<rect width="523" height="367" fill="white"/>
</clipPath>
</defs>
</svg>
