<svg width="536" height="351" viewBox="0 0 536 351" fill="none" xmlns="http://www.w3.org/2000/svg">
<g clip-path="url(#clip0)">
<path d="M191.924 304.139C193.863 288.563 203.526 273.217 218.395 268.148C212.531 284.18 212.532 301.766 218.399 317.797C220.684 323.971 223.869 330.601 221.719 336.823C220.382 340.695 217.111 343.658 213.454 345.51C209.797 347.362 205.739 348.245 201.731 349.11L200.942 349.762C194.58 335.411 189.985 319.714 191.924 304.139Z" fill="#F0F0F0"/>
<path d="M218.543 268.442C209.884 278.135 204.502 290.307 203.161 303.229C202.823 306.006 202.926 308.818 203.464 311.563C204.076 314.22 205.388 316.665 207.265 318.644C208.978 320.524 210.949 322.25 212.174 324.513C212.785 325.681 213.141 326.965 213.22 328.28C213.298 329.595 213.098 330.912 212.632 332.144C211.549 335.245 209.416 337.772 207.245 340.171C204.833 342.835 202.286 345.564 201.261 349.096C201.137 349.523 200.48 349.306 200.604 348.879C202.387 342.734 208.358 339.244 211.205 333.71C212.533 331.128 213.091 328.13 211.846 325.404C210.756 323.021 208.726 321.24 206.975 319.351C205.116 317.447 203.751 315.118 203.001 312.566C202.324 309.857 202.113 307.053 202.378 304.274C202.874 298.007 204.353 291.858 206.762 286.051C209.474 279.407 213.303 273.277 218.085 267.924C218.381 267.592 218.837 268.113 218.543 268.442Z" fill="white"/>
<path d="M203.348 299.043C201.208 298.524 199.323 297.262 198.028 295.483C196.734 293.703 196.115 291.522 196.282 289.329C196.317 288.885 197.009 288.919 196.973 289.363C196.814 291.405 197.391 293.437 198.6 295.092C199.809 296.746 201.569 297.915 203.565 298.386C203.998 298.489 203.779 299.145 203.348 299.043Z" fill="white"/>
<path d="M206.271 317.805C210.135 315.5 212.988 311.824 214.261 307.511C214.386 307.084 215.044 307.301 214.918 307.728C213.586 312.214 210.609 316.033 206.582 318.423C206.198 318.651 205.889 318.031 206.271 317.805L206.271 317.805Z" fill="white"/>
<path d="M210.116 280.063C210.902 280.436 211.769 280.608 212.638 280.564C213.507 280.52 214.352 280.261 215.096 279.81C215.477 279.578 215.786 280.197 215.407 280.428C214.583 280.922 213.65 281.207 212.689 281.258C211.729 281.309 210.771 281.124 209.899 280.72C209.814 280.688 209.743 280.626 209.703 280.545C209.662 280.464 209.653 280.37 209.679 280.283C209.708 280.196 209.77 280.124 209.852 280.083C209.934 280.042 210.029 280.035 210.116 280.063Z" fill="white"/>
<path d="M263.72 295.968C263.486 296.12 263.252 296.271 263.018 296.429C259.887 298.486 256.928 300.794 254.17 303.33C253.954 303.522 253.738 303.721 253.527 303.919C246.949 310.1 241.577 317.446 237.684 325.585C236.137 328.826 234.84 332.179 233.803 335.616C232.371 340.362 231.196 345.622 228.362 349.505C228.071 349.913 227.754 350.303 227.415 350.673H201.8C201.741 350.643 201.683 350.62 201.624 350.591L200.602 350.638C200.643 350.457 200.689 350.27 200.73 350.089C200.754 349.984 200.783 349.879 200.806 349.774C200.824 349.703 200.841 349.633 200.853 349.569C200.859 349.546 200.865 349.522 200.87 349.505C200.882 349.441 200.9 349.382 200.911 349.324C201.169 348.279 201.433 347.234 201.706 346.189C201.706 346.183 201.706 346.183 201.712 346.177C203.81 338.22 206.592 330.367 210.478 323.186C210.595 322.97 210.712 322.748 210.841 322.532C212.611 319.305 214.641 316.228 216.913 313.331C218.162 311.749 219.49 310.231 220.893 308.783C224.524 305.049 228.721 301.908 233.329 299.477C242.517 294.631 253.153 292.774 262.972 295.734C263.223 295.81 263.469 295.886 263.72 295.968Z" fill="#F0F0F0"/>
<path d="M263.662 296.293C250.906 298.823 239.273 305.305 230.415 314.816C228.472 316.83 226.859 319.137 225.634 321.653C224.521 324.142 224.095 326.884 224.402 329.593C224.636 332.124 225.17 334.687 224.784 337.231C224.567 338.531 224.078 339.77 223.348 340.868C222.619 341.965 221.665 342.896 220.55 343.599C217.817 345.424 214.591 346.159 211.411 346.769C207.88 347.445 204.202 348.092 201.255 350.295C200.898 350.562 200.504 349.993 200.861 349.727C205.988 345.893 212.858 346.698 218.467 343.992C221.084 342.729 223.336 340.671 223.984 337.745C224.551 335.187 224.004 332.544 223.744 329.983C223.406 327.344 223.721 324.663 224.66 322.175C225.752 319.605 227.273 317.239 229.16 315.179C233.333 310.474 238.22 306.454 243.643 303.266C249.812 299.593 256.565 297.001 263.609 295.603C264.045 295.516 264.095 296.207 263.662 296.292V296.293Z" fill="white"/>
<path d="M233.087 311.586C231.692 309.885 230.947 307.743 230.986 305.544C231.025 303.344 231.845 301.231 233.3 299.58C233.595 299.247 234.127 299.69 233.831 300.023C232.474 301.558 231.71 303.527 231.678 305.575C231.646 307.623 232.347 309.615 233.656 311.192C233.941 311.535 233.37 311.927 233.087 311.586Z" fill="white"/>
<path d="M224.114 328.325C228.589 328.808 233.082 327.59 236.697 324.911C237.055 324.645 237.449 325.214 237.091 325.48C233.324 328.26 228.646 329.519 223.99 329.005C223.546 328.956 223.672 328.276 224.114 328.325Z" fill="white"/>
<path d="M249.93 300.502C250.333 301.273 250.921 301.932 251.642 302.419C252.362 302.907 253.193 303.208 254.059 303.296C254.503 303.339 254.376 304.02 253.935 303.976C252.979 303.875 252.062 303.541 251.265 303.004C250.467 302.467 249.814 301.744 249.361 300.896C249.312 300.82 249.293 300.728 249.31 300.638C249.326 300.549 249.376 300.469 249.449 300.415C249.524 300.363 249.617 300.343 249.708 300.36C249.798 300.376 249.878 300.427 249.93 300.502Z" fill="white"/>
<path d="M278.268 3.87048C277.183 3.8717 276.143 4.30266 275.376 5.06882C274.609 5.83499 274.178 6.87378 274.177 7.95729V180.771C274.178 181.854 274.609 182.893 275.376 183.659C276.143 184.425 277.183 184.856 278.268 184.858H531.909C532.994 184.856 534.033 184.425 534.8 183.659C535.567 182.893 535.999 181.854 536 180.771V7.95729C535.999 6.87379 535.567 5.83503 534.8 5.06888C534.033 4.30273 532.994 3.87175 531.909 3.87048H278.268Z" fill="#E6E6E6"/>
<path d="M284.112 9.70874C283.027 9.70996 281.987 10.1409 281.22 10.9071C280.453 11.6732 280.022 12.712 280.021 13.7956V174.932C280.022 176.016 280.453 177.055 281.22 177.821C281.987 178.587 283.027 179.018 284.112 179.019H526.065C527.149 179.018 528.189 178.587 528.956 177.821C529.723 177.055 530.154 176.016 530.156 174.932V13.7956C530.154 12.712 529.723 11.6733 528.956 10.9071C528.189 10.141 527.149 9.71 526.065 9.70874H284.112Z" fill="white"/>
<path opacity="0.1" d="M507.355 44.9454C501.791 42.7753 495.792 48.2178 494.488 54.0408C493.185 59.8639 494.853 65.8861 495.22 71.8417C495.587 77.7973 494.025 84.7129 488.706 87.428C482.59 90.55 475.415 86.4912 468.575 85.873C465.16 85.6021 461.732 86.2007 458.612 87.6127C455.492 89.0248 452.781 91.2042 450.733 93.9472C445.092 101.679 445.379 112.906 438.703 119.766C432.902 125.726 423.45 126.503 415.336 124.659C407.222 122.816 399.763 118.812 391.784 116.451C383.805 114.09 374.57 113.597 367.733 118.335C360.595 123.282 357.418 132.977 349.582 136.724C344.042 139.373 337.483 138.362 331.554 136.758C325.625 135.154 319.646 132.99 313.525 133.505C307.404 134.02 301.023 138.239 300.538 144.356L510.617 143.77C511.571 116.07 512.525 88.3693 513.48 60.669C513.687 54.6515 512.97 47.1352 507.355 44.9454Z" fill="#6C63FF"/>
<path d="M192.949 193.579C192.584 192.616 192.434 191.584 192.51 190.557C192.586 189.53 192.887 188.532 193.391 187.634C193.895 186.735 194.59 185.958 195.428 185.357C196.265 184.756 197.224 184.346 198.237 184.156L201.928 159.393L211.625 168.076L206.634 190.26C206.842 191.982 206.41 193.72 205.421 195.145C204.432 196.569 202.954 197.582 201.267 197.991C199.58 198.401 197.802 198.177 196.269 197.364C194.736 196.551 193.555 195.204 192.949 193.579Z" fill="#FFB6B6"/>
<path d="M125.277 197.338C125.907 196.522 126.35 195.579 126.575 194.574C126.801 193.569 126.802 192.527 126.581 191.521C126.36 190.515 125.92 189.57 125.293 188.752C124.667 187.934 123.868 187.264 122.954 186.787L126.615 162.02L114.812 167.519L113.145 190.195C112.446 191.782 112.354 193.571 112.887 195.221C113.42 196.871 114.54 198.269 116.035 199.15C117.531 200.03 119.297 200.332 121.001 199.998C122.704 199.664 124.226 198.718 125.277 197.338V197.338Z" fill="#FFB6B6"/>
<path d="M177.156 339.74L188.106 339.739L193.316 297.544L177.154 297.545L177.156 339.74Z" fill="#FFB6B6"/>
<path d="M174.362 336.168L195.928 336.167H195.929C199.574 336.167 203.069 337.614 205.647 340.189C208.224 342.763 209.672 346.255 209.672 349.896V350.342L174.363 350.344L174.362 336.168Z" fill="#2F2E41"/>
<path d="M118.713 339.74L129.663 339.739L134.873 297.544L118.711 297.545L118.713 339.74Z" fill="#FFB6B6"/>
<path d="M115.92 336.168L137.485 336.167H137.486C141.131 336.167 144.627 337.614 147.204 340.189C149.781 342.763 151.229 346.255 151.23 349.896V350.342L115.92 350.344L115.92 336.168Z" fill="#2F2E41"/>
<path d="M170.247 51.7182C181.172 51.7182 190.029 42.8707 190.029 31.9568C190.029 21.0429 181.172 12.1954 170.247 12.1954C159.322 12.1954 150.466 21.0429 150.466 31.9568C150.466 42.8707 159.322 51.7182 170.247 51.7182Z" fill="#FFB6B6"/>
<path d="M123.421 174.425C123.421 174.425 123.712 262.854 122.299 264.266C120.886 265.677 115.87 318.562 115.87 318.562H133.403C134.572 318.562 164.397 203.361 164.397 203.361C164.397 203.361 177.114 265.468 174.994 268.997C172.875 272.526 174.527 318.786 175.701 322.635C175.701 322.635 190.433 327.345 191.846 323.816C193.259 320.288 195.352 272.439 195.352 272.439L199.443 193.038L199.533 172.308L123.421 174.425Z" fill="#2F2E41"/>
<path d="M204.667 72.795H212.538C213.116 72.7947 213.677 72.9911 214.129 73.3519C214.581 73.7126 214.896 74.2162 215.023 74.7799C216.238 80.1528 219.368 95.3829 218.796 107.377C218.09 122.198 216.677 145.489 216.677 147.606C216.677 149.723 209.612 182.188 209.612 182.188C209.612 182.188 204.755 174.214 199.412 175.731L200.428 146.9L201.841 134.902L199.721 113.729L204.667 72.795Z" fill="#E4E4E4"/>
<path d="M154.506 59.8732C154.506 59.8732 129.426 68.2075 126.6 75.2651C123.774 82.3228 137.494 133.488 137.494 133.488C137.494 133.488 132.234 156.841 125.187 179.012C121.98 189.102 152.586 180.464 166.715 175.523C175.471 172.49 191.665 177.148 200.781 175.484C200.781 175.484 202.194 156.428 200.781 152.899C199.368 149.37 195.836 151.488 197.955 146.547C200.075 141.607 199.368 140.901 198.662 138.784C197.955 136.667 200.075 133.844 200.075 131.02C200.075 128.197 199.368 121.846 199.368 121.846C199.368 121.846 218.443 77.3825 214.204 73.1479C209.965 68.9133 188.388 60.754 188.388 60.754C188.388 60.754 188.924 61.0928 154.506 59.8732Z" fill="#E4E4E4"/>
<path d="M131.192 72.795L128.683 74.0483C127.706 74.5361 126.856 75.2432 126.198 76.114C125.541 76.9849 125.094 77.996 124.893 79.0681L114.943 132.079L112.823 182.188C112.823 182.188 124.834 178.66 128.366 182.188C128.366 182.188 124.834 171.602 126.953 168.073C129.073 164.544 129.073 159.604 129.073 159.604C129.073 159.604 127.66 159.604 131.192 156.075C134.724 152.546 135.431 151.135 134.724 150.429C134.018 149.723 133.311 143.371 133.311 142.666C133.311 141.96 140.376 94.6738 140.376 94.6738L131.192 72.795Z" fill="#E4E4E4"/>
<path d="M299.533 143.674C299.223 143.674 298.926 143.551 298.707 143.332C298.487 143.113 298.364 142.816 298.364 142.507C298.364 142.197 298.487 141.9 298.707 141.681C298.926 141.462 299.223 141.339 299.533 141.339C353.543 141.339 405.051 130.536 444.57 110.919C481.627 92.5248 505.242 67.5808 509.358 42.483C509.382 42.3314 509.436 42.1862 509.517 42.0555C509.598 41.9249 509.703 41.8114 509.828 41.7215C509.952 41.6317 510.093 41.5673 510.243 41.5319C510.392 41.4966 510.547 41.4911 510.699 41.5157C510.851 41.5403 510.996 41.5945 511.127 41.6753C511.257 41.756 511.371 41.8617 511.461 41.9863C511.55 42.1109 511.615 42.2519 511.65 42.4014C511.685 42.5508 511.69 42.7057 511.665 42.8571L511.665 42.8604C509.527 55.8977 502.586 68.6864 491.037 80.8715C479.646 92.8894 464.363 103.703 445.611 113.011C405.775 132.785 353.897 143.674 299.533 143.674Z" fill="#F35810"/>
<path d="M521.39 143.91H298.138V33.725H299.307V142.742H521.39V143.91Z" fill="#E6E6E6"/>
<path d="M151.602 38.6139C150.698 36.397 150.553 33.9437 151.189 31.6357C152.805 35.9171 156.015 34.6102 157.651 32.6024C159.702 30.0845 159.111 24.2697 162.351 24.0095C165.59 23.7493 168.829 24.3617 172.02 24.9712C171.491 24.0667 170.963 23.1621 170.434 22.2575C172.743 22.4006 175.051 22.5438 177.36 22.6869C176.673 21.5569 175.986 20.4271 175.298 19.2972C178.437 20.399 181.308 22.1491 183.724 24.4335C186.141 26.7178 188.048 29.4852 189.322 32.5552C190.52 30.6188 191.266 28.438 191.505 26.1744C191.744 23.9108 191.471 21.6225 190.704 19.4789C189.938 17.3353 188.699 15.3914 187.078 13.7913C185.458 12.1911 183.498 10.9757 181.343 10.235C182.254 9.04128 183.165 7.84756 184.076 6.65387L165.537 4.82638C165.491 3.93373 165.663 3.0433 166.039 2.23218C166.415 1.42105 166.983 0.713685 167.694 0.17132C165.267 -0.376313 162.692 0.445188 160.629 1.83585C158.566 3.22654 156.926 5.14427 155.312 7.03731C152.87 9.90364 150.398 12.8149 148.799 16.2233C147.159 19.8519 146.553 23.8621 147.048 27.8126C147.542 31.7631 149.118 35.5006 151.602 38.6139ZM151.826 29.9178L151.827 29.9167L151.845 29.9134L151.826 29.9178Z" fill="#2F2E41"/>
<path d="M378.992 351H0.695809C0.511602 350.999 0.335127 350.926 0.205062 350.796C0.0749962 350.665 0.00195312 350.489 0.00195312 350.305C0.00195312 350.121 0.0749962 349.944 0.205062 349.814C0.335127 349.684 0.511602 349.61 0.695809 349.61H378.992C379.176 349.61 379.353 349.684 379.483 349.814C379.613 349.944 379.686 350.121 379.686 350.305C379.686 350.489 379.613 350.665 379.483 350.796C379.353 350.926 379.176 350.999 378.992 351Z" fill="#CACACA"/>
</g>
<defs>
<clipPath id="clip0">
<rect width="536" height="351" fill="white"/>
</clipPath>
</defs>
</svg>
