<svg width="440" height="360" viewBox="0 0 440 360" fill="none" xmlns="http://www.w3.org/2000/svg">
<g clip-path="url(#clip0)">
<path d="M327.391 282.154H190.966C188.788 282.152 186.7 281.287 185.159 279.749C183.619 278.212 182.753 276.127 182.75 273.952V176.027C182.753 173.852 183.619 171.768 185.159 170.23C186.7 168.692 188.788 167.828 190.966 167.825H327.391C329.569 167.828 331.658 168.692 333.198 170.23C334.738 171.768 335.604 173.852 335.607 176.027V273.952C335.604 276.127 334.738 278.212 333.198 279.749C331.657 281.287 329.569 282.152 327.391 282.154V282.154Z" fill="black"/>
<path d="M193.488 275.616H324.869C325.926 275.616 326.939 275.197 327.686 274.451C328.433 273.706 328.853 272.694 328.853 271.639V178.34C328.853 177.285 328.433 176.274 327.686 175.528C326.939 174.782 325.926 174.363 324.869 174.363H193.488C192.431 174.363 191.418 174.782 190.671 175.528C189.924 176.274 189.504 177.285 189.504 178.34V271.639C189.504 272.694 189.924 273.706 190.671 274.451C191.418 275.197 192.431 275.616 193.488 275.616Z" fill="#333333"/>
<path d="M144.641 150.688H8.21538C6.03728 150.686 3.9491 149.821 2.40895 148.283C0.868797 146.745 0.00246038 144.661 0 142.486V44.5609C0.00245906 42.3864 0.868797 40.3016 2.40895 38.764C3.9491 37.2264 6.03728 36.3615 8.21538 36.359H144.641C146.819 36.3615 148.907 37.2264 150.447 38.764C151.987 40.3016 152.853 42.3864 152.856 44.5609V142.486C152.853 144.661 151.987 146.745 150.447 148.283C148.907 149.821 146.819 150.686 144.641 150.688V150.688Z" fill="black"/>
<path d="M10.7371 144.15H142.119C143.175 144.15 144.188 143.731 144.935 142.985C145.682 142.24 146.102 141.228 146.102 140.173V46.8738C146.102 45.8191 145.682 44.8076 144.935 44.0618C144.188 43.3161 143.175 42.8971 142.119 42.8971H10.7371C9.68071 42.8971 8.66756 43.3161 7.92056 44.0618C7.17356 44.8076 6.75391 45.8191 6.75391 46.8738V140.173C6.75391 141.228 7.17356 142.24 7.92056 142.985C8.66756 143.731 9.68071 144.15 10.7371 144.15Z" fill="#333333"/>
<path d="M309.209 203.353H225.287C224.893 203.353 224.504 203.431 224.14 203.581C223.776 203.731 223.446 203.952 223.168 204.23C222.889 204.508 222.669 204.837 222.518 205.2C222.367 205.563 222.29 205.953 222.29 206.346C222.29 206.738 222.367 207.128 222.518 207.491C222.669 207.854 222.889 208.184 223.168 208.461C223.446 208.739 223.776 208.96 224.14 209.11C224.504 209.26 224.893 209.338 225.287 209.338H309.209C310.004 209.338 310.766 209.023 311.328 208.461C311.89 207.9 312.206 207.139 312.206 206.346C312.206 205.552 311.89 204.791 311.328 204.23C310.766 203.669 310.004 203.353 309.209 203.353V203.353Z" fill="#E6E6E6"/>
<path d="M225.287 221.767C224.893 221.767 224.504 221.845 224.14 221.995C223.776 222.145 223.446 222.366 223.168 222.644C222.889 222.921 222.669 223.251 222.518 223.614C222.367 223.977 222.29 224.367 222.29 224.759C222.29 225.152 222.367 225.542 222.518 225.905C222.669 226.268 222.889 226.598 223.168 226.875C223.446 227.153 223.776 227.374 224.14 227.524C224.504 227.674 224.893 227.752 225.287 227.752H309.209C310.004 227.752 310.766 227.437 311.328 226.875C311.89 226.314 312.206 225.553 312.206 224.759C312.206 223.966 311.89 223.205 311.328 222.644C310.766 222.082 310.004 221.767 309.209 221.767H225.287Z" fill="#E6E6E6"/>
<path d="M225.287 240.181C224.492 240.181 223.73 240.497 223.168 241.058C222.606 241.619 222.29 242.38 222.29 243.174C222.29 243.967 222.606 244.728 223.168 245.289C223.73 245.851 224.492 246.166 225.287 246.166H309.209C310.004 246.166 310.766 245.851 311.328 245.289C311.89 244.728 312.206 243.967 312.206 243.174C312.206 242.38 311.89 241.619 311.328 241.058C310.766 240.497 310.004 240.181 309.209 240.181H225.287Z" fill="#E6E6E6"/>
<path d="M209.379 210.258C211.416 210.258 213.068 208.61 213.068 206.576C213.068 204.542 211.416 202.893 209.379 202.893C207.342 202.893 205.69 204.542 205.69 206.576C205.69 208.61 207.342 210.258 209.379 210.258Z" fill="#FDD039"/>
<path d="M209.379 228.673C211.416 228.673 213.068 227.024 213.068 224.99C213.068 222.956 211.416 221.307 209.379 221.307C207.342 221.307 205.69 222.956 205.69 224.99C205.69 227.024 207.342 228.673 209.379 228.673Z" fill="#E6E6E6"/>
<path d="M209.379 247.086C211.416 247.086 213.068 245.438 213.068 243.404C213.068 241.37 211.416 239.721 209.379 239.721C207.342 239.721 205.69 241.37 205.69 243.404C205.69 245.438 207.342 247.086 209.379 247.086Z" fill="#E6E6E6"/>
<path d="M275.778 206.345C275.778 206.738 275.701 207.128 275.55 207.491C275.4 207.854 275.179 208.183 274.901 208.461C274.622 208.739 274.292 208.96 273.928 209.11C273.565 209.26 273.175 209.338 272.781 209.338H225.395C224.655 209.349 223.935 209.092 223.37 208.615C222.804 208.138 222.43 207.474 222.316 206.743C222.26 206.32 222.295 205.891 222.419 205.483C222.542 205.075 222.752 204.698 223.033 204.377C223.314 204.056 223.661 203.799 224.049 203.622C224.438 203.446 224.86 203.354 225.287 203.353H272.781C273.576 203.353 274.339 203.668 274.901 204.23C275.463 204.791 275.778 205.552 275.778 206.345V206.345Z" fill="#FDD039"/>
<path d="M259.179 155.247C265.8 155.247 271.167 149.888 271.167 143.278C271.167 136.667 265.8 131.308 259.179 131.308C252.557 131.308 247.19 136.667 247.19 143.278C247.19 149.888 252.557 155.247 259.179 155.247Z" fill="#222222"/>
<path d="M265.096 144.236C265.626 140.974 263.407 137.9 260.139 137.37C256.871 136.841 253.792 139.056 253.261 142.319C252.731 145.581 254.95 148.655 258.218 149.185C261.486 149.714 264.565 147.499 265.096 144.236Z" fill="#333333"/>
<path d="M20.4493 90.6803C19.6615 90.6803 18.906 90.9927 18.349 91.5488C17.7919 92.105 17.479 92.8592 17.479 93.6457C17.479 94.4322 17.7919 95.1865 18.349 95.7426C18.906 96.2987 19.6615 96.6111 20.4493 96.6111H132.407C133.195 96.6111 133.95 96.2987 134.507 95.7426C135.064 95.1865 135.377 94.4322 135.377 93.6457C135.377 92.8592 135.064 92.105 134.507 91.5488C133.95 90.9927 133.195 90.6803 132.407 90.6803H20.4493Z" fill="#E6E6E6"/>
<path d="M20.4493 108.929C19.6615 108.929 18.906 109.241 18.349 109.798C17.7919 110.354 17.479 111.108 17.479 111.894C17.479 112.681 17.7919 113.435 18.349 113.991C18.906 114.547 19.6615 114.86 20.4493 114.86H132.407C133.195 114.86 133.95 114.547 134.507 113.991C135.064 113.435 135.377 112.681 135.377 111.894C135.377 111.108 135.064 110.354 134.507 109.798C133.95 109.241 133.195 108.929 132.407 108.929H20.4493Z" fill="#E6E6E6"/>
<path d="M70.4874 128.09C69.6996 128.09 68.9441 128.403 68.3871 128.959C67.83 129.515 67.5171 130.269 67.5171 131.055C67.5171 131.842 67.83 132.596 68.3871 133.152C68.9441 133.708 69.6996 134.021 70.4874 134.021H82.3686C83.1564 134.021 83.9119 133.708 84.4689 133.152C85.0259 132.596 85.3389 131.842 85.3389 131.055C85.3389 130.269 85.0259 129.515 84.4689 128.959C83.9119 128.403 83.1564 128.09 82.3686 128.09H70.4874Z" fill="#FDD039"/>
<path d="M60.5072 53.0263C60.2649 53.0265 60.0326 53.1227 59.8612 53.2938C59.6899 53.4648 59.5935 53.6968 59.5933 53.9387V77.1008C59.5935 77.3428 59.6899 77.5747 59.8612 77.7458C60.0326 77.9168 60.2649 78.013 60.5072 78.0133H92.3487C92.591 78.013 92.8233 77.9168 92.9946 77.7458C93.166 77.5747 93.2624 77.3428 93.2626 77.1008V53.9387C93.2624 53.6968 93.166 53.4648 92.9946 53.2938C92.8233 53.1227 92.591 53.0265 92.3487 53.0262L60.5072 53.0263Z" fill="#FDD039"/>
<path d="M76.428 67.9764C79.2042 67.9764 81.4547 65.7296 81.4547 62.958C81.4547 60.1864 79.2042 57.9396 76.428 57.9396C73.6519 57.9396 71.4014 60.1864 71.4014 62.958C71.4014 65.7296 73.6519 67.9764 76.428 67.9764Z" fill="#333333"/>
<path d="M84.6534 75.7321C84.6552 76.5252 84.4672 77.3073 84.105 78.0132H68.7509C68.3596 77.2481 68.1716 76.3955 68.2049 75.5371C68.2383 74.6787 68.4918 73.8432 68.9412 73.1107C69.3907 72.3781 70.0209 71.773 70.7717 71.3533C71.5225 70.9336 72.3687 70.7134 73.2291 70.7137H79.6267C80.9591 70.713 82.2372 71.2407 83.1799 72.1808C84.1226 73.1208 84.6526 74.3962 84.6534 75.7265V75.7321Z" fill="#333333"/>
<path d="M76.428 67.9764C79.2042 67.9764 81.4547 65.7296 81.4547 62.958C81.4547 60.1864 79.2042 57.9396 76.428 57.9396C73.6519 57.9396 71.4014 60.1864 71.4014 62.958C71.4014 65.7296 73.6519 67.9764 76.428 67.9764Z" fill="#333333"/>
<path d="M84.6534 75.7321C84.6552 76.5252 84.4672 77.3073 84.105 78.0132H68.7509C68.3596 77.2481 68.1716 76.3955 68.2049 75.5371C68.2383 74.6787 68.4918 73.8432 68.9412 73.1107C69.3907 72.3781 70.0209 71.773 70.7717 71.3533C71.5225 70.9336 72.3687 70.7134 73.2291 70.7137H79.6267C80.9591 70.713 82.2372 71.2407 83.1799 72.1808C84.1226 73.1208 84.6526 74.3962 84.6534 75.7265V75.7321Z" fill="#333333"/>
<path d="M76.4281 23.7233C82.9899 23.7233 88.3093 18.4127 88.3093 11.8617C88.3093 5.31064 82.9899 0 76.4281 0C69.8663 0 64.5469 5.31064 64.5469 11.8617C64.5469 18.4127 69.8663 23.7233 76.4281 23.7233Z" fill="#222222"/>
<path d="M76.4279 17.7926C79.7088 17.7926 82.3685 15.1372 82.3685 11.8617C82.3685 8.58623 79.7088 5.93091 76.4279 5.93091C73.147 5.93091 70.4873 8.58623 70.4873 11.8617C70.4873 15.1372 73.147 17.7926 76.4279 17.7926Z" fill="#FDD039"/>
<path d="M372.49 353.545L366.798 353.545L364.091 331.625L372.492 331.626L372.49 353.545Z" fill="#FFB8B8"/>
<path d="M362.732 351.921H373.71V358.822H355.82C355.82 357.915 355.999 357.018 356.346 356.181C356.694 355.344 357.203 354.583 357.845 353.942C358.487 353.301 359.249 352.793 360.087 352.446C360.926 352.1 361.824 351.921 362.732 351.921V351.921Z" fill="#2F2E41"/>
<path d="M403.172 353.545L397.479 353.545L394.772 331.625L403.174 331.626L403.172 353.545Z" fill="#FFB8B8"/>
<path d="M393.413 351.921H404.391V358.822H386.501C386.501 357.915 386.68 357.018 387.028 356.181C387.375 355.344 387.884 354.583 388.526 353.942C389.168 353.301 389.93 352.793 390.768 352.446C391.607 352.1 392.506 351.921 393.413 351.921V351.921Z" fill="#2F2E41"/>
<path d="M386.501 197.722C393.255 197.722 398.73 192.256 398.73 185.513C398.73 178.771 393.255 173.304 386.501 173.304C379.747 173.304 374.272 178.771 374.272 185.513C374.272 192.256 379.747 197.722 386.501 197.722Z" fill="#FFB8B8"/>
<path d="M344.686 265.135C344.771 264.459 345.004 263.81 345.368 263.233C345.732 262.657 346.218 262.167 346.792 261.798C347.366 261.43 348.014 261.191 348.691 261.1C349.367 261.008 350.055 261.066 350.707 261.268L357.541 253.089L363.533 256.023L353.719 267.438C353.305 268.509 352.513 269.39 351.491 269.916C350.47 270.442 349.291 270.576 348.178 270.292C347.064 270.008 346.094 269.327 345.45 268.376C344.807 267.426 344.535 266.272 344.686 265.135V265.135Z" fill="#FFB8B8"/>
<path d="M403.505 273.407C403.214 272.791 403.062 272.119 403.059 271.437C403.056 270.756 403.203 270.082 403.489 269.463C403.776 268.845 404.194 268.297 404.716 267.857C405.237 267.417 405.849 267.097 406.508 266.919L407.88 256.356L414.513 255.623L412.366 270.513C412.592 271.638 412.397 272.806 411.818 273.797C411.238 274.788 410.315 275.533 409.223 275.889C408.131 276.246 406.946 276.191 405.892 275.733C404.838 275.276 403.989 274.448 403.505 273.407L403.505 273.407Z" fill="#FFB8B8"/>
<path d="M396.721 208.573C397.371 207.74 398.231 207.092 399.212 206.696C400.193 206.3 401.261 206.169 402.309 206.317C403.357 206.464 404.348 206.885 405.18 207.537C406.013 208.189 406.659 209.049 407.053 210.03L417.076 235.004C418.1 237.556 418.427 240.334 418.023 243.053L414.758 265.004C414.715 265.287 414.613 265.558 414.456 265.797C414.299 266.037 414.093 266.241 413.85 266.393C413.608 266.546 413.335 266.645 413.05 266.682C412.766 266.72 412.477 266.696 412.203 266.612L407.901 265.294C407.456 265.157 407.073 264.869 406.818 264.479C406.563 264.09 406.454 263.623 406.508 263.161C408.026 250.238 406.02 237.146 400.701 225.268L395.975 214.716C395.53 213.721 395.364 212.623 395.495 211.541C395.627 210.459 396.05 209.433 396.721 208.573V208.573Z" fill="#FDD039"/>
<path d="M389.479 197.722C391.319 197.761 393.147 197.412 394.843 196.696C396.539 195.98 398.063 194.914 399.317 193.568C400.57 192.222 401.524 190.626 402.116 188.886C402.707 187.146 402.924 185.3 402.75 183.47C402.576 181.64 402.017 179.868 401.108 178.27C400.2 176.671 398.962 175.283 397.478 174.196C395.994 173.109 394.296 172.347 392.496 171.962C390.696 171.577 388.834 171.576 387.034 171.96C384.345 170.33 381.218 169.233 378.084 169.512C374.951 169.791 371.851 171.649 370.68 174.564C369.508 177.479 370.767 181.321 373.681 182.506C375.549 183.265 377.658 182.897 379.652 182.591C381.645 182.284 383.82 182.084 385.555 183.111C387.29 184.138 388.07 186.892 386.516 188.176C385.692 188.883 385.104 189.825 384.83 190.874C384.555 191.924 384.608 193.032 384.98 194.051C385.761 196.068 387.893 197.688 389.479 197.722Z" fill="#2F2E41"/>
<path d="M404.651 264.653L406.821 346.84C406.828 347.114 406.778 347.387 406.675 347.64C406.572 347.894 406.417 348.124 406.22 348.316C406.024 348.507 405.79 348.656 405.533 348.753C405.276 348.849 405.002 348.892 404.728 348.878L397.582 348.514C397.126 348.491 396.692 348.312 396.353 348.007C396.013 347.703 395.788 347.291 395.717 346.841L387.217 293.459C387.181 293.231 387.066 293.022 386.892 292.869C386.718 292.716 386.496 292.629 386.265 292.622C386.033 292.615 385.806 292.688 385.623 292.83C385.44 292.972 385.312 293.173 385.262 293.399L373.757 344.795C373.695 345.07 373.576 345.329 373.407 345.554C373.238 345.779 373.023 345.966 372.776 346.102C372.529 346.238 372.256 346.32 371.975 346.343C371.694 346.366 371.411 346.329 371.146 346.235L364.054 345.803C363.643 345.657 363.292 345.381 363.054 345.017C362.816 344.653 362.703 344.222 362.734 343.788L368.925 263.875L404.651 264.653Z" fill="#2F2E41"/>
<path d="M408.133 225.616C409.329 213.162 400.157 201.896 387.656 201.01C382.27 200.628 373.908 200.492 371.151 207.54C362.847 228.772 377.384 228.257 372.375 246.652C367.367 265.048 362.944 266.102 369.816 267.43C376.687 268.759 407.59 276.6 406.321 263.652C405.541 255.694 406.939 238.04 408.133 225.616Z" fill="#FDD039"/>
<path d="M372.622 205.38C373.609 204.999 374.679 204.884 375.725 205.048C376.77 205.211 377.754 205.647 378.577 206.312C379.4 206.976 380.033 207.846 380.411 208.832C380.79 209.819 380.902 210.888 380.734 211.931L376.831 236.284C376.164 240.448 374.4 244.36 371.72 247.62L359.044 263.042C358.862 263.263 358.634 263.443 358.377 263.568C358.119 263.694 357.837 263.762 357.55 263.769C357.263 263.775 356.979 263.72 356.715 263.606C356.452 263.493 356.216 263.324 356.024 263.111L353.013 259.773C352.702 259.427 352.521 258.983 352.503 258.518C352.485 258.054 352.631 257.597 352.916 257.229L353.803 256.08C361.177 246.525 365.829 235.16 367.268 223.183L368.82 210.267C368.95 209.185 369.372 208.158 370.042 207.297C370.712 206.437 371.603 205.774 372.622 205.38V205.38Z" fill="#FDD039"/>
<path d="M439.502 360H311.043C310.911 360 310.785 359.948 310.691 359.854C310.598 359.761 310.545 359.635 310.545 359.503C310.545 359.371 310.598 359.245 310.691 359.151C310.785 359.058 310.911 359.006 311.043 359.006H439.502C439.634 359.006 439.761 359.058 439.854 359.151C439.948 359.245 440 359.371 440 359.503C440 359.635 439.948 359.761 439.854 359.854C439.761 359.948 439.634 360 439.502 360Z" fill="#CCCCCC"/>
</g>
<defs>
<clipPath id="clip0">
<rect width="440" height="360" fill="white"/>
</clipPath>
</defs>
</svg>
