<svg width="578" height="413" viewBox="0 0 578 413" fill="none" xmlns="http://www.w3.org/2000/svg">
<g clip-path="url(#clip0)">
<path d="M57.7481 375.603L46.7166 385.773L55.4835 371.042C48.5765 358.499 37.28 347.659 37.28 347.659C37.28 347.659 13.8438 370.144 13.8438 387.819C13.8438 405.493 24.3365 411.665 37.28 411.665C50.2233 411.665 60.716 405.493 60.716 387.819C60.716 383.885 59.5533 379.713 57.7481 375.603Z" fill="#6348B3"/>
<path d="M43.8797 386.323V387.195C43.828 397.321 42.1225 405.223 38.776 410.786C38.7286 410.868 38.6769 410.946 38.6295 411.028L38.2548 410.799L37.8974 410.575C41.61 404.567 42.9236 396.075 42.9709 387.242C42.9753 386.957 42.9796 386.668 42.9753 386.38C42.9623 382.64 42.7341 378.858 42.368 375.183C42.3421 374.898 42.312 374.61 42.2818 374.321C41.7736 369.473 41.0415 364.841 40.292 360.817C40.2404 360.532 40.1844 360.248 40.1284 359.967C38.832 353.161 37.5097 348.232 37.2083 347.141C37.1738 347.007 37.1523 346.934 37.1479 346.916L37.5571 346.8L37.5614 346.796L37.9749 346.679C37.9792 346.696 38.0524 346.942 38.173 347.399C38.6339 349.107 39.8312 353.744 41.007 359.859C41.0587 360.135 41.1146 360.42 41.1663 360.705C41.7779 363.97 42.3766 367.618 42.8504 371.448C42.9709 372.41 43.0786 373.359 43.1734 374.295C43.2078 374.584 43.238 374.873 43.2638 375.157C43.6601 379.13 43.8654 382.852 43.8797 386.323Z" fill="black"/>
<path d="M41.007 359.859C40.7184 359.898 40.4255 359.937 40.1284 359.967C39.3213 360.05 38.5105 360.092 37.6992 360.092C34.2416 360.097 30.8271 359.325 27.7071 357.832C27.5262 358.061 27.3454 358.289 27.1602 358.522C30.4422 360.127 34.047 360.959 37.6992 360.955C38.5653 360.955 39.4308 360.909 40.292 360.817C40.5849 360.787 40.8778 360.748 41.1663 360.705C43.5483 360.363 45.8645 359.66 48.0359 358.622C47.8507 358.384 47.6698 358.151 47.4932 357.923C45.4381 358.885 43.2525 359.537 41.007 359.859V359.859Z" fill="black"/>
<path d="M43.1732 374.295C42.876 374.312 42.5788 374.321 42.2817 374.321C42.1912 374.325 42.0965 374.325 42.006 374.325C38.2595 374.325 34.5686 373.418 31.2478 371.681C27.9271 369.944 25.0751 367.428 22.9349 364.349C22.7626 364.604 22.5903 364.858 22.4224 365.117C24.6531 368.232 27.593 370.771 30.9987 372.522C34.4043 374.274 38.1776 375.187 42.006 375.187C42.1266 375.187 42.2472 375.187 42.3678 375.183C42.6693 375.179 42.9665 375.17 43.2636 375.157C47.8622 374.921 52.2956 373.364 56.0337 370.672C55.8959 370.417 55.758 370.163 55.6159 369.908C51.9829 372.552 47.6586 374.076 43.1732 374.295V374.295Z" fill="black"/>
<path d="M43.8796 386.323C43.5781 386.349 43.2766 386.367 42.9751 386.379C42.6521 386.392 42.3291 386.401 42.006 386.401C36.9718 386.395 32.0748 384.757 28.0483 381.731C24.0218 378.705 21.0824 374.454 19.6703 369.615C19.4764 369.964 19.2826 370.31 19.0974 370.659C20.6886 375.487 23.7584 379.689 27.8709 382.67C31.9834 385.651 36.9293 387.258 42.006 387.264C42.3291 387.264 42.6521 387.259 42.9708 387.242C43.2766 387.233 43.5781 387.216 43.8796 387.195C49.9692 386.718 55.6502 383.941 59.7722 379.427C59.6818 379.108 59.5784 378.793 59.475 378.474C55.4936 383.022 49.8996 385.837 43.8796 386.323Z" fill="black"/>
<path d="M578 52.129H366.34V180.535H578V52.129Z" fill="#444444"/>
<path d="M574.438 24.614H279.48C279.299 24.614 279.125 24.542 278.997 24.4138C278.869 24.2855 278.797 24.1116 278.797 23.9303C278.797 23.749 278.869 23.5751 278.997 23.4468C279.125 23.3186 279.299 23.2466 279.48 23.2466H574.438C574.619 23.2466 574.793 23.3186 574.921 23.4468C575.049 23.5751 575.121 23.749 575.121 23.9303C575.121 24.1116 575.049 24.2855 574.921 24.4138C574.793 24.542 574.619 24.614 574.438 24.614Z" fill="#222222"/>
<path d="M294.848 15.0419C298.996 15.0419 302.358 11.6746 302.358 7.52094C302.358 3.36724 298.996 0 294.848 0C290.7 0 287.337 3.36724 287.337 7.52094C287.337 11.6746 290.7 15.0419 294.848 15.0419Z" fill="#3F3D56"/>
<path d="M320.793 15.0419C324.941 15.0419 328.304 11.6746 328.304 7.52094C328.304 3.36724 324.941 0 320.793 0C316.645 0 313.283 3.36724 313.283 7.52094C313.283 11.6746 316.645 15.0419 320.793 15.0419Z" fill="#3F3D56"/>
<path d="M346.739 15.0419C350.887 15.0419 354.249 11.6746 354.249 7.52094C354.249 3.36724 350.887 0 346.739 0C342.591 0 339.228 3.36724 339.228 7.52094C339.228 11.6746 342.591 15.0419 346.739 15.0419Z" fill="#3F3D56"/>
<path d="M487.201 114.766L474.316 101.47C474.035 101.186 473.699 100.962 473.329 100.813C472.959 100.664 472.562 100.593 472.163 100.603H472.124C471.725 100.593 471.328 100.664 470.958 100.813C470.588 100.962 470.252 101.186 469.971 101.47L457.086 114.766C456.536 115.282 456.212 115.996 456.187 116.75C456.161 117.505 456.436 118.239 456.951 118.79C456.995 118.837 457.04 118.882 457.086 118.926C457.676 119.478 458.453 119.785 459.259 119.785C460.066 119.785 460.843 119.478 461.432 118.926L469.067 110.934V131.539C469.102 132.332 469.442 133.081 470.015 133.63C470.588 134.179 471.351 134.485 472.144 134.485C472.937 134.485 473.699 134.179 474.272 133.63C474.845 133.081 475.185 132.332 475.22 131.539V110.934L482.855 118.926C483.444 119.478 484.221 119.785 485.028 119.785C485.835 119.785 486.611 119.478 487.201 118.926C487.751 118.41 488.075 117.696 488.1 116.942C488.126 116.187 487.851 115.453 487.336 114.901C487.292 114.855 487.247 114.81 487.201 114.766Z" fill="#6348B3"/>
<path d="M472.17 148.013C466.19 148.013 460.344 146.237 455.371 142.91C450.399 139.583 446.523 134.854 444.235 129.321C441.946 123.788 441.347 117.7 442.514 111.827C443.681 105.953 446.561 100.558 450.789 96.3231C455.018 92.0885 460.406 89.2047 466.271 88.0364C472.137 86.8681 478.216 87.4677 483.741 89.7595C489.267 92.0512 493.989 95.9322 497.311 100.912C500.634 105.891 502.407 111.745 502.407 117.734C502.398 125.761 499.21 133.458 493.541 139.134C487.872 144.811 480.187 148.004 472.17 148.013V148.013ZM472.17 88.5761C466.411 88.5761 460.782 90.2861 455.994 93.49C451.205 96.6939 447.473 101.248 445.269 106.576C443.066 111.903 442.489 117.766 443.613 123.422C444.736 129.078 447.509 134.273 451.581 138.351C455.653 142.429 460.842 145.206 466.49 146.331C472.138 147.456 477.992 146.879 483.313 144.672C488.633 142.465 493.181 138.728 496.38 133.933C499.58 129.138 501.287 123.501 501.287 117.734C501.279 110.003 498.208 102.592 492.75 97.1258C487.291 91.6596 479.89 88.5848 472.17 88.5761V88.5761Z" fill="#A7A7A7"/>
<path d="M488.992 249.121H291.307C289.286 249.116 287.649 245.762 287.646 241.62V141.144C287.646 137.004 289.286 133.651 291.307 133.644H488.992C491.013 133.649 492.651 137.003 492.653 141.144V241.619C492.651 245.76 491.01 249.116 488.992 249.121Z" fill="black"/>
<path d="M354.883 190.735C364.43 190.735 372.169 182.985 372.169 173.424C372.169 163.864 364.43 156.114 354.883 156.114C345.336 156.114 337.596 163.864 337.596 173.424C337.596 182.985 345.336 190.735 354.883 190.735Z" fill="#3F3D56"/>
<path d="M409.092 226.768H324.29C324.184 226.769 324.078 226.76 323.973 226.742L364.082 157.175C364.327 156.742 364.682 156.381 365.112 156.13C365.541 155.879 366.029 155.747 366.526 155.747C367.024 155.747 367.512 155.879 367.941 156.13C368.371 156.381 368.726 156.742 368.971 157.175L395.887 203.86L397.178 206.094L409.092 226.768Z" fill="#6348B3"/>
<path d="M456.307 226.769H382.959L397.172 206.096L398.194 204.607L416.715 177.666C417.043 177.253 417.453 176.915 417.92 176.672C418.387 176.429 418.9 176.288 419.425 176.256C419.95 176.225 420.476 176.305 420.968 176.49C421.46 176.676 421.908 176.963 422.282 177.333C422.378 177.438 422.467 177.549 422.549 177.666L456.307 226.769Z" fill="#6348B3"/>
<path d="M488.992 249.121H291.307C289.286 249.116 287.649 245.762 287.646 241.62V141.144C287.646 137.004 289.286 133.651 291.307 133.644H488.992C491.013 133.649 492.651 137.003 492.653 141.144V241.619C492.651 245.76 491.01 249.116 488.992 249.121ZM291.307 136.644C290.094 136.644 289.112 138.66 289.11 141.144V241.619C289.11 244.103 290.094 246.117 291.307 246.12H488.992C490.205 246.12 491.188 244.104 491.189 241.619V141.144C491.189 138.66 490.205 136.646 488.992 136.644L291.307 136.644Z" fill="black"/>
<path d="M260.819 413H0.682773C0.501691 413 0.328024 412.928 0.199979 412.8C0.0719343 412.672 0 412.498 0 412.316C0 412.135 0.0719343 411.961 0.199979 411.833C0.328024 411.705 0.501691 411.633 0.682773 411.633H260.819C261.001 411.633 261.174 411.705 261.302 411.833C261.43 411.961 261.502 412.135 261.502 412.316C261.502 412.498 261.43 412.672 261.302 412.8C261.174 412.928 261.001 413 260.819 413Z" fill="#222222"/>
<path d="M182.95 141.778C176.521 132.712 163.802 132.289 163.802 132.289C163.802 132.289 151.408 130.967 143.457 144.774C136.046 157.644 146.488 173.642 146.488 173.642C148.551 173.765 157.474 173.82 184.029 170.534L185.218 164.109L188.632 169.968C190.051 169.795 191.526 169.616 193.069 169.429C192.371 162.611 189.136 150.501 182.95 141.778Z" fill="#2F2E41"/>
<path d="M198.105 268.626L196.402 209.958L184.806 215.038L190.401 269.261C189.195 270.198 188.323 271.499 187.916 272.972C187.509 274.445 187.587 276.011 188.141 277.435C188.694 278.86 189.692 280.067 190.986 280.877C192.28 281.688 193.801 282.058 195.322 281.932C196.843 281.807 198.283 281.192 199.427 280.181C200.571 279.169 201.358 277.815 201.671 276.319C201.984 274.823 201.806 273.266 201.163 271.879C200.521 270.493 199.448 269.352 198.105 268.626V268.626Z" fill="#FFB8B8"/>
<path d="M182.995 217.578C190.557 218.311 195.988 215.182 199.663 208.869L197.126 197.239C197.126 193.455 195.922 189.77 193.689 186.718C191.455 183.666 188.308 181.406 184.705 180.267L183.357 179.841L182.995 217.578Z" fill="#E6E6E6"/>
<path d="M119.914 201.446C119.815 201.446 119.716 201.436 119.619 201.415L105.63 201.179L105.599 200.83L105.6 200.815L106.761 171.952C106.774 171.657 106.844 171.367 106.969 171.1C107.094 170.833 107.27 170.592 107.487 170.393C107.705 170.194 107.959 170.039 108.237 169.939C108.514 169.838 108.808 169.793 109.102 169.806L120.307 170.306C120.601 170.319 120.89 170.391 121.157 170.515C121.424 170.64 121.664 170.817 121.863 171.035C122.062 171.252 122.216 171.507 122.316 171.784C122.417 172.062 122.462 172.356 122.449 172.651L121.346 200.067C121.331 200.437 121.174 200.788 120.907 201.045C120.64 201.302 120.284 201.445 119.914 201.446L119.914 201.446Z" fill="#6C63FF"/>
<path d="M118.39 201.466C118.354 201.466 118.318 201.465 118.282 201.464L107.298 200.974C106.675 200.945 106.088 200.67 105.667 200.209C105.245 199.747 105.024 199.138 105.051 198.513L106.224 172.159C106.252 171.563 106.513 171.004 106.952 170.601C107.391 170.199 107.972 169.988 108.566 170.014L119.771 170.514C120.365 170.541 120.924 170.804 121.326 171.243C121.727 171.683 121.938 172.264 121.912 172.859L120.739 199.214C120.712 199.82 120.453 200.392 120.015 200.812C119.578 201.231 118.995 201.466 118.39 201.466V201.466Z" fill="#2F2E41"/>
<path d="M113.472 178.504C114.358 178.504 115.076 177.785 115.076 176.898C115.076 176.01 114.358 175.291 113.472 175.291C112.586 175.291 111.868 176.01 111.868 176.898C111.868 177.785 112.586 178.504 113.472 178.504Z" fill="#6C63FF"/>
<path d="M126.806 208.617V219.211L116.587 203.085C117.313 201.841 117.618 200.395 117.457 198.963C117.296 197.531 116.677 196.19 115.692 195.139C114.707 194.089 113.409 193.385 111.993 193.133C110.576 192.882 109.116 193.096 107.83 193.743C106.545 194.39 105.502 195.436 104.859 196.725C104.216 198.014 104.006 199.477 104.261 200.895C104.515 202.313 105.221 203.611 106.273 204.594C107.324 205.578 108.665 206.195 110.096 206.353L124.382 231.702C125.127 233.023 126.274 234.073 127.656 234.696C129.037 235.32 130.582 235.485 132.064 235.169C133.547 234.852 134.89 234.07 135.897 232.936C136.904 231.802 137.524 230.375 137.666 228.864L139.433 209.984L126.806 208.617Z" fill="#FFB8B8"/>
<path d="M140.798 216.819C133.676 217.509 128.561 214.563 125.1 208.617L127.489 197.664C127.489 194.1 128.623 190.629 130.727 187.755C132.83 184.881 135.794 182.753 139.187 181.68L140.457 181.278L140.798 216.819Z" fill="#E6E6E6"/>
<path d="M157.31 406.649L149.517 405.382L150.686 374.683L162.187 376.551L157.31 406.649Z" fill="#FFB6B6"/>
<path d="M159.06 412.548L133.606 412.573L133.606 412.251C133.603 409.62 134.644 407.095 136.5 405.233C138.356 403.37 140.875 402.322 143.503 402.319H143.503L159.05 402.304L159.06 412.548Z" fill="#2F2E41"/>
<path d="M194.547 388.772L187.499 392.333L170.43 366.805L180.832 361.55L194.547 388.772Z" fill="#FFB6B6"/>
<path d="M199.792 394.705L177.067 406.187L176.922 405.899C175.738 403.55 175.535 400.826 176.357 398.327C177.178 395.828 178.958 393.758 181.304 392.572L181.304 392.572L195.184 385.559L199.792 394.705Z" fill="#2F2E41"/>
<path d="M162.929 170.993C170.582 170.993 176.786 164.78 176.786 157.116C176.786 149.453 170.582 143.24 162.929 143.24C155.276 143.24 149.072 149.453 149.072 157.116C149.072 164.78 155.276 170.993 162.929 170.993Z" fill="#FFB8B8"/>
<path d="M180.108 143.129L167.542 136.537L150.189 139.234L146.598 155.113C164.321 157.665 176.587 159.129 180.706 154.814L180.108 143.129Z" fill="#2F2E41"/>
<path d="M140.58 243.885C140.58 243.885 130.017 265.519 141.721 297.533L174.048 380.079L189.503 370.931L173.75 335.393L186.564 291.893C189.515 282.035 190.424 271.677 189.237 261.455C188.314 253.805 186.17 246.026 181.508 242.104C170.538 232.877 140.58 243.885 140.58 243.885Z" fill="#2F2E41"/>
<path d="M158.252 329.108L146.532 388.609L162.14 391.556L171.959 340.053L158.252 329.108Z" fill="#2F2E41"/>
<path d="M173.149 177.768L155.234 178.007L139.551 181.619L140.48 244.521C140.48 244.521 168.835 252.555 181.289 241.445L189.503 182.572C184.894 179.963 179.359 178.461 173.149 177.768Z" fill="#E4E4E4"/>
<path d="M171.563 142.914C176.465 142.914 180.439 138.934 180.439 134.025C180.439 129.117 176.465 125.137 171.563 125.137C166.661 125.137 162.687 129.117 162.687 134.025C162.687 138.934 166.661 142.914 171.563 142.914Z" fill="#2F2E41"/>
<path d="M162.687 131.974C162.686 130.66 162.977 129.362 163.538 128.173C164.099 126.985 164.916 125.936 165.931 125.102C166.946 124.268 168.133 123.67 169.406 123.351C170.68 123.033 172.008 123.001 173.296 123.258C172.159 122.721 170.922 122.432 169.666 122.41C168.409 122.388 167.163 122.634 166.008 123.13C164.854 123.627 163.818 124.364 162.969 125.291C162.12 126.219 161.478 127.317 161.085 128.512C160.691 129.707 160.556 130.972 160.687 132.223C160.819 133.474 161.214 134.683 161.848 135.77C162.481 136.857 163.337 137.797 164.36 138.527C165.383 139.258 166.55 139.762 167.782 140.007C166.259 139.29 164.972 138.154 164.07 136.732C163.167 135.31 162.688 133.659 162.687 131.974V131.974Z" fill="#2F2E41"/>
</g>
<defs>
<clipPath id="clip0">
<rect width="578" height="413" fill="white"/>
</clipPath>
</defs>
</svg>
