<svg width="374" height="350" viewBox="0 0 374 350" fill="none" xmlns="http://www.w3.org/2000/svg">
<g clip-path="url(#clip0)">
<path d="M297.878 248.67C297.878 248.67 344.147 251.064 333.369 265.638C322.592 280.213 294.274 257.089 294.274 257.089L297.878 248.67Z" fill="#FFB8B8"/>
<path d="M212.612 109.852L222.03 112.208C222.03 112.208 227.524 128.699 231.448 143.62C235.372 158.541 243.22 203.303 243.22 203.303L304.064 245.971L296.807 262.215L215.752 230.249L197.701 159.326L212.612 109.852Z" fill="#6348B3"/>
<path opacity="0.2" d="M221.473 139.124L217.963 212.676L225.288 234.543L203.832 218.799L221.473 139.124Z" fill="black"/>
<path d="M234.195 269.661C234.195 269.661 244.397 297.146 245.967 315.993C247.537 334.841 249.106 349.761 249.106 349.761H201.232L191.815 335.626V349.761H136.093C136.093 349.761 120.397 298.717 126.675 292.434C132.954 286.152 192.599 259.452 192.599 259.452L234.195 269.661Z" fill="#2F2E41"/>
<path d="M325.415 349.046H48.395V350H325.415V349.046Z" fill="#3F3D56"/>
<path d="M174.156 80.0103C190.627 80.0103 203.979 66.6498 203.979 50.1689C203.979 33.6879 190.627 20.3274 174.156 20.3274C157.685 20.3274 144.333 33.6879 144.333 50.1689C144.333 66.6498 157.685 80.0103 174.156 80.0103Z" fill="#FFB8B8"/>
<path d="M151.396 62.7336L149.042 97.2869L178.865 137.337L193.776 99.6428C193.776 99.6428 180.435 91.0045 188.283 72.9426L151.396 62.7336Z" fill="#FFB8B8"/>
<path d="M238.509 276.335C238.509 283.406 218.889 294.398 218.889 294.398V298.324L211.041 302.251L193.776 267.7L189.07 305.39C189.07 305.39 154.535 310.891 143.55 305.39C132.56 299.894 127.067 302.251 111.371 296.755C95.6744 291.259 117.65 217.438 117.65 217.438L101.954 103.569L136.245 86.4131L138.052 85.5067L142.768 84.6384L149.996 83.3025L174.156 99.643L176.101 109.853L177.298 116.136L183.572 109.066L188.312 93.4694L222.031 112.21L212.614 187.595C212.614 187.595 238.509 269.269 238.509 276.335Z" fill="#6348B3"/>
<path d="M123.143 300.68C123.143 300.68 159.245 329.736 141.979 335.233C124.713 340.73 115.295 305.392 115.295 305.392L123.143 300.68Z" fill="#FFB8B8"/>
<path d="M109.802 105.14L101.953 103.569C101.953 103.569 90.1812 109.852 89.3963 122.417C88.6115 134.981 78.4089 222.935 78.4089 222.935L111.371 311.674L138.055 301.465L112.156 218.223L131.776 145.976L109.802 105.14Z" fill="#6348B3"/>
<path d="M177.608 129.105C179.188 129.105 180.468 127.823 180.468 126.242C180.468 124.662 179.188 123.38 177.608 123.38C176.028 123.38 174.747 124.662 174.747 126.242C174.747 127.823 176.028 129.105 177.608 129.105Z" fill="#2F2E41"/>
<path d="M177.608 147.712C179.188 147.712 180.468 146.43 180.468 144.849C180.468 143.268 179.188 141.987 177.608 141.987C176.028 141.987 174.747 143.268 174.747 144.849C174.747 146.43 176.028 147.712 177.608 147.712Z" fill="#2F2E41"/>
<path d="M193.819 270.325C195.399 270.325 196.68 269.043 196.68 267.463C196.68 265.882 195.399 264.6 193.819 264.6C192.239 264.6 190.958 265.882 190.958 267.463C190.958 269.043 192.239 270.325 193.819 270.325Z" fill="#2F2E41"/>
<path d="M148.977 19.5976L143.464 17.3892C143.464 17.3892 154.991 4.69069 171.029 5.79494L166.518 0.825931C166.518 0.825931 177.544 -3.5909 187.567 8.00335C192.837 14.0982 198.933 21.2623 202.734 29.3327H208.638L206.174 34.7617L214.798 40.1908L205.946 39.2156C206.473 42.1886 206.554 45.2237 206.186 48.2206C205.806 51.2185 204.277 53.9514 201.922 55.8427V55.8427C201.922 55.8427 195.085 41.6819 195.085 39.4735V44.9946C195.085 44.9946 189.572 40.0256 189.572 36.713L186.565 40.5777H166.518L169.525 35.6088L157.998 37.2651L162.509 31.1918L144.662 56.2703C144.662 56.2703 134.443 27.8792 148.977 19.5976Z" fill="#2F2E41"/>
<path d="M326.32 230.697C352.653 230.697 374 209.337 374 182.987C374 156.638 352.653 135.278 326.32 135.278C299.987 135.278 278.64 156.638 278.64 182.987C278.64 209.337 299.987 230.697 326.32 230.697Z" fill="#3F3D56"/>
<path opacity="0.1" d="M326.32 224.018C348.966 224.018 367.325 205.648 367.325 182.987C367.325 160.327 348.966 141.957 326.32 141.957C303.674 141.957 285.315 160.327 285.315 182.987C285.315 205.648 303.674 224.018 326.32 224.018Z" fill="black"/>
<path d="M324.355 207.199V201.227C321.338 201.168 318.217 200.104 316.397 198.625L317.645 194.664C319.809 196.286 322.432 197.177 325.135 197.206C328.829 197.206 331.325 194.782 331.325 191.412C331.325 188.16 329.297 186.15 325.448 184.376C320.142 182.011 316.865 179.291 316.865 174.147C316.865 169.239 319.934 165.514 324.719 164.627V158.656H327.944V164.391C330.349 164.424 332.695 165.142 334.706 166.46L333.406 170.363C331.476 169.041 329.19 168.34 326.852 168.352C322.847 168.352 321.338 171.072 321.338 173.437C321.338 176.512 323.263 178.049 327.788 180.178C333.146 182.661 335.851 185.736 335.851 190.998C335.851 195.669 332.99 200.045 327.632 201.049V207.199H324.355Z" fill="#6348B3"/>
<path opacity="0.2" d="M119.202 240.871L138.272 300.476L123.014 238.454L119.202 240.871Z" fill="black"/>
<path d="M21.9773 124.428H9.8729C9.34534 124.427 8.83956 124.217 8.46652 123.844C8.09348 123.471 7.88364 122.965 7.88306 122.437V105.026C7.88364 104.498 8.09348 103.992 8.46652 103.619C8.83956 103.246 9.34534 103.036 9.8729 103.035H21.9773C22.5048 103.036 23.0106 103.246 23.3837 103.619C23.7567 103.992 23.9665 104.498 23.9671 105.026V122.437C23.9665 122.965 23.7567 123.471 23.3837 123.844C23.0106 124.217 22.5048 124.427 21.9773 124.428V124.428ZM9.8729 103.989C9.59817 103.99 9.33479 104.099 9.14053 104.293C8.94627 104.488 8.83699 104.751 8.83665 105.026V122.437C8.83699 122.712 8.94627 122.975 9.14053 123.17C9.33479 123.364 9.59817 123.473 9.8729 123.474H21.9773C22.252 123.473 22.5154 123.364 22.7096 123.17C22.9039 122.975 23.0132 122.712 23.0135 122.437V105.026C23.0132 104.751 22.9039 104.488 22.7096 104.293C22.5154 104.099 22.252 103.99 21.9773 103.989H9.8729Z" fill="#3F3D56"/>
<path d="M44.0861 124.428H33.1551C32.4721 124.427 31.8172 124.155 31.3341 123.672C30.8511 123.189 30.5794 122.533 30.5786 121.85V86.6882C30.5794 86.0047 30.8511 85.3494 31.3341 84.8661C31.8172 84.3828 32.4721 84.1109 33.1551 84.1101H44.0861C44.7692 84.1109 45.4241 84.3828 45.9071 84.8661C46.3902 85.3494 46.6619 86.0047 46.6627 86.6882V121.85C46.6619 122.533 46.3902 123.189 45.9071 123.672C45.4241 124.155 44.7692 124.427 44.0861 124.428V124.428ZM33.1551 85.0643C32.7249 85.0648 32.3123 85.236 32.0081 85.5404C31.7038 85.8449 31.5327 86.2577 31.5322 86.6882V121.85C31.5327 122.28 31.7038 122.693 32.0081 122.998C32.3123 123.302 32.7249 123.473 33.1551 123.474H44.0861C44.5164 123.473 44.9289 123.302 45.2332 122.998C45.5375 122.693 45.7086 122.28 45.7091 121.85V86.6882C45.7086 86.2577 45.5375 85.8449 45.2332 85.5405C44.9289 85.236 44.5164 85.0648 44.0861 85.0643L33.1551 85.0643Z" fill="#3F3D56"/>
<path d="M66.3598 124.428H56.273C55.478 124.427 54.7158 124.111 54.1537 123.548C53.5915 122.986 53.2753 122.223 53.2744 121.427V69.6999C53.2753 68.9044 53.5915 68.1418 54.1537 67.5793C54.7158 67.0168 55.478 66.7004 56.273 66.6995H66.3598C67.1549 66.7004 67.917 67.0168 68.4792 67.5793C69.0413 68.1418 69.3576 68.9044 69.3585 69.6999V121.427C69.3576 122.223 69.0413 122.986 68.4792 123.548C67.917 124.111 67.1549 124.427 66.3598 124.428V124.428ZM56.273 67.6537C55.7308 67.6543 55.211 67.8701 54.8277 68.2537C54.4443 68.6373 54.2286 69.1574 54.228 69.6999V121.427C54.2286 121.97 54.4443 122.49 54.8277 122.874C55.211 123.257 55.7308 123.473 56.273 123.474H66.3598C66.902 123.473 67.4218 123.257 67.8052 122.874C68.1886 122.49 68.4043 121.97 68.4049 121.427V69.6999C68.4043 69.1574 68.1886 68.6373 67.8052 68.2537C67.4218 67.8701 66.902 67.6543 66.3598 67.6537H56.273Z" fill="#3F3D56"/>
<path d="M20.4642 106.351H11.386V121.112H20.4642V106.351Z" fill="#6348B3"/>
<path d="M43.1598 87.6152H34.0815V121.112H43.1598V87.6152Z" fill="#6348B3"/>
<path d="M65.8553 70.2046H56.7771V121.112H65.8553V70.2046Z" fill="#6348B3"/>
<path d="M344.726 69.562H281.312C281.249 69.562 281.187 69.5496 281.129 69.5257C281.071 69.5017 281.019 69.4666 280.974 69.4223C280.93 69.378 280.895 69.3253 280.871 69.2675C280.847 69.2096 280.835 69.1475 280.835 69.0849V4.67705C280.835 4.55051 280.885 4.42916 280.974 4.33969C281.064 4.25022 281.185 4.19995 281.312 4.19995C281.438 4.19995 281.559 4.25022 281.649 4.33969C281.738 4.42916 281.788 4.55051 281.788 4.67705V68.6078H344.726C344.852 68.6078 344.974 68.658 345.063 68.7475C345.152 68.837 345.203 68.9583 345.203 69.0849C345.203 69.2114 345.152 69.3327 345.063 69.4222C344.974 69.5117 344.852 69.562 344.726 69.562Z" fill="#3F3D56"/>
<path d="M75.811 131.107H0.476799C0.41418 131.107 0.352173 131.095 0.294318 131.071C0.236463 131.047 0.183893 131.012 0.139614 130.968C0.0953363 130.923 0.0602161 130.871 0.0362605 130.813C0.0123049 130.755 -1.62711e-05 130.693 1.61263e-08 130.63V55.7264C1.61263e-08 55.5998 0.0502337 55.4785 0.139651 55.389C0.229068 55.2995 0.350344 55.2493 0.476799 55.2493C0.603254 55.2493 0.72453 55.2995 0.813947 55.389C0.903364 55.4785 0.953598 55.5998 0.953598 55.7264V130.153H75.811C75.9375 130.153 76.0588 130.203 76.1482 130.293C76.2376 130.382 76.2878 130.504 76.2878 130.63C76.2878 130.757 76.2376 130.878 76.1482 130.968C76.0588 131.057 75.9375 131.107 75.811 131.107Z" fill="#3F3D56"/>
<path d="M303.196 63.5828H291.091C290.564 63.5823 290.058 63.3723 289.685 62.9991C289.312 62.6258 289.102 62.1197 289.101 61.5917V44.181C289.102 43.6531 289.312 43.147 289.685 42.7737C290.058 42.4004 290.564 42.1905 291.091 42.1899H303.196C303.723 42.1906 304.229 42.4006 304.602 42.7738C304.975 43.1471 305.185 43.6532 305.185 44.181V61.5918C305.185 62.1196 304.975 62.6257 304.602 62.9989C304.229 63.3722 303.723 63.5822 303.196 63.5828ZM291.091 43.1441C290.817 43.1445 290.553 43.2538 290.359 43.4482C290.165 43.6426 290.055 43.9061 290.055 44.181V61.5918C290.055 61.8667 290.165 62.1302 290.359 62.3246C290.553 62.519 290.817 62.6283 291.091 62.6286H303.196C303.47 62.6283 303.734 62.5189 303.928 62.3245C304.122 62.1302 304.231 61.8666 304.232 61.5918V44.181C304.231 43.9061 304.122 43.6426 303.928 43.4482C303.734 43.2538 303.47 43.1445 303.196 43.1441H291.091Z" fill="#3F3D56"/>
<path d="M327.984 63.5827H316.843C316.188 63.582 315.56 63.3211 315.096 62.8575C314.633 62.3938 314.372 61.7651 314.372 61.1094V29.5737C314.372 28.918 314.633 28.2894 315.096 27.8257C315.56 27.3621 316.188 27.1013 316.843 27.1006H327.984C328.639 27.1013 329.268 27.3621 329.731 27.8257C330.194 28.2894 330.455 28.918 330.456 29.5737V61.1094C330.455 61.7651 330.194 62.3938 329.731 62.8575C329.268 63.3211 328.639 63.582 327.984 63.5827V63.5827ZM316.843 28.0548C316.441 28.0552 316.055 28.2154 315.77 28.5001C315.486 28.7849 315.326 29.171 315.325 29.5737V61.1094C315.326 61.5122 315.486 61.8983 315.77 62.1831C316.055 62.4679 316.441 62.6281 316.843 62.6286H327.984C328.387 62.6281 328.772 62.4679 329.057 62.1831C329.342 61.8983 329.502 61.5122 329.502 61.1094V29.5737C329.502 29.171 329.342 28.7849 329.057 28.5001C328.772 28.2154 328.387 28.0552 327.984 28.0548H316.843Z" fill="#3F3D56"/>
<path d="M301.465 45.6709H292.386V60.4322H301.465V45.6709Z" fill="#6348B3"/>
<path d="M326.953 31.0613H317.875V59.622H326.953V31.0613Z" fill="#6348B3"/>
<path d="M297.046 37.1197C299.416 37.1197 301.337 35.1973 301.337 32.8258C301.337 30.4544 299.416 28.532 297.046 28.532C294.676 28.532 292.755 30.4544 292.755 32.8258C292.755 35.1973 294.676 37.1197 297.046 37.1197Z" fill="#6348B3"/>
<path d="M322.316 20.8983C324.686 20.8983 326.607 18.9758 326.607 16.6044C326.607 14.233 324.686 12.3105 322.316 12.3105C319.946 12.3105 318.025 14.233 318.025 16.6044C318.025 18.9758 319.946 20.8983 322.316 20.8983Z" fill="#6348B3"/>
</g>
<defs>
<clipPath id="clip0">
<rect width="374" height="350" fill="white"/>
</clipPath>
</defs>
</svg>
