<svg width="501" height="409" viewBox="0 0 501 409" fill="none" xmlns="http://www.w3.org/2000/svg">
<path d="M480.508 265.814C480.091 281.399 477.479 296.848 472.75 311.705C472.642 312.049 472.529 312.389 472.415 312.734H443.463C443.494 312.425 443.525 312.08 443.555 311.705C445.486 289.521 456.616 154.504 443.308 131.415C444.472 133.288 482.753 195.326 480.508 265.814Z" fill="black"/>
<path d="M478.336 311.705C478.094 312.049 477.842 312.394 477.584 312.734H455.865C456.029 312.441 456.22 312.096 456.441 311.705C460.029 305.231 470.65 285.878 480.508 265.814C491.103 244.253 500.822 221.874 500.004 213.774C500.256 215.601 507.587 271.289 478.336 311.705Z" fill="black"/>
<path d="M57.6918 43.7537C44.3841 66.8431 55.5142 201.86 57.4446 224.044C57.4755 224.419 57.5064 224.764 57.5373 225.073H28.5847C28.4714 224.728 28.3581 224.388 28.25 224.044C23.521 209.187 20.9093 193.738 20.4919 178.153C18.2475 107.665 56.5283 45.6267 57.6918 43.7537Z" fill="black"/>
<path d="M0.996199 126.113C0.177618 134.212 9.89717 156.592 20.4918 178.153C30.3504 198.216 40.9708 217.57 44.5589 224.044C44.7803 224.435 44.9707 224.779 45.1355 225.073H23.4159C23.1585 224.733 22.9063 224.388 22.6643 224.044C-6.58697 183.628 0.743874 127.94 0.996199 126.113Z" fill="black"/>
<path d="M497.12 25.3692H11.3735C11.1865 25.3692 11.0072 25.295 10.875 25.1628C10.7427 25.0307 10.6685 24.8514 10.6685 24.6645C10.6685 24.4776 10.7427 24.2984 10.875 24.1662C11.0072 24.0341 11.1865 23.9598 11.3735 23.9598H497.12C497.307 23.9598 497.486 24.0341 497.618 24.1662C497.751 24.2984 497.825 24.4776 497.825 24.6645C497.825 24.8514 497.751 25.0307 497.618 25.1628C497.486 25.295 497.307 25.3692 497.12 25.3692V25.3692Z" fill="black"/>
<path d="M27.2418 15.5034C31.5248 15.5034 34.9969 12.0329 34.9969 7.75171C34.9969 3.47056 31.5248 0 27.2418 0C22.9589 0 19.4868 3.47056 19.4868 7.75171C19.4868 12.0329 22.9589 15.5034 27.2418 15.5034Z" fill="#3F3D56"/>
<path d="M54.0319 15.5034C58.3149 15.5034 61.7869 12.0329 61.7869 7.75171C61.7869 3.47056 58.3149 0 54.0319 0C49.7489 0 46.2769 3.47056 46.2769 7.75171C46.2769 12.0329 49.7489 15.5034 54.0319 15.5034Z" fill="#3F3D56"/>
<path d="M80.8219 15.5034C85.1049 15.5034 88.5769 12.0329 88.5769 7.75171C88.5769 3.47056 85.1049 0 80.8219 0C76.5389 0 73.0669 3.47056 73.0669 7.75171C73.0669 12.0329 76.5389 15.5034 80.8219 15.5034Z" fill="#3F3D56"/>
<path d="M481.069 4.74141H462.034C461.848 4.74184 461.665 4.7057 461.493 4.63507C461.322 4.56443 461.166 4.46068 461.035 4.32977C460.903 4.19885 460.799 4.04333 460.728 3.87212C460.657 3.70091 460.621 3.51737 460.621 3.33201C460.621 3.14665 460.657 2.9631 460.728 2.79189C460.799 2.62068 460.903 2.46516 461.035 2.33424C461.166 2.20332 461.322 2.09957 461.493 2.02894C461.665 1.9583 461.848 1.92218 462.034 1.92261H481.069C481.254 1.92218 481.438 1.9583 481.61 2.02894C481.781 2.09957 481.937 2.20332 482.068 2.33424C482.199 2.46516 482.304 2.62068 482.375 2.79189C482.446 2.9631 482.482 3.14665 482.482 3.33201C482.482 3.51737 482.446 3.70091 482.375 3.87212C482.304 4.04333 482.199 4.19885 482.068 4.32977C481.937 4.46068 481.781 4.56443 481.61 4.63507C481.438 4.7057 481.254 4.74184 481.069 4.74141V4.74141Z" fill="#3F3D56"/>
<path d="M481.069 10.0267H462.034C461.848 10.0271 461.665 9.99099 461.493 9.92036C461.322 9.84972 461.166 9.74597 461.035 9.61506C460.903 9.48414 460.799 9.32862 460.728 9.15741C460.657 8.9862 460.621 8.80266 460.621 8.6173C460.621 8.43194 460.657 8.24839 460.728 8.07718C460.799 7.90597 460.903 7.75045 461.035 7.61953C461.166 7.48861 461.322 7.38486 461.493 7.31423C461.665 7.24359 461.848 7.20746 462.034 7.20789H481.069C481.254 7.20746 481.438 7.24359 481.61 7.31423C481.781 7.38486 481.937 7.48861 482.068 7.61953C482.199 7.75045 482.304 7.90597 482.375 8.07718C482.446 8.24839 482.482 8.43194 482.482 8.6173C482.482 8.80266 482.446 8.9862 482.375 9.15741C482.304 9.32862 482.199 9.48414 482.068 9.61506C481.937 9.74597 481.781 9.84972 481.61 9.92036C481.438 9.99099 481.254 10.0271 481.069 10.0267V10.0267Z" fill="#3F3D56"/>
<path d="M481.069 15.312H462.034C461.848 15.3124 461.665 15.2763 461.493 15.2056C461.322 15.135 461.166 15.0313 461.035 14.9003C460.903 14.7694 460.799 14.6139 460.728 14.4427C460.657 14.2715 460.621 14.0879 460.621 13.9026C460.621 13.7172 460.657 13.5337 460.728 13.3624C460.799 13.1912 460.903 13.0357 461.035 12.9048C461.166 12.7739 461.322 12.6701 461.493 12.5995C461.665 12.5289 461.848 12.4927 462.034 12.4932H481.069C481.254 12.4927 481.438 12.5289 481.61 12.5995C481.781 12.6701 481.937 12.7739 482.068 12.9048C482.199 13.0357 482.304 13.1912 482.375 13.3624C482.446 13.5337 482.482 13.7172 482.482 13.9026C482.482 14.0879 482.446 14.2715 482.375 14.4427C482.304 14.6139 482.199 14.7694 482.068 14.9003C481.937 15.0313 481.781 15.135 481.61 15.2056C481.438 15.2763 481.254 15.3124 481.069 15.312V15.312Z" fill="#3F3D56"/>
<path d="M472.275 312.119H289.185C287.758 312.118 286.389 311.55 285.379 310.541C284.37 309.532 283.802 308.164 283.8 306.736V68.36C283.802 66.9329 284.37 65.5647 285.379 64.5556C286.389 63.5465 287.758 62.9789 289.185 62.9773H472.275C473.703 62.9789 475.072 63.5465 476.081 64.5556C477.091 65.5647 477.659 66.9329 477.66 68.36V306.736C477.659 308.164 477.091 309.532 476.081 310.541C475.072 311.55 473.703 312.118 472.275 312.119V312.119ZM289.185 64.5152C288.166 64.5164 287.188 64.9219 286.467 65.6427C285.746 66.3634 285.34 67.3407 285.339 68.36V306.736C285.34 307.756 285.746 308.733 286.467 309.454C287.188 310.175 288.166 310.58 289.185 310.581H472.275C473.295 310.58 474.273 310.175 474.994 309.454C475.715 308.733 476.12 307.756 476.122 306.736V68.36C476.12 67.3407 475.715 66.3634 474.994 65.6427C474.273 64.9219 473.295 64.5164 472.275 64.5152H289.185Z" fill="black"/>
<path d="M416.281 167.401H338.583C337.156 167.399 335.787 166.832 334.777 165.823C333.768 164.814 333.2 163.445 333.198 162.018V101.271C333.2 99.8437 333.768 98.4755 334.777 97.4664C335.787 96.4573 337.156 95.8897 338.583 95.8881H416.281C417.709 95.8897 419.077 96.4573 420.087 97.4664C421.097 98.4755 421.664 99.8437 421.666 101.271V162.018C421.664 163.445 421.096 164.814 420.087 165.823C419.077 166.832 417.709 167.399 416.281 167.401V167.401Z" fill="black"/>
<path d="M416.117 269.058H338.42C336.992 269.056 335.623 268.488 334.614 267.479C333.604 266.47 333.036 265.102 333.035 263.675V202.927C333.036 201.5 333.604 200.132 334.614 199.123C335.623 198.114 336.992 197.546 338.42 197.545H416.117C417.545 197.546 418.914 198.114 419.923 199.123C420.933 200.132 421.501 201.5 421.502 202.927V263.675C421.501 265.102 420.933 266.47 419.923 267.479C418.914 268.488 417.545 269.056 416.117 269.058V269.058ZM338.42 199.083C337.4 199.084 336.422 199.489 335.701 200.21C334.98 200.931 334.574 201.908 334.573 202.927V263.675C334.574 264.694 334.98 265.671 335.701 266.392C336.422 267.113 337.4 267.519 338.42 267.52H416.117C417.137 267.519 418.115 267.113 418.836 266.392C419.557 265.671 419.963 264.694 419.964 263.675V202.927C419.963 201.908 419.557 200.931 418.836 200.21C418.115 199.489 417.137 199.084 416.117 199.083H338.42Z" fill="#3F3D56"/>
<path d="M437.657 285.975H359.96C358.532 285.973 357.163 285.405 356.154 284.396C355.144 283.387 354.576 282.019 354.575 280.592V219.844C354.576 218.417 355.144 217.049 356.154 216.04C357.163 215.031 358.532 214.463 359.96 214.462H437.657C439.085 214.463 440.454 215.031 441.463 216.04C442.473 217.049 443.041 218.417 443.042 219.844V280.592C443.041 282.019 442.473 283.387 441.463 284.396C440.454 285.405 439.085 285.973 437.657 285.975V285.975Z" fill="#00AB5F"/>
<path d="M407.525 268.188H368.519C368.47 268.189 368.421 268.185 368.373 268.177L386.821 236.235C386.934 236.036 387.097 235.871 387.295 235.755C387.492 235.64 387.717 235.58 387.946 235.58C388.174 235.58 388.399 235.64 388.596 235.755C388.794 235.871 388.957 236.036 389.07 236.235L401.451 257.67L402.044 258.696L407.525 268.188Z" fill="black"/>
<path opacity="0.2" d="M407.525 268.188H394.208L400.745 258.696L401.216 258.013L401.451 257.67L402.044 258.696L407.525 268.188Z" fill="black"/>
<path d="M429.244 268.188H395.506L402.044 258.696L402.515 258.012L411.034 245.642C411.184 245.453 411.373 245.298 411.588 245.186C411.802 245.075 412.038 245.01 412.279 244.996C412.52 244.981 412.762 245.018 412.988 245.103C413.215 245.188 413.42 245.319 413.592 245.489C413.637 245.537 413.678 245.588 413.715 245.642L429.244 268.188Z" fill="black"/>
<path d="M427.664 236.111C430.856 236.111 433.443 233.525 433.443 230.335C433.443 227.145 430.856 224.559 427.664 224.559C424.473 224.559 421.886 227.145 421.886 230.335C421.886 233.525 424.473 236.111 427.664 236.111Z" fill="black"/>
<path d="M209.667 312.05H26.5774C25.1497 312.048 23.781 311.48 22.7715 310.471C21.7619 309.462 21.194 308.094 21.1924 306.667V245.919C21.194 244.492 21.7619 243.124 22.7715 242.115C23.781 241.106 25.1497 240.538 26.5774 240.537H209.667C211.095 240.538 212.464 241.106 213.473 242.115C214.483 243.124 215.051 244.492 215.052 245.919V306.667C215.051 308.094 214.483 309.462 213.473 310.471C212.464 311.48 211.095 312.048 209.667 312.05V312.05Z" fill="black"/>
<path d="M208.898 225.158H25.8083C24.3807 225.156 23.0119 224.588 22.0024 223.579C20.9929 222.57 20.425 221.202 20.4233 219.775V71.3662C20.4249 69.9391 20.9928 68.5709 22.0023 67.5618C23.0119 66.5527 24.3806 65.9851 25.8083 65.9835H208.898C210.326 65.9852 211.695 66.5528 212.704 67.5619C213.714 68.571 214.282 69.9391 214.283 71.3662V219.775C214.281 221.202 213.714 222.57 212.704 223.579C211.695 224.588 210.326 225.156 208.898 225.158V225.158ZM25.8083 67.5214C24.7886 67.5226 23.8109 67.9281 23.0898 68.6489C22.3687 69.3696 21.9631 70.3469 21.9619 71.3662V219.775C21.9631 220.794 22.3687 221.771 23.0898 222.492C23.8109 223.213 24.7886 223.618 25.8083 223.62H208.898C209.918 223.618 210.896 223.213 211.617 222.492C212.338 221.771 212.743 220.794 212.745 219.775V71.3662C212.743 70.3469 212.338 69.3696 211.617 68.6489C210.896 67.9281 209.918 67.5226 208.898 67.5214H25.8083Z" fill="#3F3D56"/>
<path d="M238.9 252.071H55.8103C54.3826 252.069 53.0139 251.502 52.0044 250.492C50.9949 249.483 50.427 248.115 50.4253 246.688V98.2797C50.427 96.8526 50.9948 95.4845 52.0044 94.4754C53.0139 93.4663 54.3826 92.8986 55.8103 92.897H238.9C240.328 92.8986 241.697 93.4663 242.706 94.4754C243.716 95.4845 244.283 96.8526 244.285 98.2797V246.688C244.283 248.115 243.716 249.483 242.706 250.492C241.697 251.502 240.328 252.069 238.9 252.071V252.071Z" fill="#00AB5F"/>
<path d="M168.243 215.545H74.7711C74.6541 215.547 74.5372 215.538 74.4219 215.518L118.63 138.976C118.9 138.499 119.291 138.102 119.765 137.826C120.238 137.551 120.776 137.405 121.324 137.405C121.872 137.405 122.41 137.551 122.883 137.826C123.357 138.102 123.748 138.499 124.018 138.976L153.687 190.341L155.109 192.799L168.243 215.545Z" fill="black"/>
<path opacity="0.2" d="M168.243 215.545H136.33L151.996 192.799L153.124 191.16L153.688 190.341L155.109 192.799L168.243 215.545Z" fill="black"/>
<path d="M220.288 215.545H139.442L155.109 192.799L156.236 191.161L176.651 161.518C177.012 161.065 177.464 160.693 177.978 160.426C178.492 160.16 179.057 160.004 179.635 159.969C180.213 159.935 180.792 160.022 181.335 160.226C181.877 160.429 182.37 160.745 182.782 161.151C182.888 161.267 182.986 161.39 183.076 161.518L220.288 215.545Z" fill="black"/>
<path d="M214.745 137.112C222.392 137.112 228.592 130.915 228.592 123.271C228.592 115.626 222.392 109.429 214.745 109.429C207.097 109.429 200.897 115.626 200.897 123.271C200.897 130.915 207.097 137.112 214.745 137.112Z" fill="black"/>
<path d="M277.94 244.326C279.188 243.64 280.636 243.41 282.036 243.675L303.975 223.182L300.334 204.908L314.739 205.689L316.026 227.869L287.001 250.463C286.873 251.509 286.479 252.505 285.856 253.355C285.233 254.205 284.402 254.88 283.442 255.317C282.482 255.753 281.427 255.936 280.376 255.847C279.326 255.758 278.316 255.401 277.443 254.81C276.57 254.219 275.864 253.414 275.393 252.471C274.921 251.529 274.699 250.481 274.749 249.429C274.799 248.376 275.119 247.354 275.677 246.46C276.236 245.567 277.015 244.832 277.94 244.326L277.94 244.326Z" fill="#FFB8B8"/>
<path d="M253.714 398.586H244.283L239.796 362.223H253.716L253.714 398.586Z" fill="#FFB6B6"/>
<path d="M256.119 407.724L225.708 407.723V407.338C225.709 404.2 226.956 401.191 229.176 398.972C231.395 396.754 234.406 395.507 237.545 395.507H237.546L256.12 395.508L256.119 407.724Z" fill="#2F2E41"/>
<path d="M324.488 398.586H315.057L310.57 362.223H324.49L324.488 398.586Z" fill="#FFB6B6"/>
<path d="M326.893 407.724L296.483 407.723V407.338C296.483 404.2 297.73 401.191 299.95 398.972C302.17 396.754 305.18 395.507 308.32 395.507H308.32L326.894 395.508L326.893 407.724Z" fill="#2F2E41"/>
<path d="M307.287 194.147C306.149 192.71 304.534 191.727 302.734 191.376C300.934 191.025 299.068 191.328 297.472 192.232V192.232C295.895 193.125 294.684 194.547 294.054 196.247C293.424 197.946 293.415 199.813 294.03 201.518L298.654 214.359L317.597 207.164L307.287 194.147Z" fill="#6C63FF"/>
<path d="M305.587 250.856C304.724 250.21 303.798 249.654 302.821 249.198L268.346 254.5L269.104 276.085C252.429 307.545 241.403 343.434 235.386 383.254L256.981 388.177C266.643 350.76 277.618 317.184 291.456 291.99L306.042 387.266L330.856 386.662C327.588 330.652 325.067 265.356 305.587 250.856Z" fill="#2F2E41"/>
<path d="M279.855 188.722C287.276 188.722 293.293 182.709 293.293 175.29C293.293 167.872 287.276 161.859 279.855 161.859C272.434 161.859 266.417 167.872 266.417 175.29C266.417 182.709 272.434 188.722 279.855 188.722Z" fill="#FFB8B8"/>
<path d="M309.405 209.806C310.02 206.091 309.416 202.278 307.683 198.935C305.95 195.592 303.181 192.899 299.791 191.259V191.259L284.637 192.017C282.17 192.655 279.882 193.848 277.945 195.504C276.009 197.16 274.477 199.236 273.464 201.573C266.896 216.939 265.96 236.586 268.725 259.044L304.619 250.51C299.696 239.43 303.653 224.961 309.405 209.806Z" fill="#6C63FF"/>
<path d="M263.193 172.015V172.015C263.193 170.197 263.552 168.397 264.247 166.718C264.943 165.039 265.963 163.513 267.249 162.227C268.535 160.942 270.061 159.923 271.741 159.227C273.421 158.531 275.222 158.173 277.04 158.173H277.835C280.342 156.18 283.452 155.096 286.657 155.098C290.431 155.098 294.051 156.596 296.72 159.264C299.389 161.932 300.888 165.55 300.888 169.323V187.394C291.687 187.165 281.265 188.978 270.117 192.008C272.927 184.227 274.794 177.075 273.518 172.015H263.193Z" fill="#2F2E41"/>
<path d="M234.73 234.3C236.154 234.298 237.535 234.792 238.634 235.697L267.727 228.264L273.318 210.489L285.576 218.093L276.042 238.162L239.726 244.035C239.111 244.891 238.287 245.575 237.331 246.021C236.376 246.467 235.323 246.66 234.271 246.582C233.22 246.504 232.206 246.157 231.328 245.575C230.449 244.992 229.735 244.194 229.254 243.256C228.773 242.319 228.541 241.273 228.58 240.22C228.619 239.167 228.929 238.142 229.478 237.243C230.028 236.344 230.8 235.601 231.719 235.086C232.639 234.57 233.676 234.3 234.73 234.3V234.3Z" fill="#FFB8B8"/>
<path d="M291.453 205.104C291.978 203.347 291.859 201.461 291.115 199.785C290.371 198.11 289.052 196.755 287.396 195.967V195.967C285.76 195.187 283.9 195.01 282.146 195.469C280.392 195.927 278.856 196.99 277.811 198.471L269.936 209.619L286.692 221.009L291.453 205.104Z" fill="#6C63FF"/>
<path d="M366.285 409H178.353C178.232 409 178.113 408.977 178.001 408.931C177.89 408.885 177.789 408.818 177.703 408.733C177.618 408.648 177.55 408.547 177.504 408.435C177.458 408.324 177.434 408.205 177.434 408.084C177.434 407.964 177.458 407.845 177.504 407.733C177.55 407.622 177.618 407.521 177.703 407.436C177.789 407.351 177.89 407.284 178.001 407.238C178.113 407.192 178.232 407.168 178.353 407.169H366.285C366.405 407.168 366.524 407.192 366.636 407.238C366.747 407.284 366.849 407.351 366.934 407.436C367.019 407.521 367.087 407.622 367.133 407.733C367.179 407.845 367.203 407.964 367.203 408.084C367.203 408.205 367.179 408.324 367.133 408.435C367.087 408.547 367.019 408.648 366.934 408.733C366.849 408.818 366.747 408.885 366.636 408.931C366.524 408.977 366.405 409 366.285 409V409Z" fill="black"/>
</svg>
