<svg width="501" height="409" viewBox="0 0 501 409" fill="none" xmlns="http://www.w3.org/2000/svg">
<path d="M480.508 265.814C480.091 281.399 477.479 296.848 472.75 311.705C472.642 312.049 472.529 312.389 472.415 312.734H443.463C443.494 312.425 443.525 312.08 443.556 311.705C445.486 289.521 456.616 154.504 443.308 131.415C444.472 133.288 482.753 195.326 480.508 265.814Z" fill="#F0F0F0"/>
<path d="M478.336 311.705C478.094 312.049 477.842 312.394 477.584 312.734H455.865C456.029 312.44 456.22 312.096 456.441 311.705C460.029 305.231 470.65 285.878 480.508 265.814C491.103 244.253 500.822 221.873 500.004 213.774C500.256 215.601 507.587 271.289 478.336 311.705Z" fill="#F0F0F0"/>
<path d="M57.6916 43.7537C44.384 66.8431 55.514 201.86 57.4445 224.044C57.4754 224.419 57.5063 224.764 57.5372 225.073H28.5846C28.4713 224.728 28.358 224.388 28.2499 224.044C23.5209 209.187 20.9092 193.738 20.4918 178.153C18.2473 107.665 56.5281 45.6267 57.6916 43.7537Z" fill="#F0F0F0"/>
<path d="M0.996199 126.113C0.177618 134.213 9.89717 156.592 20.4918 178.153C30.3504 198.217 40.9708 217.57 44.5589 224.044C44.7803 224.435 44.9707 224.779 45.1355 225.073H23.4159C23.1585 224.733 22.9063 224.388 22.6643 224.044C-6.58697 183.628 0.743874 127.94 0.996199 126.113Z" fill="#F0F0F0"/>
<path d="M497.12 25.3694H11.3737C11.1867 25.3694 11.0074 25.2951 10.8752 25.163C10.743 25.0308 10.6687 24.8516 10.6687 24.6647C10.6687 24.4778 10.743 24.2985 10.8752 24.1664C11.0074 24.0342 11.1867 23.96 11.3737 23.96H497.12C497.307 23.96 497.486 24.0342 497.619 24.1664C497.751 24.2985 497.825 24.4778 497.825 24.6647C497.825 24.8516 497.751 25.0308 497.619 25.163C497.486 25.2951 497.307 25.3694 497.12 25.3694Z" fill="#CACACA"/>
<path d="M27.2418 15.5034C31.5248 15.5034 34.9969 12.0329 34.9969 7.75171C34.9969 3.47056 31.5248 0 27.2418 0C22.9589 0 19.4868 3.47056 19.4868 7.75171C19.4868 12.0329 22.9589 15.5034 27.2418 15.5034Z" fill="#3F3D56"/>
<path d="M54.0319 15.5034C58.3149 15.5034 61.7869 12.0329 61.7869 7.75171C61.7869 3.47056 58.3149 0 54.0319 0C49.7489 0 46.2769 3.47056 46.2769 7.75171C46.2769 12.0329 49.7489 15.5034 54.0319 15.5034Z" fill="#3F3D56"/>
<path d="M80.8219 15.5034C85.1049 15.5034 88.5769 12.0329 88.5769 7.75171C88.5769 3.47056 85.1049 0 80.8219 0C76.5389 0 73.0669 3.47056 73.0669 7.75171C73.0669 12.0329 76.5389 15.5034 80.8219 15.5034Z" fill="#3F3D56"/>
<path d="M481.069 4.74141H462.034C461.848 4.74184 461.665 4.7057 461.493 4.63507C461.322 4.56443 461.166 4.46068 461.035 4.32977C460.903 4.19885 460.799 4.04333 460.728 3.87212C460.657 3.70091 460.62 3.51737 460.62 3.33201C460.62 3.14665 460.657 2.9631 460.728 2.79189C460.799 2.62068 460.903 2.46516 461.035 2.33424C461.166 2.20332 461.322 2.09957 461.493 2.02894C461.665 1.9583 461.848 1.92218 462.034 1.92261H481.069C481.254 1.92218 481.438 1.9583 481.609 2.02894C481.781 2.09957 481.937 2.20332 482.068 2.33424C482.199 2.46516 482.303 2.62068 482.375 2.79189C482.446 2.9631 482.482 3.14665 482.482 3.33201C482.482 3.51737 482.446 3.70091 482.375 3.87212C482.303 4.04333 482.199 4.19885 482.068 4.32977C481.937 4.46068 481.781 4.56443 481.609 4.63507C481.438 4.7057 481.254 4.74184 481.069 4.74141Z" fill="#3F3D56"/>
<path d="M481.069 10.0268H462.034C461.848 10.0273 461.665 9.99111 461.493 9.92048C461.322 9.84984 461.166 9.7461 461.035 9.61518C460.903 9.48426 460.799 9.32874 460.728 9.15753C460.657 8.98632 460.62 8.80278 460.62 8.61742C460.62 8.43206 460.657 8.24851 460.728 8.0773C460.799 7.90609 460.903 7.75057 461.035 7.61965C461.166 7.48873 461.322 7.38499 461.493 7.31435C461.665 7.24372 461.848 7.20758 462.034 7.20801H481.069C481.254 7.20758 481.438 7.24372 481.609 7.31435C481.781 7.38499 481.937 7.48873 482.068 7.61965C482.199 7.75057 482.303 7.90609 482.375 8.0773C482.446 8.24851 482.482 8.43206 482.482 8.61742C482.482 8.80278 482.446 8.98632 482.375 9.15753C482.303 9.32874 482.199 9.48426 482.068 9.61518C481.937 9.7461 481.781 9.84984 481.609 9.92048C481.438 9.99111 481.254 10.0273 481.069 10.0268Z" fill="#3F3D56"/>
<path d="M481.069 15.312H462.034C461.848 15.3124 461.665 15.2763 461.493 15.2056C461.322 15.135 461.166 15.0313 461.035 14.9003C460.903 14.7694 460.799 14.6139 460.728 14.4427C460.657 14.2715 460.62 14.0879 460.62 13.9026C460.62 13.7172 460.657 13.5337 460.728 13.3624C460.799 13.1912 460.903 13.0357 461.035 12.9048C461.166 12.7739 461.322 12.6701 461.493 12.5995C461.665 12.5289 461.848 12.4927 462.034 12.4932H481.069C481.254 12.4927 481.438 12.5289 481.609 12.5995C481.781 12.6701 481.937 12.7739 482.068 12.9048C482.199 13.0357 482.303 13.1912 482.375 13.3624C482.446 13.5337 482.482 13.7172 482.482 13.9026C482.482 14.0879 482.446 14.2715 482.375 14.4427C482.303 14.6139 482.199 14.7694 482.068 14.9003C481.937 15.0313 481.781 15.135 481.609 15.2056C481.438 15.2763 481.254 15.3124 481.069 15.312Z" fill="#3F3D56"/>
<path d="M472.275 312.119H289.185C287.758 312.118 286.389 311.55 285.379 310.541C284.37 309.532 283.802 308.164 283.8 306.736V68.36C283.802 66.9329 284.37 65.5647 285.379 64.5556C286.389 63.5465 287.758 62.9789 289.185 62.9773H472.275C473.703 62.9789 475.072 63.5465 476.081 64.5556C477.091 65.5647 477.659 66.9329 477.66 68.36V306.736C477.659 308.164 477.091 309.532 476.081 310.541C475.072 311.55 473.703 312.118 472.275 312.119ZM289.185 64.5152C288.166 64.5164 287.188 64.9219 286.467 65.6427C285.746 66.3634 285.34 67.3407 285.339 68.36V306.736C285.34 307.756 285.746 308.733 286.467 309.454C287.188 310.175 288.166 310.58 289.185 310.581H472.275C473.295 310.58 474.273 310.175 474.994 309.454C475.715 308.733 476.12 307.756 476.122 306.736V68.36C476.12 67.3407 475.715 66.3634 474.994 65.6427C474.273 64.9219 473.295 64.5164 472.275 64.5152H289.185Z" fill="#E6E6E6"/>
<path d="M416.281 167.401H338.583C337.155 167.399 335.787 166.832 334.777 165.823C333.768 164.813 333.2 163.445 333.198 162.018V101.271C333.2 99.8435 333.768 98.4754 334.777 97.4663C335.787 96.4572 337.155 95.8895 338.583 95.8879H416.281C417.709 95.8895 419.077 96.4572 420.087 97.4663C421.096 98.4754 421.664 99.8435 421.666 101.271V162.018C421.664 163.445 421.096 164.813 420.087 165.823C419.077 166.832 417.709 167.399 416.281 167.401Z" fill="#E6E6E6"/>
<path d="M416.117 269.058H338.42C336.992 269.056 335.623 268.488 334.614 267.479C333.604 266.47 333.036 265.102 333.035 263.675V202.927C333.036 201.5 333.604 200.132 334.614 199.123C335.623 198.114 336.992 197.546 338.42 197.545H416.117C417.545 197.546 418.914 198.114 419.923 199.123C420.933 200.132 421.501 201.5 421.502 202.927V263.675C421.501 265.102 420.933 266.47 419.923 267.479C418.914 268.488 417.545 269.056 416.117 269.058ZM338.42 199.083C337.4 199.084 336.422 199.489 335.701 200.21C334.98 200.931 334.574 201.908 334.573 202.927V263.675C334.574 264.694 334.98 265.671 335.701 266.392C336.422 267.113 337.4 267.519 338.42 267.52H416.117C417.137 267.519 418.115 267.113 418.836 266.392C419.557 265.671 419.963 264.694 419.964 263.675V202.927C419.963 201.908 419.557 200.931 418.836 200.21C418.115 199.489 417.137 199.084 416.117 199.083H338.42Z" fill="#3F3D56"/>
<path d="M437.657 285.975H359.96C358.532 285.973 357.163 285.405 356.154 284.396C355.144 283.387 354.576 282.019 354.575 280.592V219.844C354.576 218.417 355.144 217.049 356.154 216.04C357.163 215.031 358.532 214.463 359.96 214.462H437.657C439.085 214.463 440.454 215.031 441.463 216.04C442.473 217.049 443.041 218.417 443.042 219.844V280.592C443.041 282.019 442.473 283.387 441.463 284.396C440.454 285.405 439.085 285.973 437.657 285.975Z" fill="#00AB5F"/>
<path d="M407.525 268.188H368.519C368.47 268.189 368.421 268.185 368.373 268.177L386.821 236.235C386.934 236.036 387.097 235.871 387.295 235.755C387.492 235.64 387.717 235.58 387.946 235.58C388.174 235.58 388.399 235.64 388.596 235.755C388.794 235.871 388.957 236.036 389.07 236.235L401.451 257.67L402.044 258.696L407.525 268.188Z" fill="white"/>
<path opacity="0.2" d="M407.525 268.188H394.208L400.745 258.696L401.216 258.013L401.451 257.67L402.044 258.696L407.525 268.188Z" fill="black"/>
<path d="M429.244 268.188H395.506L402.044 258.696L402.515 258.012L411.034 245.642C411.184 245.453 411.373 245.298 411.588 245.186C411.802 245.075 412.038 245.01 412.279 244.996C412.52 244.981 412.762 245.018 412.988 245.103C413.215 245.188 413.42 245.319 413.592 245.489C413.637 245.537 413.678 245.588 413.715 245.642L429.244 268.188Z" fill="white"/>
<path d="M427.664 236.111C430.856 236.111 433.443 233.525 433.443 230.335C433.443 227.145 430.856 224.559 427.664 224.559C424.473 224.559 421.886 227.145 421.886 230.335C421.886 233.525 424.473 236.111 427.664 236.111Z" fill="white"/>
<path d="M209.667 312.05H26.5775C25.1498 312.048 23.7811 311.48 22.7716 310.471C21.7621 309.462 21.1942 308.094 21.1925 306.667V245.919C21.1942 244.492 21.7621 243.124 22.7716 242.115C23.7811 241.106 25.1498 240.538 26.5775 240.537H209.667C211.095 240.538 212.464 241.106 213.473 242.115C214.483 243.124 215.051 244.492 215.052 245.919V306.667C215.051 308.094 214.483 309.462 213.473 310.471C212.464 311.48 211.095 312.048 209.667 312.05Z" fill="#E6E6E6"/>
<path d="M208.898 225.157H25.8082C24.3805 225.156 23.0118 224.588 22.0023 223.579C20.9928 222.57 20.4249 221.202 20.4232 219.775V71.3661C20.4248 69.939 20.9927 68.5708 22.0022 67.5617C23.0118 66.5526 24.3805 65.985 25.8082 65.9834H208.898C210.326 65.9851 211.694 66.5527 212.704 67.5618C213.714 68.5709 214.281 69.939 214.283 71.3661V219.775C214.281 221.202 213.713 222.57 212.704 223.579C211.694 224.588 210.326 225.156 208.898 225.157ZM25.8082 67.5213C24.7884 67.5225 23.8108 67.928 23.0897 68.6487C22.3686 69.3695 21.963 70.3468 21.9618 71.3661V219.775C21.963 220.794 22.3686 221.771 23.0897 222.492C23.8108 223.213 24.7884 223.618 25.8082 223.619H208.898C209.918 223.618 210.896 223.213 211.617 222.492C212.338 221.771 212.743 220.794 212.745 219.775V71.3661C212.743 70.3468 212.338 69.3695 211.617 68.6487C210.896 67.928 209.918 67.5225 208.898 67.5213H25.8082Z" fill="#3F3D56"/>
<path d="M238.9 252.071H55.8103C54.3826 252.069 53.0139 251.502 52.0044 250.492C50.9949 249.483 50.427 248.115 50.4253 246.688V98.2797C50.427 96.8526 50.9948 95.4845 52.0044 94.4754C53.0139 93.4663 54.3826 92.8986 55.8103 92.897H238.9C240.328 92.8986 241.697 93.4663 242.706 94.4754C243.716 95.4845 244.283 96.8526 244.285 98.2797V246.688C244.283 248.115 243.716 249.483 242.706 250.492C241.697 251.502 240.328 252.069 238.9 252.071Z" fill="#00AB5F"/>
<path d="M168.244 215.546H74.7714C74.6544 215.547 74.5374 215.538 74.4221 215.518L118.63 138.976C118.9 138.499 119.292 138.103 119.765 137.827C120.238 137.551 120.776 137.405 121.324 137.405C121.872 137.405 122.41 137.551 122.884 137.827C123.357 138.103 123.749 138.499 124.018 138.976L153.688 190.341L155.109 192.799L168.244 215.546Z" fill="white"/>
<path opacity="0.2" d="M168.243 215.545H136.33L151.996 192.799L153.124 191.16L153.688 190.341L155.109 192.799L168.243 215.545Z" fill="black"/>
<path d="M220.288 215.545H139.443L155.109 192.799L156.236 191.161L176.651 161.518C177.012 161.065 177.464 160.693 177.978 160.426C178.492 160.16 179.057 160.004 179.635 159.969C180.213 159.935 180.792 160.022 181.335 160.226C181.877 160.429 182.37 160.745 182.783 161.151C182.888 161.267 182.986 161.39 183.077 161.518L220.288 215.545Z" fill="white"/>
<path d="M214.744 137.112C222.392 137.112 228.591 130.915 228.591 123.271C228.591 115.626 222.392 109.429 214.744 109.429C207.097 109.429 200.897 115.626 200.897 123.271C200.897 130.915 207.097 137.112 214.744 137.112Z" fill="white"/>
<path d="M277.94 244.326C279.188 243.64 280.637 243.41 282.036 243.675L303.976 223.182L300.334 204.908L314.739 205.689L316.027 227.869L287.001 250.463C286.874 251.509 286.479 252.505 285.856 253.355C285.233 254.205 284.402 254.88 283.442 255.317C282.483 255.753 281.427 255.936 280.377 255.847C279.326 255.758 278.316 255.401 277.443 254.81C276.571 254.219 275.865 253.414 275.393 252.471C274.921 251.529 274.699 250.481 274.749 249.429C274.799 248.376 275.119 247.354 275.678 246.46C276.236 245.567 277.015 244.832 277.94 244.326L277.94 244.326Z" fill="#FFB8B8"/>
<path d="M253.714 398.586H244.283L239.796 362.223H253.716L253.714 398.586Z" fill="#FFB6B6"/>
<path d="M256.119 407.724L225.709 407.723V407.338C225.709 404.2 226.956 401.191 229.176 398.972C231.396 396.754 234.406 395.507 237.545 395.507H237.546L256.12 395.508L256.119 407.724Z" fill="#2F2E41"/>
<path d="M324.488 398.586H315.057L310.57 362.223H324.49L324.488 398.586Z" fill="#FFB6B6"/>
<path d="M326.893 407.724L296.483 407.723V407.338C296.483 404.2 297.73 401.191 299.95 398.972C302.17 396.754 305.18 395.507 308.32 395.507H308.32L326.894 395.508L326.893 407.724Z" fill="#2F2E41"/>
<path d="M307.287 194.147C306.149 192.71 304.534 191.727 302.734 191.376C300.934 191.025 299.068 191.328 297.472 192.232C295.895 193.125 294.684 194.547 294.054 196.247C293.424 197.946 293.415 199.813 294.03 201.518L298.654 214.359L317.597 207.164L307.287 194.147Z" fill="#6C63FF"/>
<path d="M305.587 250.856C304.725 250.21 303.798 249.654 302.822 249.198L268.346 254.5L269.104 276.085C252.429 307.545 241.403 343.435 235.386 383.254L256.981 388.177C266.644 350.76 277.618 317.184 291.456 291.99L306.043 387.266L330.856 386.662C327.588 330.652 325.067 265.357 305.587 250.856Z" fill="#2F2E41"/>
<path d="M279.855 188.722C287.276 188.722 293.293 182.709 293.293 175.29C293.293 167.872 287.276 161.859 279.855 161.859C272.434 161.859 266.417 167.872 266.417 175.29C266.417 182.709 272.434 188.722 279.855 188.722Z" fill="#FFB8B8"/>
<path d="M309.404 209.806C310.02 206.091 309.416 202.278 307.683 198.935C305.95 195.592 303.181 192.899 299.791 191.259L284.637 192.017C282.17 192.655 279.881 193.848 277.945 195.504C276.009 197.16 274.477 199.236 273.464 201.573C266.896 216.939 265.96 236.586 268.725 259.044L304.619 250.51C299.696 239.43 303.653 224.961 309.404 209.806Z" fill="#6C63FF"/>
<path d="M263.193 172.015V172.015C263.193 170.197 263.551 168.397 264.247 166.718C264.943 165.039 265.963 163.513 267.249 162.227C268.535 160.942 270.061 159.923 271.741 159.227C273.421 158.531 275.222 158.173 277.04 158.173H277.835C280.342 156.18 283.452 155.096 286.656 155.098C290.431 155.098 294.051 156.596 296.72 159.264C299.389 161.932 300.888 165.55 300.888 169.323V187.394C291.686 187.165 281.265 188.978 270.117 192.008C272.927 184.227 274.794 177.075 273.518 172.015H263.193Z" fill="#2F2E41"/>
<path d="M234.73 234.3C236.154 234.298 237.535 234.792 238.634 235.697L267.727 228.264L273.318 210.489L285.576 218.093L276.042 238.162L239.726 244.035C239.111 244.891 238.286 245.575 237.331 246.021C236.376 246.467 235.322 246.66 234.271 246.582C233.22 246.504 232.206 246.157 231.328 245.575C230.449 244.992 229.735 244.194 229.254 243.256C228.773 242.319 228.541 241.273 228.58 240.22C228.619 239.167 228.929 238.142 229.478 237.243C230.028 236.344 230.8 235.601 231.719 235.086C232.639 234.57 233.675 234.3 234.73 234.3Z" fill="#FFB8B8"/>
<path d="M291.453 205.104C291.978 203.347 291.858 201.461 291.114 199.785C290.37 198.11 289.052 196.755 287.396 195.967C285.759 195.187 283.9 195.01 282.146 195.469C280.392 195.927 278.856 196.99 277.81 198.471L269.935 209.619L286.692 221.009L291.453 205.104Z" fill="#6C63FF"/>
<path d="M366.285 409H178.353C178.232 409 178.113 408.977 178.001 408.931C177.89 408.885 177.789 408.818 177.703 408.733C177.618 408.648 177.55 408.547 177.504 408.435C177.458 408.324 177.434 408.205 177.434 408.084C177.434 407.964 177.458 407.845 177.504 407.733C177.55 407.622 177.618 407.521 177.703 407.436C177.789 407.351 177.89 407.284 178.001 407.238C178.113 407.192 178.232 407.168 178.353 407.169H366.285C366.405 407.168 366.524 407.192 366.636 407.238C366.747 407.284 366.849 407.351 366.934 407.436C367.019 407.521 367.087 407.622 367.133 407.733C367.179 407.845 367.203 407.964 367.203 408.084C367.203 408.205 367.179 408.324 367.133 408.435C367.087 408.547 367.019 408.648 366.934 408.733C366.849 408.818 366.747 408.885 366.636 408.931C366.524 408.977 366.405 409 366.285 409Z" fill="#CACACA"/>
</svg>
