<svg width="1166" height="385" viewBox="0 0 1166 385" fill="none" xmlns="http://www.w3.org/2000/svg">
<rect x="562" y="329" width="37" height="46" fill="#B170BD"/>
<path d="M49.0375 362.353L45.6055 352.973C45.4365 352.557 45.261 352.063 45.079 351.491C44.897 350.919 44.715 350.302 44.533 349.639C44.364 350.302 44.1885 350.926 44.0065 351.511C43.8245 352.083 43.649 352.583 43.48 353.012L40.0675 362.353H49.0375ZM58.3 373H54.244C53.789 373 53.4185 372.889 53.1325 372.668C52.8465 372.434 52.632 372.148 52.489 371.81L50.383 366.058H38.7025L36.5965 371.81C36.4925 372.109 36.291 372.382 35.992 372.629C35.693 372.876 35.3225 373 34.8805 373H30.7855L41.881 344.803H47.224L58.3 373ZM83.6247 358.862V370.27C82.1947 371.323 80.6672 372.096 79.0422 372.59C77.4302 373.071 75.7012 373.312 73.8552 373.312C71.5542 373.312 69.4677 372.955 67.5957 372.239C65.7367 371.524 64.1442 370.53 62.8182 369.256C61.5052 367.982 60.4912 366.461 59.7762 364.693C59.0612 362.925 58.7037 360.994 58.7037 358.901C58.7037 356.782 59.0482 354.839 59.7372 353.071C60.4262 351.303 61.4012 349.782 62.6622 348.508C63.9362 347.234 65.4767 346.246 67.2837 345.544C69.0907 344.842 71.1187 344.491 73.3677 344.491C74.5117 344.491 75.5777 344.582 76.5657 344.764C77.5667 344.946 78.4897 345.199 79.3347 345.524C80.1927 345.836 80.9727 346.22 81.6747 346.675C82.3767 347.13 83.0202 347.63 83.6052 348.176L82.1037 350.555C81.8697 350.932 81.5642 351.166 81.1872 351.257C80.8102 351.335 80.4007 351.238 79.9587 350.965C79.5297 350.718 79.1007 350.471 78.6717 350.224C78.2427 349.977 77.7617 349.762 77.2287 349.58C76.7087 349.398 76.1172 349.249 75.4542 349.132C74.8042 349.015 74.0502 348.956 73.1922 348.956C71.8012 348.956 70.5402 349.19 69.4092 349.658C68.2912 350.126 67.3357 350.796 66.5427 351.667C65.7497 352.538 65.1387 353.584 64.7097 354.806C64.2807 356.028 64.0662 357.393 64.0662 358.901C64.0662 360.513 64.2937 361.956 64.7487 363.23C65.2167 364.491 65.8667 365.564 66.6987 366.448C67.5437 367.319 68.5577 367.988 69.7407 368.456C70.9237 368.911 72.2432 369.139 73.6992 369.139C74.7392 369.139 75.6687 369.028 76.4877 368.807C77.3067 368.586 78.1062 368.287 78.8862 367.91V362.801H75.3372C74.9992 362.801 74.7327 362.71 74.5377 362.528C74.3557 362.333 74.2647 362.099 74.2647 361.826V358.862H83.6247ZM93.9436 348.976V356.795H103.811V360.832H93.9436V368.807H106.463V373H88.6786V344.803H106.463V348.976H93.9436ZM104.825 342.794H101.334C101.139 342.794 100.899 342.762 100.613 342.697C100.34 342.619 100.054 342.404 99.7546 342.053L98.1556 339.986C98.0256 339.804 97.9281 339.661 97.8631 339.557C97.7981 339.661 97.7006 339.804 97.5706 339.986L95.9716 342.053C95.6726 342.404 95.3801 342.619 95.0941 342.697C94.8211 342.762 94.5871 342.794 94.3921 342.794H91.0576L95.7571 337.432H100.125L104.825 342.794ZM134.882 344.803V373H132.191C131.775 373 131.424 372.935 131.138 372.805C130.865 372.662 130.598 372.428 130.338 372.103L115.616 353.305C115.694 354.163 115.733 354.956 115.733 355.684V373H111.111V344.803H113.861C114.082 344.803 114.27 344.816 114.426 344.842C114.595 344.855 114.738 344.894 114.855 344.959C114.985 345.011 115.109 345.095 115.226 345.212C115.343 345.316 115.473 345.459 115.616 345.641L130.397 364.517C130.358 364.062 130.325 363.614 130.299 363.172C130.273 362.73 130.26 362.32 130.26 361.943V344.803H134.882ZM160.524 366.35C160.81 366.35 161.064 366.461 161.285 366.682L163.352 368.924C162.208 370.341 160.797 371.427 159.12 372.181C157.456 372.935 155.454 373.312 153.114 373.312C151.021 373.312 149.136 372.955 147.459 372.239C145.795 371.524 144.372 370.53 143.189 369.256C142.006 367.982 141.096 366.461 140.459 364.693C139.835 362.925 139.523 360.994 139.523 358.901C139.523 356.782 139.861 354.845 140.537 353.09C141.213 351.322 142.162 349.801 143.384 348.527C144.619 347.253 146.088 346.265 147.791 345.563C149.494 344.848 151.379 344.491 153.446 344.491C155.5 344.491 157.32 344.829 158.906 345.505C160.505 346.181 161.863 347.065 162.981 348.157L161.226 350.594C161.122 350.75 160.986 350.887 160.817 351.004C160.661 351.121 160.44 351.179 160.154 351.179C159.959 351.179 159.757 351.127 159.549 351.023C159.341 350.906 159.114 350.77 158.867 350.614C158.62 350.445 158.334 350.263 158.009 350.068C157.684 349.873 157.307 349.697 156.878 349.541C156.449 349.372 155.948 349.236 155.376 349.132C154.817 349.015 154.167 348.956 153.426 348.956C152.165 348.956 151.008 349.184 149.955 349.639C148.915 350.081 148.018 350.731 147.264 351.589C146.51 352.434 145.925 353.474 145.509 354.709C145.093 355.931 144.885 357.328 144.885 358.901C144.885 360.487 145.106 361.898 145.548 363.133C146.003 364.368 146.614 365.408 147.381 366.253C148.148 367.098 149.052 367.748 150.092 368.203C151.132 368.645 152.25 368.866 153.446 368.866C154.161 368.866 154.804 368.827 155.376 368.749C155.961 368.671 156.494 368.547 156.975 368.378C157.469 368.209 157.931 367.995 158.36 367.735C158.802 367.462 159.237 367.13 159.666 366.74C159.796 366.623 159.933 366.532 160.076 366.467C160.219 366.389 160.368 366.35 160.524 366.35ZM172.21 373H166.945V344.803H172.21V373ZM193.421 362.353L189.989 352.973C189.82 352.557 189.645 352.063 189.463 351.491C189.281 350.919 189.099 350.302 188.917 349.639C188.748 350.302 188.572 350.926 188.39 351.511C188.208 352.083 188.033 352.583 187.864 353.012L184.451 362.353H193.421ZM202.684 373H198.628C198.173 373 197.802 372.889 197.516 372.668C197.23 372.434 197.016 372.148 196.873 371.81L194.767 366.058H183.086L180.98 371.81C180.876 372.109 180.675 372.382 180.376 372.629C180.077 372.876 179.706 373 179.264 373H175.169L186.265 344.803H191.608L202.684 373ZM238.829 358.901C238.829 360.968 238.484 362.866 237.795 364.595C237.106 366.324 236.138 367.813 234.89 369.061C233.642 370.309 232.14 371.277 230.385 371.966C228.63 372.655 226.68 373 224.535 373H213.791V344.803H224.535C226.68 344.803 228.63 345.154 230.385 345.856C232.14 346.545 233.642 347.513 234.89 348.761C236.138 349.996 237.106 351.478 237.795 353.207C238.484 354.936 238.829 356.834 238.829 358.901ZM233.447 358.901C233.447 357.354 233.239 355.97 232.823 354.748C232.42 353.513 231.828 352.473 231.048 351.628C230.281 350.77 229.345 350.113 228.24 349.658C227.148 349.203 225.913 348.976 224.535 348.976H219.056V368.827H224.535C225.913 368.827 227.148 368.599 228.24 368.144C229.345 367.689 230.281 367.039 231.048 366.194C231.828 365.336 232.42 364.296 232.823 363.074C233.239 361.839 233.447 360.448 233.447 358.901ZM248.725 348.976V356.795H258.592V360.832H248.725V368.807H261.244V373H243.46V344.803H261.244V348.976H248.725ZM293.89 349.112H285.388V373H280.143V349.112H271.641V344.803H293.89V349.112ZM302.845 348.976V356.795H312.712V360.832H302.845V368.807H315.364V373H297.58V344.803H315.364V348.976H302.845ZM338.767 366.35C339.053 366.35 339.306 366.461 339.527 366.682L341.594 368.924C340.45 370.341 339.04 371.427 337.363 372.181C335.699 372.935 333.697 373.312 331.357 373.312C329.264 373.312 327.379 372.955 325.702 372.239C324.038 371.524 322.614 370.53 321.431 369.256C320.248 367.982 319.338 366.461 318.701 364.693C318.077 362.925 317.765 360.994 317.765 358.901C317.765 356.782 318.103 354.845 318.779 353.09C319.455 351.322 320.404 349.801 321.626 348.527C322.861 347.253 324.33 346.265 326.033 345.563C327.736 344.848 329.621 344.491 331.688 344.491C333.742 344.491 335.562 344.829 337.148 345.505C338.747 346.181 340.106 347.065 341.224 348.157L339.469 350.594C339.365 350.75 339.228 350.887 339.059 351.004C338.903 351.121 338.682 351.179 338.396 351.179C338.201 351.179 338 351.127 337.792 351.023C337.584 350.906 337.356 350.77 337.109 350.614C336.862 350.445 336.576 350.263 336.251 350.068C335.926 349.873 335.549 349.697 335.12 349.541C334.691 349.372 334.191 349.236 333.619 349.132C333.06 349.015 332.41 348.956 331.669 348.956C330.408 348.956 329.251 349.184 328.198 349.639C327.158 350.081 326.261 350.731 325.507 351.589C324.753 352.434 324.168 353.474 323.752 354.709C323.336 355.931 323.128 357.328 323.128 358.901C323.128 360.487 323.349 361.898 323.791 363.133C324.246 364.368 324.857 365.408 325.624 366.253C326.391 367.098 327.294 367.748 328.334 368.203C329.374 368.645 330.492 368.866 331.688 368.866C332.403 368.866 333.047 368.827 333.619 368.749C334.204 368.671 334.737 368.547 335.218 368.378C335.712 368.209 336.173 367.995 336.602 367.735C337.044 367.462 337.48 367.13 337.909 366.74C338.039 366.623 338.175 366.532 338.318 366.467C338.461 366.389 338.611 366.35 338.767 366.35ZM368.958 344.803V373H366.267C365.851 373 365.5 372.935 365.214 372.805C364.941 372.662 364.674 372.428 364.414 372.103L349.692 353.305C349.77 354.163 349.809 354.956 349.809 355.684V373H345.187V344.803H347.937C348.158 344.803 348.346 344.816 348.502 344.842C348.671 344.855 348.814 344.894 348.931 344.959C349.061 345.011 349.185 345.095 349.302 345.212C349.419 345.316 349.549 345.459 349.692 345.641L364.473 364.517C364.434 364.062 364.401 363.614 364.375 363.172C364.349 362.73 364.336 362.32 364.336 361.943V344.803H368.958ZM402.128 358.901C402.128 360.968 401.783 362.886 401.094 364.654C400.418 366.409 399.456 367.93 398.208 369.217C396.96 370.504 395.459 371.511 393.704 372.239C391.949 372.955 389.999 373.312 387.854 373.312C385.722 373.312 383.778 372.955 382.023 372.239C380.268 371.511 378.76 370.504 377.499 369.217C376.251 367.93 375.283 366.409 374.594 364.654C373.905 362.886 373.56 360.968 373.56 358.901C373.56 356.834 373.905 354.923 374.594 353.168C375.283 351.4 376.251 349.873 377.499 348.586C378.76 347.299 380.268 346.298 382.023 345.583C383.778 344.855 385.722 344.491 387.854 344.491C389.284 344.491 390.629 344.66 391.89 344.998C393.151 345.323 394.308 345.791 395.361 346.402C396.414 347 397.357 347.734 398.189 348.605C399.034 349.463 399.749 350.425 400.334 351.491C400.919 352.557 401.361 353.714 401.66 354.962C401.972 356.21 402.128 357.523 402.128 358.901ZM396.765 358.901C396.765 357.354 396.557 355.97 396.141 354.748C395.725 353.513 395.134 352.466 394.367 351.608C393.6 350.75 392.664 350.094 391.559 349.639C390.467 349.184 389.232 348.956 387.854 348.956C386.476 348.956 385.234 349.184 384.129 349.639C383.037 350.094 382.101 350.75 381.321 351.608C380.554 352.466 379.963 353.513 379.547 354.748C379.131 355.97 378.923 357.354 378.923 358.901C378.923 360.448 379.131 361.839 379.547 363.074C379.963 364.296 380.554 365.336 381.321 366.194C382.101 367.039 383.037 367.689 384.129 368.144C385.234 368.599 386.476 368.827 387.854 368.827C389.232 368.827 390.467 368.599 391.559 368.144C392.664 367.689 393.6 367.039 394.367 366.194C395.134 365.336 395.725 364.296 396.141 363.074C396.557 361.839 396.765 360.448 396.765 358.901ZM423.251 368.671V373H406.734V344.803H411.98V368.671H423.251ZM452.896 358.901C452.896 360.968 452.552 362.886 451.863 364.654C451.187 366.409 450.225 367.93 448.977 369.217C447.729 370.504 446.227 371.511 444.472 372.239C442.717 372.955 440.767 373.312 438.622 373.312C436.49 373.312 434.547 372.955 432.792 372.239C431.037 371.511 429.529 370.504 428.268 369.217C427.02 367.93 426.051 366.409 425.362 364.654C424.673 362.886 424.329 360.968 424.329 358.901C424.329 356.834 424.673 354.923 425.362 353.168C426.051 351.4 427.02 349.873 428.268 348.586C429.529 347.299 431.037 346.298 432.792 345.583C434.547 344.855 436.49 344.491 438.622 344.491C440.052 344.491 441.398 344.66 442.659 344.998C443.92 345.323 445.077 345.791 446.13 346.402C447.183 347 448.125 347.734 448.957 348.605C449.802 349.463 450.517 350.425 451.102 351.491C451.687 352.557 452.129 353.714 452.428 354.962C452.74 356.21 452.896 357.523 452.896 358.901ZM447.534 358.901C447.534 357.354 447.326 355.97 446.91 354.748C446.494 353.513 445.902 352.466 445.135 351.608C444.368 350.75 443.432 350.094 442.327 349.639C441.235 349.184 440 348.956 438.622 348.956C437.244 348.956 436.003 349.184 434.898 349.639C433.806 350.094 432.87 350.75 432.09 351.608C431.323 352.466 430.731 353.513 430.315 354.748C429.899 355.97 429.691 357.354 429.691 358.901C429.691 360.448 429.899 361.839 430.315 363.074C430.731 364.296 431.323 365.336 432.09 366.194C432.87 367.039 433.806 367.689 434.898 368.144C436.003 368.599 437.244 368.827 438.622 368.827C440 368.827 441.235 368.599 442.327 368.144C443.432 367.689 444.368 367.039 445.135 366.194C445.902 365.336 446.494 364.296 446.91 363.074C447.326 361.839 447.534 360.448 447.534 358.901ZM480.747 358.862V370.27C479.317 371.323 477.789 372.096 476.164 372.59C474.552 373.071 472.823 373.312 470.977 373.312C468.676 373.312 466.59 372.955 464.718 372.239C462.859 371.524 461.266 370.53 459.94 369.256C458.627 367.982 457.613 366.461 456.898 364.693C456.183 362.925 455.826 360.994 455.826 358.901C455.826 356.782 456.17 354.839 456.859 353.071C457.548 351.303 458.523 349.782 459.784 348.508C461.058 347.234 462.599 346.246 464.406 345.544C466.213 344.842 468.241 344.491 470.49 344.491C471.634 344.491 472.7 344.582 473.688 344.764C474.689 344.946 475.612 345.199 476.457 345.524C477.315 345.836 478.095 346.22 478.797 346.675C479.499 347.13 480.142 347.63 480.727 348.176L479.226 350.555C478.992 350.932 478.686 351.166 478.309 351.257C477.932 351.335 477.523 351.238 477.081 350.965C476.652 350.718 476.223 350.471 475.794 350.224C475.365 349.977 474.884 349.762 474.351 349.58C473.831 349.398 473.239 349.249 472.576 349.132C471.926 349.015 471.172 348.956 470.314 348.956C468.923 348.956 467.662 349.19 466.531 349.658C465.413 350.126 464.458 350.796 463.665 351.667C462.872 352.538 462.261 353.584 461.832 354.806C461.403 356.028 461.188 357.393 461.188 358.901C461.188 360.513 461.416 361.956 461.871 363.23C462.339 364.491 462.989 365.564 463.821 366.448C464.666 367.319 465.68 367.988 466.863 368.456C468.046 368.911 469.365 369.139 470.821 369.139C471.861 369.139 472.791 369.028 473.61 368.807C474.429 368.586 475.228 368.287 476.008 367.91V362.801H472.459C472.121 362.801 471.855 362.71 471.66 362.528C471.478 362.333 471.387 362.099 471.387 361.826V358.862H480.747ZM491.066 373H485.801V344.803H491.066V373ZM512.277 362.353L508.845 352.973C508.676 352.557 508.5 352.063 508.318 351.491C508.136 350.919 507.954 350.302 507.772 349.639C507.603 350.302 507.428 350.926 507.246 351.511C507.064 352.083 506.888 352.583 506.719 353.012L503.307 362.353H512.277ZM521.539 373H517.483C517.028 373 516.658 372.889 516.372 372.668C516.086 372.434 515.871 372.148 515.728 371.81L513.622 366.058H501.942L499.836 371.81C499.732 372.109 499.53 372.382 499.231 372.629C498.932 372.876 498.562 373 498.12 373H494.025L505.12 344.803H510.463L521.539 373Z" fill="white"/>
<path d="M174.254 246.509C176.469 246.509 178.432 247.365 180.143 249.076L196.149 266.441C187.29 277.414 176.368 285.819 163.382 291.658C150.497 297.497 134.994 300.416 116.874 300.416C100.667 300.416 86.07 297.648 73.084 292.111C60.1987 286.574 49.1757 278.873 40.015 269.008C30.8543 259.143 23.8077 247.365 18.875 233.674C14.043 219.983 11.627 205.034 11.627 188.827C11.627 172.418 14.2443 157.419 19.479 143.829C24.7137 130.138 32.0623 118.36 41.525 108.495C51.0883 98.6297 62.4637 90.979 75.651 85.543C88.8383 80.0063 103.435 77.238 119.441 77.238C135.346 77.238 149.44 79.8553 161.721 85.09C174.103 90.3247 184.623 97.17 193.28 105.626L179.69 124.501C178.885 125.709 177.828 126.766 176.519 127.672C175.311 128.578 173.6 129.031 171.385 129.031C169.875 129.031 168.315 128.628 166.704 127.823C165.093 126.917 163.332 125.86 161.419 124.652C159.506 123.343 157.292 121.934 154.775 120.424C152.258 118.914 149.339 117.555 146.017 116.347C142.695 115.038 138.819 113.981 134.39 113.176C130.061 112.27 125.028 111.817 119.29 111.817C109.525 111.817 100.566 113.579 92.412 117.102C84.3587 120.525 77.4127 125.558 71.574 132.202C65.7353 138.745 61.2053 146.799 57.984 156.362C54.7627 165.825 53.152 176.646 53.152 188.827C53.152 201.108 54.8633 212.031 58.286 221.594C61.8093 231.157 66.5407 239.211 72.48 245.754C78.4193 252.297 85.4157 257.331 93.469 260.854C101.522 264.277 110.18 265.988 119.441 265.988C124.978 265.988 129.961 265.686 134.39 265.082C138.92 264.478 143.047 263.522 146.772 262.213C150.597 260.904 154.171 259.243 157.493 257.23C160.916 255.116 164.288 252.549 167.61 249.529C168.617 248.623 169.674 247.918 170.781 247.415C171.888 246.811 173.046 246.509 174.254 246.509ZM255.381 159.684C261.421 154.047 268.065 149.466 275.313 145.943C282.561 142.42 291.067 140.658 300.832 140.658C309.288 140.658 316.788 142.118 323.331 145.037C329.874 147.856 335.31 151.882 339.639 157.117C344.068 162.251 347.39 168.442 349.605 175.69C351.92 182.837 353.078 190.74 353.078 199.397V298H315.781V199.397C315.781 189.934 313.617 182.636 309.288 177.502C304.959 172.267 298.366 169.65 289.507 169.65C283.064 169.65 277.024 171.11 271.387 174.029C265.75 176.948 260.414 180.925 255.381 185.958V298H218.084V73.614H255.381V159.684ZM427.205 143.074V298H389.757V143.074H427.205ZM432.339 97.925C432.339 101.146 431.685 104.166 430.376 106.985C429.067 109.804 427.306 112.27 425.091 114.384C422.977 116.498 420.46 118.209 417.541 119.518C414.622 120.726 411.501 121.33 408.179 121.33C404.958 121.33 401.887 120.726 398.968 119.518C396.149 118.209 393.683 116.498 391.569 114.384C389.455 112.27 387.744 109.804 386.435 106.985C385.227 104.166 384.623 101.146 384.623 97.925C384.623 94.603 385.227 91.4823 386.435 88.563C387.744 85.6437 389.455 83.127 391.569 81.013C393.683 78.899 396.149 77.238 398.968 76.03C401.887 74.7213 404.958 74.067 408.179 74.067C411.501 74.067 414.622 74.7213 417.541 76.03C420.46 77.238 422.977 78.899 425.091 81.013C427.306 83.127 429.067 85.6437 430.376 88.563C431.685 91.4823 432.339 94.603 432.339 97.925ZM562.473 182.636C558.345 177.502 553.765 173.878 548.732 171.764C543.698 169.65 538.313 168.593 532.575 168.593C526.937 168.593 521.854 169.65 517.324 171.764C512.794 173.878 508.918 177.099 505.697 181.428C502.475 185.656 500.009 191.092 498.298 197.736C496.586 204.279 495.731 212.031 495.731 220.99C495.731 230.05 496.435 237.751 497.845 244.093C499.355 250.334 501.469 255.468 504.187 259.495C506.905 263.421 510.227 266.29 514.153 268.102C518.079 269.813 522.458 270.669 527.29 270.669C535.041 270.669 541.635 269.058 547.071 265.837C552.507 262.616 557.641 258.035 562.473 252.096V182.636ZM599.77 143.074V348.585H562.473V278.37C556.332 284.913 549.386 290.198 541.635 294.225C533.883 298.252 524.874 300.265 514.606 300.265C506.15 300.265 498.398 298.503 491.352 294.98C484.305 291.457 478.215 286.373 473.081 279.729C468.047 272.984 464.121 264.679 461.303 254.814C458.585 244.949 457.226 233.674 457.226 220.99C457.226 209.514 458.786 198.843 461.907 188.978C465.027 179.113 469.507 170.556 475.346 163.308C481.184 156.06 488.181 150.423 496.335 146.396C504.489 142.269 513.649 140.205 523.817 140.205C533.481 140.205 541.584 141.866 548.128 145.188C554.671 148.51 560.51 152.99 565.644 158.627L567.607 149.869C568.915 145.339 572.036 143.074 576.969 143.074H599.77ZM770.062 143.074V298H747.261C742.329 298 739.208 295.735 737.899 291.205L735.332 278.823C728.99 285.266 721.994 290.5 714.343 294.527C706.693 298.453 697.683 300.416 687.314 300.416C678.858 300.416 671.359 299.007 664.815 296.188C658.373 293.269 652.937 289.192 648.507 283.957C644.078 278.722 640.706 272.531 638.39 265.384C636.176 258.136 635.068 250.183 635.068 241.526V143.074H672.365V241.526C672.365 250.989 674.53 258.337 678.858 263.572C683.288 268.706 689.881 271.273 698.639 271.273C705.082 271.273 711.122 269.864 716.759 267.045C722.397 264.126 727.732 260.149 732.765 255.116V143.074H770.062ZM906.854 202.719C906.854 197.887 906.149 193.357 904.74 189.129C903.431 184.8 901.418 181.025 898.7 177.804C895.982 174.583 892.509 172.066 888.281 170.254C884.154 168.341 879.322 167.385 873.785 167.385C863.014 167.385 854.507 170.455 848.266 176.596C842.125 182.737 838.199 191.444 836.488 202.719H906.854ZM835.733 225.218C836.337 233.171 837.746 240.066 839.961 245.905C842.176 251.643 845.095 256.425 848.719 260.25C852.343 263.975 856.621 266.793 861.554 268.706C866.587 270.518 872.124 271.424 878.164 271.424C884.204 271.424 889.388 270.719 893.717 269.31C898.146 267.901 901.972 266.34 905.193 264.629C908.515 262.918 911.384 261.357 913.8 259.948C916.317 258.539 918.733 257.834 921.048 257.834C924.169 257.834 926.484 258.992 927.994 261.307L938.715 274.897C934.588 279.729 929.957 283.806 924.823 287.128C919.689 290.349 914.303 292.967 908.666 294.98C903.129 296.893 897.442 298.252 891.603 299.057C885.865 299.862 880.278 300.265 874.842 300.265C864.071 300.265 854.054 298.503 844.793 294.98C835.532 291.356 827.478 286.071 820.633 279.125C813.788 272.078 808.402 263.421 804.476 253.153C800.55 242.784 798.587 230.805 798.587 217.215C798.587 206.645 800.298 196.729 803.721 187.468C807.144 178.106 812.026 170.002 818.368 163.157C824.811 156.211 832.612 150.725 841.773 146.698C851.034 142.671 861.453 140.658 873.03 140.658C882.795 140.658 891.804 142.218 900.059 145.339C908.314 148.46 915.411 153.04 921.35 159.08C927.289 165.019 931.92 172.368 935.242 181.126C938.665 189.783 940.376 199.699 940.376 210.873C940.376 216.51 939.772 220.336 938.564 222.349C937.356 224.262 935.041 225.218 931.618 225.218H835.733ZM1079.65 158.476C1079.65 161.093 1079.2 163.66 1078.29 166.177C1077.39 168.694 1076.18 170.757 1074.67 172.368L1001.13 269.31H1077.39V298H957.795V282.447C957.795 280.736 958.198 278.722 959.003 276.407C959.809 273.991 961.017 271.726 962.627 269.612L1036.92 171.613H962.174V143.074H1079.65V158.476ZM1145.93 143.074V298H1108.48V143.074H1145.93ZM1151.06 97.925C1151.06 101.146 1150.41 104.166 1149.1 106.985C1147.79 109.804 1146.03 112.27 1143.82 114.384C1141.7 116.498 1139.18 118.209 1136.27 119.518C1133.35 120.726 1130.23 121.33 1126.9 121.33C1123.68 121.33 1120.61 120.726 1117.69 119.518C1114.87 118.209 1112.41 116.498 1110.29 114.384C1108.18 112.27 1106.47 109.804 1105.16 106.985C1103.95 104.166 1103.35 101.146 1103.35 97.925C1103.35 94.603 1103.95 91.4823 1105.16 88.563C1106.47 85.6437 1108.18 83.127 1110.29 81.013C1112.41 78.899 1114.87 77.238 1117.69 76.03C1120.61 74.7213 1123.68 74.067 1126.9 74.067C1130.23 74.067 1133.35 74.7213 1136.27 76.03C1139.18 77.238 1141.7 78.899 1143.82 81.013C1146.03 83.127 1147.79 85.6437 1149.1 88.563C1150.41 91.4823 1151.06 94.603 1151.06 97.925Z" fill="url(#paint0_linear)"/>
<defs>
<linearGradient id="paint0_linear" x1="1166" y1="180.49" x2="38.4845" y2="212.853" gradientUnits="userSpaceOnUse">
<stop stop-color="#F45E84"/>
<stop offset="1" stop-color="#7380F3"/>
</linearGradient>
</defs>
</svg>
