<svg width="1143" height="385" viewBox="0 0 1143 385" fill="none" xmlns="http://www.w3.org/2000/svg">
<rect x="551" y="336" width="37" height="49" fill="#B170BD"/>
<path d="M49.01 358.986C49.01 360.894 48.692 362.646 48.056 364.242C47.42 365.838 46.526 367.212 45.374 368.364C44.222 369.516 42.836 370.41 41.216 371.046C39.596 371.682 37.796 372 35.816 372H25.898V345.972H35.816C37.796 345.972 39.596 346.296 41.216 346.944C42.836 347.58 44.222 348.474 45.374 349.626C46.526 350.766 47.42 352.134 48.056 353.73C48.692 355.326 49.01 357.078 49.01 358.986ZM44.042 358.986C44.042 357.558 43.85 356.28 43.466 355.152C43.094 354.012 42.548 353.052 41.828 352.272C41.12 351.48 40.256 350.874 39.236 350.454C38.228 350.034 37.088 349.824 35.816 349.824H30.758V368.148H35.816C37.088 368.148 38.228 367.938 39.236 367.518C40.256 367.098 41.12 366.498 41.828 365.718C42.548 364.926 43.094 363.966 43.466 362.838C43.85 361.698 44.042 360.414 44.042 358.986ZM58.1447 372H53.2847V345.972H58.1447V372ZM85.4282 358.95V369.48C84.1082 370.452 82.6982 371.166 81.1982 371.622C79.7102 372.066 78.1142 372.288 76.4102 372.288C74.2862 372.288 72.3602 371.958 70.6322 371.298C68.9162 370.638 67.4462 369.72 66.2222 368.544C65.0102 367.368 64.0742 365.964 63.4142 364.332C62.7542 362.7 62.4242 360.918 62.4242 358.986C62.4242 357.03 62.7422 355.236 63.3782 353.604C64.0142 351.972 64.9142 350.568 66.0782 349.392C67.2542 348.216 68.6762 347.304 70.3442 346.656C72.0122 346.008 73.8842 345.684 75.9602 345.684C77.0162 345.684 78.0002 345.768 78.9122 345.936C79.8362 346.104 80.6882 346.338 81.4682 346.638C82.2602 346.926 82.9802 347.28 83.6282 347.7C84.2762 348.12 84.8702 348.582 85.4102 349.086L84.0242 351.282C83.8082 351.63 83.5262 351.846 83.1782 351.93C82.8302 352.002 82.4522 351.912 82.0442 351.66C81.6482 351.432 81.2522 351.204 80.8562 350.976C80.4602 350.748 80.0162 350.55 79.5242 350.382C79.0442 350.214 78.4982 350.076 77.8862 349.968C77.2862 349.86 76.5902 349.806 75.7982 349.806C74.5142 349.806 73.3502 350.022 72.3062 350.454C71.2742 350.886 70.3922 351.504 69.6602 352.308C68.9282 353.112 68.3642 354.078 67.9682 355.206C67.5722 356.334 67.3742 357.594 67.3742 358.986C67.3742 360.474 67.5842 361.806 68.0042 362.982C68.4362 364.146 69.0362 365.136 69.8042 365.952C70.5842 366.756 71.5202 367.374 72.6122 367.806C73.7042 368.226 74.9222 368.436 76.2662 368.436C77.2262 368.436 78.0842 368.334 78.8402 368.13C79.5962 367.926 80.3342 367.65 81.0542 367.302V362.586H77.7782C77.4662 362.586 77.2202 362.502 77.0402 362.334C76.8722 362.154 76.7882 361.938 76.7882 361.686V358.95H85.4282ZM94.9533 372H90.0933V345.972H94.9533V372ZM118.961 349.95H111.113V372H106.271V349.95H98.4228V345.972H118.961V349.95ZM133.588 362.172L130.42 353.514C130.264 353.13 130.102 352.674 129.934 352.146C129.766 351.618 129.598 351.048 129.43 350.436C129.274 351.048 129.112 351.624 128.944 352.164C128.776 352.692 128.614 353.154 128.458 353.55L125.308 362.172H133.588ZM142.138 372H138.394C137.974 372 137.632 371.898 137.368 371.694C137.104 371.478 136.906 371.214 136.773 370.902L134.83 365.592H124.048L122.104 370.902C122.008 371.178 121.822 371.43 121.546 371.658C121.27 371.886 120.928 372 120.52 372H116.739L126.982 345.972H131.914L142.138 372ZM160.078 368.004V372H144.832V345.972H149.674V368.004H160.078ZM183.755 362.172L180.587 353.514C180.431 353.13 180.269 352.674 180.101 352.146C179.933 351.618 179.765 351.048 179.597 350.436C179.441 351.048 179.279 351.624 179.111 352.164C178.943 352.692 178.781 353.154 178.625 353.55L175.475 362.172H183.755ZM192.305 372H188.561C188.141 372 187.799 371.898 187.535 371.694C187.271 371.478 187.073 371.214 186.941 370.902L184.997 365.592H174.215L172.271 370.902C172.175 371.178 171.989 371.43 171.713 371.658C171.437 371.886 171.095 372 170.687 372H166.907L177.149 345.972H182.081L192.305 372ZM215.682 358.95V369.48C214.362 370.452 212.952 371.166 211.452 371.622C209.964 372.066 208.368 372.288 206.664 372.288C204.54 372.288 202.614 371.958 200.886 371.298C199.17 370.638 197.7 369.72 196.476 368.544C195.264 367.368 194.328 365.964 193.668 364.332C193.008 362.7 192.678 360.918 192.678 358.986C192.678 357.03 192.996 355.236 193.632 353.604C194.268 351.972 195.168 350.568 196.332 349.392C197.508 348.216 198.93 347.304 200.598 346.656C202.266 346.008 204.138 345.684 206.214 345.684C207.27 345.684 208.254 345.768 209.166 345.936C210.09 346.104 210.942 346.338 211.722 346.638C212.514 346.926 213.234 347.28 213.882 347.7C214.53 348.12 215.124 348.582 215.664 349.086L214.278 351.282C214.062 351.63 213.78 351.846 213.432 351.93C213.084 352.002 212.706 351.912 212.298 351.66C211.902 351.432 211.506 351.204 211.11 350.976C210.714 350.748 210.27 350.55 209.778 350.382C209.298 350.214 208.752 350.076 208.14 349.968C207.54 349.86 206.844 349.806 206.052 349.806C204.768 349.806 203.604 350.022 202.56 350.454C201.528 350.886 200.646 351.504 199.914 352.308C199.182 353.112 198.618 354.078 198.222 355.206C197.826 356.334 197.628 357.594 197.628 358.986C197.628 360.474 197.838 361.806 198.258 362.982C198.69 364.146 199.29 365.136 200.058 365.952C200.838 366.756 201.774 367.374 202.866 367.806C203.958 368.226 205.176 368.436 206.52 368.436C207.48 368.436 208.338 368.334 209.094 368.13C209.85 367.926 210.588 367.65 211.308 367.302V362.586H208.032C207.72 362.586 207.474 362.502 207.294 362.334C207.126 362.154 207.042 361.938 207.042 361.686V358.95H215.682ZM225.207 349.824V357.042H234.315V360.768H225.207V368.13H236.763V372H220.347V345.972H236.763V349.824H225.207ZM262.996 345.972V372H260.512C260.128 372 259.804 371.94 259.54 371.82C259.288 371.688 259.042 371.472 258.802 371.172L245.212 353.82C245.284 354.612 245.32 355.344 245.32 356.016V372H241.054V345.972H243.592C243.796 345.972 243.97 345.984 244.114 346.008C244.27 346.02 244.402 346.056 244.51 346.116C244.63 346.164 244.744 346.242 244.852 346.35C244.96 346.446 245.08 346.578 245.212 346.746L258.856 364.17C258.82 363.75 258.79 363.336 258.766 362.928C258.742 362.52 258.73 362.142 258.73 361.794V345.972H262.996ZM286.667 365.862C286.931 365.862 287.165 365.964 287.369 366.168L289.277 368.238C288.221 369.546 286.919 370.548 285.371 371.244C283.835 371.94 281.987 372.288 279.827 372.288C277.895 372.288 276.155 371.958 274.607 371.298C273.071 370.638 271.757 369.72 270.665 368.544C269.573 367.368 268.733 365.964 268.145 364.332C267.569 362.7 267.281 360.918 267.281 358.986C267.281 357.03 267.593 355.242 268.217 353.622C268.841 351.99 269.717 350.586 270.845 349.41C271.985 348.234 273.341 347.322 274.913 346.674C276.485 346.014 278.225 345.684 280.133 345.684C282.029 345.684 283.709 345.996 285.173 346.62C286.649 347.244 287.903 348.06 288.935 349.068L287.315 351.318C287.219 351.462 287.093 351.588 286.937 351.696C286.793 351.804 286.589 351.858 286.325 351.858C286.145 351.858 285.959 351.81 285.767 351.714C285.575 351.606 285.365 351.48 285.137 351.336C284.909 351.18 284.645 351.012 284.345 350.832C284.045 350.652 283.697 350.49 283.301 350.346C282.905 350.19 282.443 350.064 281.915 349.968C281.399 349.86 280.799 349.806 280.115 349.806C278.951 349.806 277.883 350.016 276.911 350.436C275.951 350.844 275.123 351.444 274.427 352.236C273.731 353.016 273.191 353.976 272.807 355.116C272.423 356.244 272.231 357.534 272.231 358.986C272.231 360.45 272.435 361.752 272.843 362.892C273.263 364.032 273.827 364.992 274.535 365.772C275.243 366.552 276.077 367.152 277.037 367.572C277.997 367.98 279.029 368.184 280.133 368.184C280.793 368.184 281.387 368.148 281.915 368.076C282.455 368.004 282.947 367.89 283.391 367.734C283.847 367.578 284.273 367.38 284.669 367.14C285.077 366.888 285.479 366.582 285.875 366.222C285.995 366.114 286.121 366.03 286.253 365.97C286.385 365.898 286.523 365.862 286.667 365.862ZM303.771 361.92V372H298.947V361.92L289.461 345.972H293.727C294.147 345.972 294.477 346.074 294.717 346.278C294.969 346.482 295.179 346.74 295.347 347.052L300.099 355.746C300.375 356.262 300.615 356.748 300.819 357.204C301.035 357.66 301.227 358.116 301.395 358.572C301.551 358.116 301.731 357.66 301.935 357.204C302.139 356.748 302.373 356.262 302.637 355.746L307.371 347.052C307.503 346.788 307.701 346.542 307.965 346.314C308.229 346.086 308.565 345.972 308.973 345.972H313.257L303.771 361.92ZM322.368 359.274H331.692V362.982H322.368V359.274ZM379.784 345.972L371.702 372H367.328L361.64 354.216C361.484 353.784 361.34 353.256 361.208 352.632C361.136 352.932 361.064 353.214 360.992 353.478C360.92 353.742 360.842 353.988 360.758 354.216L355.016 372H350.624L342.56 345.972H346.61C347.03 345.972 347.378 346.074 347.654 346.278C347.942 346.47 348.134 346.734 348.23 347.07L352.658 362.64C352.754 363.024 352.844 363.444 352.928 363.9C353.024 364.344 353.12 364.812 353.216 365.304C353.312 364.8 353.414 364.326 353.522 363.882C353.642 363.438 353.768 363.024 353.9 362.64L359.012 347.07C359.108 346.794 359.294 346.542 359.57 346.314C359.858 346.086 360.206 345.972 360.614 345.972H362.036C362.456 345.972 362.798 346.074 363.062 346.278C363.326 346.482 363.524 346.746 363.656 347.07L368.75 362.64C369.002 363.384 369.23 364.242 369.434 365.214C369.59 364.266 369.764 363.408 369.956 362.64L374.384 347.07C374.456 346.77 374.636 346.512 374.924 346.296C375.224 346.08 375.578 345.972 375.986 345.972H379.784ZM387.84 349.824V357.042H396.948V360.768H387.84V368.13H399.396V372H382.98V345.972H399.396V349.824H387.84ZM413.425 368.22C414.325 368.22 415.081 368.112 415.693 367.896C416.305 367.68 416.791 367.392 417.151 367.032C417.523 366.672 417.787 366.252 417.943 365.772C418.111 365.292 418.195 364.782 418.195 364.242C418.195 363.678 418.105 363.174 417.925 362.73C417.745 362.274 417.463 361.89 417.079 361.578C416.695 361.254 416.197 361.008 415.585 360.84C414.985 360.672 414.259 360.588 413.407 360.588H408.529V368.22H413.425ZM408.529 349.716V357.24H412.381C414.037 357.24 415.285 356.94 416.125 356.34C416.977 355.74 417.403 354.786 417.403 353.478C417.403 352.122 417.019 351.156 416.251 350.58C415.483 350.004 414.283 349.716 412.651 349.716H408.529ZM412.651 345.972C414.355 345.972 415.813 346.134 417.025 346.458C418.237 346.782 419.227 347.244 419.995 347.844C420.775 348.444 421.345 349.17 421.705 350.022C422.065 350.874 422.245 351.834 422.245 352.902C422.245 353.514 422.155 354.102 421.975 354.666C421.795 355.218 421.513 355.74 421.129 356.232C420.757 356.712 420.277 357.15 419.689 357.546C419.113 357.942 418.423 358.278 417.619 358.554C421.195 359.358 422.983 361.29 422.983 364.35C422.983 365.454 422.773 366.474 422.353 367.41C421.933 368.346 421.321 369.156 420.517 369.84C419.713 370.512 418.723 371.04 417.547 371.424C416.371 371.808 415.027 372 413.515 372H403.687V345.972H412.651ZM436.208 344.154H439.664V378.192H436.208V344.154ZM466.834 362.172L463.666 353.514C463.51 353.13 463.348 352.674 463.18 352.146C463.012 351.618 462.844 351.048 462.676 350.436C462.52 351.048 462.358 351.624 462.19 352.164C462.022 352.692 461.86 353.154 461.704 353.55L458.554 362.172H466.834ZM475.384 372H471.64C471.22 372 470.878 371.898 470.614 371.694C470.35 371.478 470.152 371.214 470.02 370.902L468.076 365.592H457.294L455.35 370.902C455.254 371.178 455.068 371.43 454.792 371.658C454.516 371.886 454.174 372 453.766 372H449.986L460.228 345.972H465.16L475.384 372ZM486.538 359.058C487.426 359.058 488.2 358.95 488.86 358.734C489.52 358.506 490.066 358.188 490.498 357.78C490.942 357.36 491.272 356.856 491.488 356.268C491.704 355.668 491.812 355.002 491.812 354.27C491.812 353.574 491.704 352.944 491.488 352.38C491.272 351.816 490.948 351.336 490.516 350.94C490.084 350.544 489.538 350.244 488.878 350.04C488.218 349.824 487.438 349.716 486.538 349.716H482.92V359.058H486.538ZM486.538 345.972C488.278 345.972 489.784 346.176 491.056 346.584C492.328 346.992 493.378 347.562 494.206 348.294C495.034 349.026 495.646 349.902 496.042 350.922C496.45 351.942 496.654 353.058 496.654 354.27C496.654 355.53 496.444 356.688 496.024 357.744C495.604 358.788 494.974 359.688 494.134 360.444C493.294 361.2 492.238 361.788 490.966 362.208C489.706 362.628 488.23 362.838 486.538 362.838H482.92V372H478.078V345.972H486.538ZM508.827 359.058C509.715 359.058 510.489 358.95 511.149 358.734C511.809 358.506 512.355 358.188 512.787 357.78C513.231 357.36 513.561 356.856 513.777 356.268C513.993 355.668 514.101 355.002 514.101 354.27C514.101 353.574 513.993 352.944 513.777 352.38C513.561 351.816 513.237 351.336 512.805 350.94C512.373 350.544 511.827 350.244 511.167 350.04C510.507 349.824 509.727 349.716 508.827 349.716H505.209V359.058H508.827ZM508.827 345.972C510.567 345.972 512.073 346.176 513.345 346.584C514.617 346.992 515.667 347.562 516.495 348.294C517.323 349.026 517.935 349.902 518.331 350.922C518.739 351.942 518.943 353.058 518.943 354.27C518.943 355.53 518.733 356.688 518.313 357.744C517.893 358.788 517.263 359.688 516.423 360.444C515.583 361.2 514.527 361.788 513.255 362.208C511.995 362.628 510.519 362.838 508.827 362.838H505.209V372H500.367V345.972H508.827Z" fill="white"/>
<path d="M170.792 241.532C172.963 241.532 174.887 242.371 176.564 244.048L192.252 261.068C183.569 271.823 172.864 280.061 160.136 285.784C147.507 291.507 132.312 294.368 114.552 294.368C98.6667 294.368 84.36 291.655 71.632 286.228C59.0027 280.801 48.1987 273.253 39.22 263.584C30.2413 253.915 23.3347 242.371 18.5 228.952C13.764 215.533 11.396 200.881 11.396 184.996C11.396 168.913 13.9613 154.212 19.092 140.892C24.2227 127.473 31.4253 115.929 40.7 106.26C50.0733 96.5907 61.2227 89.092 74.148 83.764C87.0733 78.3373 101.38 75.624 117.068 75.624C132.657 75.624 146.471 78.1893 158.508 83.32C170.644 88.4507 180.955 95.16 189.44 103.448L176.12 121.948C175.331 123.132 174.295 124.168 173.012 125.056C171.828 125.944 170.151 126.388 167.98 126.388C166.5 126.388 164.971 125.993 163.392 125.204C161.813 124.316 160.087 123.28 158.212 122.096C156.337 120.813 154.167 119.432 151.7 117.952C149.233 116.472 146.372 115.14 143.116 113.956C139.86 112.673 136.061 111.637 131.72 110.848C127.477 109.96 122.544 109.516 116.92 109.516C107.349 109.516 98.568 111.243 90.576 114.696C82.6827 118.051 75.8747 122.984 70.152 129.496C64.4293 135.909 59.9893 143.803 56.832 153.176C53.6747 162.451 52.096 173.057 52.096 184.996C52.096 197.033 53.7733 207.739 57.128 217.112C60.5813 226.485 65.2187 234.379 71.04 240.792C76.8613 247.205 83.7187 252.139 91.612 255.592C99.5053 258.947 107.991 260.624 117.068 260.624C122.495 260.624 127.379 260.328 131.72 259.736C136.16 259.144 140.205 258.207 143.856 256.924C147.605 255.641 151.108 254.013 154.364 252.04C157.719 249.968 161.024 247.452 164.28 244.492C165.267 243.604 166.303 242.913 167.388 242.42C168.473 241.828 169.608 241.532 170.792 241.532ZM250.307 156.432C256.227 150.907 262.739 146.417 269.843 142.964C276.947 139.511 285.285 137.784 294.855 137.784C303.143 137.784 310.494 139.215 316.907 142.076C323.321 144.839 328.649 148.785 332.891 153.916C337.233 158.948 340.489 165.016 342.659 172.12C344.929 179.125 346.063 186.871 346.063 195.356V292H309.507V195.356C309.507 186.081 307.386 178.928 303.143 173.896C298.901 168.765 292.438 166.2 283.755 166.2C277.441 166.2 271.521 167.631 265.995 170.492C260.47 173.353 255.241 177.251 250.307 182.184V292H213.751V72.072H250.307V156.432ZM418.717 140.152V292H382.013V140.152H418.717ZM423.749 95.9C423.749 99.0573 423.108 102.017 421.825 104.78C420.543 107.543 418.816 109.96 416.645 112.032C414.573 114.104 412.107 115.781 409.245 117.064C406.384 118.248 403.325 118.84 400.069 118.84C396.912 118.84 393.903 118.248 391.041 117.064C388.279 115.781 385.861 114.104 383.789 112.032C381.717 109.96 380.04 107.543 378.757 104.78C377.573 102.017 376.981 99.0573 376.981 95.9C376.981 92.644 377.573 89.5853 378.757 86.724C380.04 83.8627 381.717 81.396 383.789 79.324C385.861 77.252 388.279 75.624 391.041 74.44C393.903 73.1573 396.912 72.516 400.069 72.516C403.325 72.516 406.384 73.1573 409.245 74.44C412.107 75.624 414.573 77.252 416.645 79.324C418.816 81.396 420.543 83.8627 421.825 86.724C423.108 89.5853 423.749 92.644 423.749 95.9ZM551.298 178.928C547.252 173.896 542.763 170.344 537.83 168.272C532.896 166.2 527.618 165.164 521.994 165.164C516.468 165.164 511.486 166.2 507.046 168.272C502.606 170.344 498.807 173.501 495.65 177.744C492.492 181.888 490.075 187.216 488.398 193.728C486.72 200.141 485.882 207.739 485.882 216.52C485.882 225.4 486.572 232.948 487.954 239.164C489.434 245.281 491.506 250.313 494.17 254.26C496.834 258.108 500.09 260.92 503.938 262.696C507.786 264.373 512.078 265.212 516.814 265.212C524.411 265.212 530.874 263.633 536.202 260.476C541.53 257.319 546.562 252.829 551.298 247.008V178.928ZM587.854 140.152V341.58H551.298V272.76C545.279 279.173 538.471 284.353 530.874 288.3C523.276 292.247 514.446 294.22 504.382 294.22C496.094 294.22 488.496 292.493 481.59 289.04C474.683 285.587 468.714 280.604 463.682 274.092C458.748 267.481 454.9 259.341 452.138 249.672C449.474 240.003 448.142 228.952 448.142 216.52C448.142 205.272 449.671 194.813 452.73 185.144C455.788 175.475 460.179 167.088 465.902 159.984C471.624 152.88 478.482 147.355 486.474 143.408C494.466 139.363 503.444 137.34 513.41 137.34C522.882 137.34 530.824 138.968 537.238 142.224C543.651 145.48 549.374 149.871 554.406 155.396L556.33 146.812C557.612 142.372 560.671 140.152 565.506 140.152H587.854ZM754.763 140.152V292H732.415C727.58 292 724.522 289.78 723.239 285.34L720.723 273.204C714.507 279.519 707.65 284.649 700.151 288.596C692.652 292.444 683.822 294.368 673.659 294.368C665.371 294.368 658.02 292.987 651.607 290.224C645.292 287.363 639.964 283.367 635.623 278.236C631.282 273.105 627.976 267.037 625.707 260.032C623.536 252.928 622.451 245.133 622.451 236.648V140.152H659.007V236.648C659.007 245.923 661.128 253.125 665.371 258.256C669.712 263.288 676.175 265.804 684.759 265.804C691.074 265.804 696.994 264.423 702.519 261.66C708.044 258.799 713.274 254.901 718.207 249.968V140.152H754.763ZM888.837 198.612C888.837 193.876 888.146 189.436 886.765 185.292C885.482 181.049 883.509 177.349 880.845 174.192C878.181 171.035 874.777 168.568 870.633 166.792C866.588 164.917 861.852 163.98 856.425 163.98C845.868 163.98 837.53 166.989 831.413 173.008C825.394 179.027 821.546 187.561 819.869 198.612H888.837ZM819.129 220.664C819.721 228.459 821.102 235.217 823.273 240.94C825.444 246.564 828.305 251.251 831.857 255C835.409 258.651 839.602 261.413 844.437 263.288C849.37 265.064 854.797 265.952 860.717 265.952C866.637 265.952 871.718 265.261 875.961 263.88C880.302 262.499 884.052 260.969 887.209 259.292C890.465 257.615 893.277 256.085 895.645 254.704C898.112 253.323 900.48 252.632 902.749 252.632C905.808 252.632 908.077 253.767 909.557 256.036L920.065 269.356C916.02 274.092 911.481 278.088 906.449 281.344C901.417 284.501 896.138 287.067 890.613 289.04C885.186 290.915 879.612 292.247 873.889 293.036C868.265 293.825 862.789 294.22 857.461 294.22C846.904 294.22 837.086 292.493 828.009 289.04C818.932 285.488 811.038 280.308 804.329 273.5C797.62 266.593 792.341 258.108 788.493 248.044C784.645 237.881 782.721 226.14 782.721 212.82C782.721 202.46 784.398 192.741 787.753 183.664C791.108 174.488 795.893 166.545 802.109 159.836C808.424 153.028 816.07 147.651 825.049 143.704C834.126 139.757 844.338 137.784 855.685 137.784C865.256 137.784 874.086 139.313 882.177 142.372C890.268 145.431 897.224 149.92 903.045 155.84C908.866 161.661 913.405 168.864 916.661 177.448C920.016 185.933 921.693 195.652 921.693 206.604C921.693 212.129 921.101 215.879 919.917 217.852C918.733 219.727 916.464 220.664 913.109 220.664H819.129ZM1058.2 155.248C1058.2 157.813 1057.76 160.329 1056.87 162.796C1055.98 165.263 1054.8 167.285 1053.32 168.864L981.242 263.88H1055.98V292H938.766V276.756C938.766 275.079 939.161 273.105 939.95 270.836C940.74 268.468 941.924 266.248 943.502 264.176L1016.32 168.124H943.058V140.152H1058.2V155.248ZM1123.16 140.152V292H1086.46V140.152H1123.16ZM1128.19 95.9C1128.19 99.0573 1127.55 102.017 1126.27 104.78C1124.99 107.543 1123.26 109.96 1121.09 112.032C1119.02 114.104 1116.55 115.781 1113.69 117.064C1110.83 118.248 1107.77 118.84 1104.51 118.84C1101.36 118.84 1098.35 118.248 1095.49 117.064C1092.72 115.781 1090.31 114.104 1088.23 112.032C1086.16 109.96 1084.49 107.543 1083.2 104.78C1082.02 102.017 1081.43 99.0573 1081.43 95.9C1081.43 92.644 1082.02 89.5853 1083.2 86.724C1084.49 83.8627 1086.16 81.396 1088.23 79.324C1090.31 77.252 1092.72 75.624 1095.49 74.44C1098.35 73.1573 1101.36 72.516 1104.51 72.516C1107.77 72.516 1110.83 73.1573 1113.69 74.44C1116.55 75.624 1119.02 77.252 1121.09 79.324C1123.26 81.396 1124.99 83.8627 1126.27 86.724C1127.55 89.5853 1128.19 92.644 1128.19 95.9Z" fill="url(#paint0_linear_33_1189)"/>
<defs>
<linearGradient id="paint0_linear_33_1189" x1="1143" y1="177" x2="37.7246" y2="208.712" gradientUnits="userSpaceOnUse">
<stop stop-color="#F45E84"/>
<stop offset="1" stop-color="#7380F3"/>
</linearGradient>
</defs>
</svg>
