<svg width="134" height="66" viewBox="0 0 134 66" fill="none" xmlns="http://www.w3.org/2000/svg">
<path d="M27.9674 15.0758C32.0376 15.0758 35.3372 11.7634 35.3372 7.67729C35.3372 3.59122 32.0376 0.278809 27.9674 0.278809C23.8972 0.278809 20.5977 3.59122 20.5977 7.67729C20.5977 11.7634 23.8972 15.0758 27.9674 15.0758Z" fill="#F65D82"/>
<path d="M82.9943 58.4801C87.0645 58.4801 90.3641 55.1676 90.3641 51.0816C90.3641 46.9955 87.0645 43.6831 82.9943 43.6831C78.9241 43.6831 75.6245 46.9955 75.6245 51.0816C75.6245 55.1676 78.9241 58.4801 82.9943 58.4801Z" fill="url(#paint0_linear)"/>
<path d="M28.0172 14.8023C32.0874 14.8023 35.387 11.4899 35.387 7.40385C35.387 3.31778 32.0874 0.00537109 28.0172 0.00537109C23.947 0.00537109 20.6475 3.31778 20.6475 7.40385C20.6475 11.4899 23.947 14.8023 28.0172 14.8023Z" fill="url(#paint1_linear)"/>
<path d="M128.687 13.1034C131.401 13.1034 133.6 10.8951 133.6 8.17109C133.6 5.44705 131.401 3.23877 128.687 3.23877C125.974 3.23877 123.774 5.44705 123.774 8.17109C123.774 10.8951 125.974 13.1034 128.687 13.1034Z" fill="#6348B3"/>
<path d="M52.9515 47.2663C55.026 47.2663 56.7077 45.578 56.7077 43.4954C56.7077 41.4129 55.026 39.7246 52.9515 39.7246C50.877 39.7246 49.1953 41.4129 49.1953 43.4954C49.1953 45.578 50.877 47.2663 52.9515 47.2663Z" fill="#7380F3"/>
<path d="M4.87585 38.7511C7.04663 38.7511 8.80639 36.9845 8.80639 34.8052C8.80639 32.626 7.04663 30.8594 4.87585 30.8594C2.70508 30.8594 0.945312 32.626 0.945312 34.8052C0.945312 36.9845 2.70508 38.7511 4.87585 38.7511Z" fill="#F65D82"/>
<path d="M117.808 48.775C120.851 48.775 123.318 46.2989 123.318 43.2444C123.318 40.19 120.851 37.7139 117.808 37.7139C114.766 37.7139 112.299 40.19 112.299 43.2444C112.299 46.2989 114.766 48.775 117.808 48.775Z" fill="#F35810"/>
<path d="M4.12102 18.1053C6.05721 18.1053 7.6268 16.5296 7.6268 14.5858C7.6268 12.6421 6.05721 11.0664 4.12102 11.0664C2.18483 11.0664 0.615234 12.6421 0.615234 14.5858C0.615234 16.5296 2.18483 18.1053 4.12102 18.1053Z" fill="#F35810"/>
<path d="M123.819 29.1663C124.925 29.1663 125.822 28.2659 125.822 27.1552C125.822 26.0445 124.925 25.144 123.819 25.144C122.712 25.144 121.815 26.0445 121.815 27.1552C121.815 28.2659 122.712 29.1663 123.819 29.1663Z" fill="#7380F3"/>
<path d="M82.0127 50.5881L28.9507 9.15674L4.87598 35.2982L127.706 9.15674L82.0127 50.5881Z" stroke="url(#paint2_linear)"/>
<path d="M59.8958 12.8585C60.9749 11.7752 60.9749 10.0188 59.8958 8.93548C58.8167 7.85218 57.0671 7.85218 55.9881 8.93548C54.909 10.0188 54.909 11.7752 55.9881 12.8585C57.0671 13.9418 58.8167 13.9418 59.8958 12.8585Z" fill="#F55D82"/>
<path d="M97.2376 5.88434C98.3167 4.80104 98.3167 3.04467 97.2376 1.96137C96.1585 0.878073 94.4089 0.878067 93.3299 1.96137C92.2508 3.04467 92.2508 4.80104 93.3299 5.88434C94.409 6.96764 96.1585 6.96764 97.2376 5.88434Z" fill="#6348B3"/>
<path d="M57.9424 10.8972L96.3688 3.26904" stroke="url(#paint3_linear)"/>
<path d="M27.9185 44.2667C29.4445 44.2667 30.6817 43.0247 30.6817 41.4927C30.6817 39.9607 29.4445 38.7188 27.9185 38.7188C26.3924 38.7188 25.1553 39.9607 25.1553 41.4927C25.1553 43.0247 26.3924 44.2667 27.9185 44.2667Z" fill="#F55D82"/>
<path d="M59.2354 65.8433C60.7614 65.8433 61.9986 64.6014 61.9986 63.0694C61.9986 61.5374 60.7614 60.2954 59.2354 60.2954C57.7093 60.2954 56.4722 61.5374 56.4722 63.0694C56.4722 64.6014 57.7093 65.8433 59.2354 65.8433Z" fill="#6348B3"/>
<path d="M27.9189 41.4932L60.4631 63.3771" stroke="url(#paint4_linear)"/>
<defs>
<linearGradient id="paint0_linear" x1="62.9677" y1="58.48" x2="93.2678" y2="58.48" gradientUnits="userSpaceOnUse">
<stop stop-color="#F65D82"/>
<stop offset="1" stop-color="#6348B3"/>
</linearGradient>
<linearGradient id="paint1_linear" x1="21.8996" y1="14.8022" x2="44.9376" y2="14.8022" gradientUnits="userSpaceOnUse">
<stop stop-color="#F65D82"/>
<stop offset="1" stop-color="#6348B3"/>
</linearGradient>
<linearGradient id="paint2_linear" x1="5.12338" y1="9.15674" x2="127.826" y2="9.15674" gradientUnits="userSpaceOnUse">
<stop stop-color="#F65D82"/>
<stop offset="1" stop-color="#6348B3"/>
</linearGradient>
<linearGradient id="paint3_linear" x1="57.7095" y1="10.3125" x2="96.284" y2="2.8271" gradientUnits="userSpaceOnUse">
<stop stop-color="#F65D82"/>
<stop offset="1" stop-color="#6348B3"/>
</linearGradient>
<linearGradient id="paint4_linear" x1="28.1659" y1="40.9145" x2="60.8257" y2="62.839" gradientUnits="userSpaceOnUse">
<stop stop-color="#F65D82"/>
<stop offset="1" stop-color="#6348B3"/>
</linearGradient>
</defs>
</svg>
