<svg width="132" height="68" viewBox="0 0 132 68" fill="none" xmlns="http://www.w3.org/2000/svg">
<path d="M0 61.9363H4.33798V44.8063L11.0534 59.7396C11.8458 61.5468 12.9305 62.1866 15.0576 62.1866C17.1851 62.1866 18.2278 61.5471 19.0206 59.7396L25.736 44.8063V61.9359H30.074V44.8343C30.074 43.1656 29.4065 42.3593 28.0303 41.9424C24.7351 40.9135 22.5243 41.8033 21.523 44.028L14.9326 58.766L8.55098 44.028C7.59163 41.8033 5.33921 40.9135 2.04401 41.9424C0.667486 42.3593 0 43.1659 0 44.834V61.9363V61.9363ZM33.681 47.9934H38.0176V57.4307C37.9771 57.9435 38.1821 59.1467 40.5585 59.1839C41.7709 59.2032 49.9155 59.1839 49.9915 59.1839V47.9474H54.3383C54.3582 47.9474 54.3339 63.2712 54.3342 63.3364C54.3578 67.1157 49.6449 67.9365 47.4725 68H33.7749V65.0815C33.7992 65.0815 47.4624 65.0845 47.4969 65.0812C50.2888 64.7863 49.9591 63.3986 49.9587 62.9314V61.7937H40.7382C36.4482 61.7542 33.7168 59.8818 33.683 57.7283C33.6796 57.5287 33.7756 48.0876 33.6807 47.993L33.681 47.9934Z" fill="#00618A"/>
<path d="M57.6812 61.9359H70.1527C71.6126 61.9359 73.0307 61.6302 74.1573 61.1016C76.034 60.2399 76.9518 59.0721 76.9518 57.5422V54.3723C76.9518 53.1208 75.9091 51.9527 73.8651 51.1744C72.7804 50.7569 71.4458 50.5346 70.1527 50.5346H64.8966C63.1454 50.5346 62.3111 50.0063 62.1027 48.8385C62.0608 48.6994 62.0608 48.5879 62.0608 48.4491V46.475C62.0608 46.3635 62.0608 46.252 62.1027 46.1132C62.3111 45.2235 62.7701 44.9728 64.3132 44.834C64.4382 44.834 64.6051 44.8059 64.7304 44.8059H77.1187V41.9144H64.9388C63.187 41.9144 62.2692 42.0255 61.4352 42.2755C58.849 43.0822 57.7228 44.3614 57.7228 46.5858V49.1166C57.7228 51.0633 59.9337 52.7317 63.6457 53.1208C64.0632 53.1485 64.4801 53.1762 64.8969 53.1762H69.4018C69.569 53.1762 69.7358 53.1762 69.8608 53.2042C71.2373 53.3157 71.8211 53.5657 72.2386 54.0663C72.4885 54.3163 72.572 54.5669 72.572 54.8449V57.375C72.572 57.6814 72.3636 58.0709 71.9467 58.4043C71.5711 58.738 70.9455 58.9606 70.1111 59.0164C69.9443 59.0164 69.8193 59.0441 69.6524 59.0441H57.6809V61.9356L57.6812 61.9359ZM104.013 56.9028C104.013 59.8781 106.224 61.5468 110.687 61.8805C111.104 61.9082 111.522 61.9359 111.938 61.9359H123.242V59.0441H111.855C109.311 59.0441 108.351 58.4043 108.351 56.8751V41.9141H104.013V56.9028ZM79.7204 57.0544V46.7439C79.7204 44.1246 81.5597 42.5359 85.1958 42.0343C85.5835 41.979 85.9746 41.9511 86.3662 41.9509H94.6003C95.0182 41.9509 95.3948 41.9789 95.8127 42.0343C99.4491 42.5359 101.288 44.1246 101.288 46.7439V57.0541C101.288 59.1788 100.507 60.3165 98.7069 61.0577L102.98 64.9146H97.9432L94.4862 61.7941L91.0058 62.0146H86.3662C85.5721 62.0146 84.7364 61.9028 83.8165 61.6522C81.0581 60.8999 79.7204 59.4508 79.7204 57.0541V57.0544ZM84.4023 56.8038C84.4023 56.9433 84.4442 57.0825 84.486 57.2497C84.7367 58.4478 85.8653 59.1167 87.5789 59.1167H91.52L87.8998 55.8485H92.9364L96.0941 58.6988C96.6758 58.3887 97.0588 57.9145 97.1926 57.3054C97.2341 57.1662 97.2341 57.0267 97.2341 56.8876V46.9952C97.2341 46.8837 97.2341 46.7442 97.1926 46.6047C96.9416 45.49 95.813 44.8495 94.1413 44.8495H87.5789C85.6565 44.8495 84.4026 45.6856 84.4026 46.9952V56.8038H84.4023Z" fill="#E48E00"/>
<path d="M127.059 37.1171C124.393 37.0448 122.356 37.2928 120.614 38.0271C120.119 38.2359 119.33 38.2413 119.25 38.8615C119.521 39.1466 119.564 39.5722 119.78 39.9228C120.195 40.5957 120.898 41.4973 121.524 41.9702C122.208 42.4871 122.914 43.0394 123.647 43.4869C124.952 44.2824 126.409 44.7368 127.666 45.534C128.406 46.0039 129.142 46.5957 129.864 47.126C130.222 47.3881 130.462 47.7959 130.926 47.9604V47.8844C130.682 47.5739 130.619 47.147 130.395 46.8227L129.409 45.837C128.446 44.5577 127.222 43.4342 125.922 42.5009C124.885 41.7564 122.563 40.7511 122.131 39.5438L122.055 39.4678C122.79 39.3851 123.651 39.1189 124.33 38.9375C125.47 38.6314 126.488 38.7105 127.666 38.4065C128.196 38.2548 128.727 38.1028 129.258 37.9515V37.6481C128.663 37.0374 128.239 36.2294 127.589 35.6767C125.892 34.231 124.039 32.7866 122.131 31.5823C121.072 30.9141 119.764 30.4801 118.643 29.9139C118.266 29.7238 117.602 29.6248 117.354 29.3073C116.764 28.5563 116.443 27.6041 115.989 26.7292C115.037 24.8966 114.103 22.8949 113.259 20.9664C112.684 19.6517 112.309 18.3552 111.591 17.1753C108.149 11.5148 104.443 8.09871 98.7017 4.74034C97.4803 4.02623 96.0095 3.74384 94.4553 3.37564L91.9532 3.22363C91.4442 3.01082 90.9145 2.38826 90.4365 2.08627C88.5347 0.885066 83.6569 -1.72846 82.2483 1.70726C81.3589 3.87592 83.5776 5.99221 84.371 7.09106C84.9281 7.86191 85.6412 8.726 86.0391 9.59312C86.3009 10.163 86.3461 10.7342 86.5701 11.3372C87.1214 12.8225 87.6004 14.4381 88.3138 15.8106C88.6742 16.5051 89.0715 17.2368 89.5272 17.8576C89.8065 18.239 90.2852 18.4069 90.3609 18.9953C89.8927 19.6507 89.866 20.6674 89.6028 21.4974C88.4178 25.2341 88.8647 29.8781 90.5885 32.6437C91.1175 33.4925 92.3633 35.3133 94.0763 34.615C95.5747 34.0046 95.24 32.1133 95.6687 30.4449C95.7656 30.0666 95.7058 29.7883 95.896 29.5349V29.6109L97.2607 32.3403C98.2707 33.9668 100.064 35.6669 101.583 36.8141C102.371 37.409 102.991 38.4375 104.009 38.7855V38.7095H103.933C103.736 38.4021 103.427 38.2744 103.175 38.0271C102.582 37.4454 101.922 36.7222 101.431 36.0557C100.05 34.18 98.8284 32.1272 97.716 29.9899C97.1847 28.9698 96.7229 27.8436 96.275 26.8052C96.1024 26.4049 96.1044 25.7996 95.7447 25.5918C95.2542 26.3529 94.5316 26.9683 94.1523 27.8669C93.5456 29.3032 93.4672 31.0547 93.2426 32.871C93.1095 32.9186 93.1683 32.8859 93.0906 32.9467C92.0346 32.692 91.6634 31.6049 91.2712 30.6723C90.2781 28.3138 90.094 24.5159 90.9672 21.8011C91.1935 21.0985 92.215 18.8859 91.8016 18.2373C91.6043 17.5898 90.953 17.2152 90.5885 16.7206C90.1376 16.1089 89.6873 15.3036 89.3752 14.5972C88.5628 12.7583 88.1834 10.694 87.3281 8.8351C86.9194 7.94636 86.2279 7.04715 85.6601 6.25704C85.0314 5.38215 84.3275 4.73696 83.8404 3.67864C83.6671 3.30267 83.4316 2.70072 83.6884 2.31394C83.7704 2.05317 83.8856 1.94406 84.1437 1.85893C84.5835 1.52012 85.8084 1.97176 86.2664 2.16227C87.4825 2.66728 88.4972 3.1483 89.5272 3.83031C90.0217 4.15831 90.5216 4.79236 91.1192 4.96801H91.8016C92.869 5.21325 94.0648 5.04402 95.062 5.34702C96.8246 5.88276 98.4041 6.71577 99.8384 7.62174C104.209 10.3812 107.782 14.3094 110.227 18.9953C110.62 19.7496 110.79 20.4698 111.136 21.2701C111.835 22.8841 112.716 24.5447 113.411 26.1228C114.105 27.697 114.781 29.2863 115.761 30.5966C116.277 31.2854 118.269 31.6549 119.173 32.037C119.808 32.3052 120.847 32.5845 121.448 32.9467C122.596 33.6392 123.708 34.4634 124.785 35.2217C125.323 35.6007 126.977 36.4321 127.059 37.1171H127.059Z" fill="#00618A"/>
<path fill-rule="evenodd" clip-rule="evenodd" d="M93.1665 8.22753C92.6105 8.21739 92.2173 8.28833 91.8015 8.37886V8.45486H91.8775C92.1427 8.99973 92.6105 9.35036 92.9389 9.81956C93.1914 10.3504 93.4442 10.8812 93.6972 11.4119L93.7729 11.3363C94.2424 11.0052 94.4576 10.4759 94.4552 9.66822C94.2671 9.47028 94.239 9.22166 94.0762 8.98554C93.8594 8.67072 93.4398 8.49236 93.1665 8.22753V8.22753Z" fill="#00618A"/>
<path fill-rule="evenodd" clip-rule="evenodd" d="M125.278 58.9622C125.278 60.8721 126.788 62.1591 128.476 62.1591C130.164 62.1591 131.673 60.8721 131.673 58.9622C131.673 57.0526 130.164 55.7656 128.476 55.7656C126.788 55.7656 125.279 57.0526 125.279 58.9622H125.278ZM130.956 58.9622C130.956 60.4113 129.848 61.4943 128.476 61.4943C127.086 61.4943 125.995 60.4113 125.995 58.9622C125.995 57.513 127.086 56.4301 128.476 56.4301C129.848 56.4301 130.956 57.513 130.956 58.9622ZM129.337 60.7863H130.053L129.005 59.1841C129.567 59.1243 129.993 58.8514 129.993 58.1866C129.993 57.4448 129.524 57.1381 128.621 57.1381H127.197V60.7863H127.811V59.2095H128.382L129.337 60.7866V60.7863ZM127.811 58.698V57.6495H128.518C128.885 57.6495 129.328 57.7178 129.328 58.144C129.328 58.6551 128.928 58.698 128.467 58.698H127.811V58.698Z" fill="#E48E00"/>
</svg>
